<?xml version="1.0" standalone="no"?>
<!DOCTYPE svg PUBLIC "-//W3C//DTD SVG 1.1//EN" "http://www.w3.org/Graphics/SVG/1.1/DTD/svg11.dtd" >
<svg xmlns="http://www.w3.org/2000/svg" xmlns:xlink="http://www.w3.org/1999/xlink" version="1.1">
<metadata>
Created by FontForge 20161013 at Tue May 14 13:54:29 2013
 By ,,,
Copyright (c) 2013 by Fontfabric. All rights reserved.
</metadata>
<defs>
<font id="NexaSlab-Light" horiz-adv-x="700" >
  <font-face 
    font-family="Nexa Slab Light"
    font-weight="300"
    font-stretch="normal"
    units-per-em="1000"
    panose-1="2 0 5 0 0 0 0 0 0 0"
    ascent="700"
    descent="-300"
    x-height="494"
    cap-height="700"
    bbox="-153 -294.02 1143 938"
    underline-thickness="50"
    underline-position="-175"
    unicode-range="U+000D-FB02"
  />
<missing-glyph horiz-adv-x="645" 
d="M37 0v700h538v-700h-538zM127 447h34q0 58 41 82.5t99 24.5q152 0 152 -109q0 -46 -20 -66.5t-56 -30.5q-63 -19 -84.5 -51t-22.5 -103h35q0 65 13.5 85t67.5 37q21 7 35 13.5t31 20.5t26 38t9 58q0 52 -29 85t-68.5 44.5t-88.5 11.5q-73 0 -123.5 -34t-50.5 -106z
M264 122q0 -12 8 -19t19 -7q10 0 18 7t8 19q0 13 -7.5 19.5t-18.5 6.5q-27 0 -27 -26z" />
    <glyph glyph-name=".notdef" horiz-adv-x="645" 
d="M37 0v700h538v-700h-538zM127 447h34q0 58 41 82.5t99 24.5q152 0 152 -109q0 -46 -20 -66.5t-56 -30.5q-63 -19 -84.5 -51t-22.5 -103h35q0 65 13.5 85t67.5 37q21 7 35 13.5t31 20.5t26 38t9 58q0 52 -29 85t-68.5 44.5t-88.5 11.5q-73 0 -123.5 -34t-50.5 -106z
M264 122q0 -12 8 -19t19 -7q10 0 18 7t8 19q0 13 -7.5 19.5t-18.5 6.5q-27 0 -27 -26z" />
    <glyph glyph-name=".null" horiz-adv-x="0" 
 />
    <glyph glyph-name="nonmarkingreturn" horiz-adv-x="333" 
 />
    <glyph glyph-name="CR" unicode="&#xd;" horiz-adv-x="324" 
 />
    <glyph glyph-name="space" unicode=" " horiz-adv-x="266" 
 />
    <glyph glyph-name="exclam" unicode="!" horiz-adv-x="259" 
d="M104 700h49v-559h-49v559zM130 -2q-15 0 -26 9.5t-11 27.5q0 17 11.5 26.5t26.5 9.5t26 -9.5t11 -26.5q0 -18 -11 -27.5t-27 -9.5z" />
    <glyph glyph-name="quotedbl" unicode="&#x22;" horiz-adv-x="340" 
d="M218 704h43v-256h-43v256zM79 704h44v-256h-44v256z" />
    <glyph glyph-name="numbersign" unicode="#" horiz-adv-x="627" 
d="M446 495h-203l-73 -284h204zM249 700h43l-41 -168h205l42 168h43l-42 -168h92v-37h-100l-73 -284h96v-39h-105l-42 -172h-43l42 172h-205l-42 -172h-43l42 172h-81v39h89l73 284h-85v37h94z" />
    <glyph glyph-name="dollar" unicode="$" horiz-adv-x="652" 
d="M115 109q89 -73 216 -73q37 0 72.5 6.5t73 21.5t60 46.5t22.5 75.5q0 31 -13 54.5t-34.5 38.5t-52 26t-60 17.5t-63.5 13.5q-8 1 -12 2q-48 9 -77.5 16t-67 21.5t-59 32.5t-36.5 48t-15 68q0 47 20.5 84t55.5 59t78 33t91 12v92h47v-93q134 -10 213 -77q0 -23 -0.5 -66.5
t-0.5 -67.5h-46l-1 111q-73 54 -201 56q-85 1 -145 -35.5t-60 -108.5q0 -27 12 -48.5t29.5 -35t48.5 -24.5t56.5 -17t65.5 -14q44 -8 68.5 -13t62.5 -16t59.5 -24.5t44 -33t32.5 -47.5t10 -64q0 -50 -21.5 -88t-58 -60t-79 -34t-90.5 -14v-91h-47v89q-149 7 -247 96
q0 16 0.5 71t0.5 70h47z" />
    <glyph glyph-name="percent" unicode="%" horiz-adv-x="733" 
d="M189 706q73 0 113.5 -44t40.5 -105q0 -60 -41 -103.5t-113 -43.5t-112 43.5t-40 104.5t40 104.5t112 43.5zM566 702h53l-451 -702h-54zM189 667q-52 0 -81 -32.5t-28 -76.5q1 -45 29.5 -76.5t80.5 -31.5q51 0 80 31.5t29 75.5q1 44 -28.5 77t-81.5 33zM542 291
q73 0 113.5 -44.5t40.5 -105.5q0 -60 -41 -103.5t-113 -43.5t-112 43.5t-40 104.5t40 105t112 44zM542 252q-52 0 -81 -33t-28 -77t29.5 -75.5t80.5 -31.5q51 0 80 31.5t29 75.5q1 44 -28.5 77t-81.5 33z" />
    <glyph glyph-name="ampersand" unicode="&#x26;" horiz-adv-x="686" 
d="M514 184v153h-193q-97 0 -153 -45.5t-56 -104.5q0 -71 52 -111t156 -40q34 0 65 7t61.5 22.5t49 46t18.5 72.5zM557 336v-153q0 -66 19.5 -105t67.5 -38v-40q-42 -6 -74 18.5t-43 69.5q-35 -57 -87 -77t-119 -20q-125 0 -191.5 51.5t-66.5 142.5q0 62 41.5 107.5
t99.5 64.5q-57 17 -93.5 60.5t-36.5 100.5q0 83 65.5 134.5t183.5 51.5q46 0 83 -7t70.5 -25t52 -53.5t18.5 -87.5l-45 1q0 40 -14.5 66.5t-41.5 39.5t-56 18t-68 5q-97 0 -148 -39.5t-50 -102.5q1 -50 34.5 -83t76 -45t89.5 -12h297v-43h-64z" />
    <glyph glyph-name="quotesingle" unicode="'" horiz-adv-x="201" 
d="M79 704h43v-256h-43v256z" />
    <glyph glyph-name="parenleft" unicode="(" horiz-adv-x="325" 
d="M271 735l26 -37q-95 -65 -144.5 -168t-51.5 -232q-1 -123 48.5 -231t146.5 -178l-25 -38q-106 68 -163 188.5t-57 255.5t56.5 253t163.5 187z" />
    <glyph glyph-name="parenright" unicode=")" horiz-adv-x="325" 
d="M28 699l26 37q106 -69 162.5 -186.5t56.5 -253.5t-56.5 -256t-162.5 -189l-25 38q97 70 146.5 178t47.5 232q-1 128 -51 231t-144 169z" />
    <glyph glyph-name="asterisk" unicode="*" horiz-adv-x="341" 
d="M252 517l-32 -23l-51 73l-53 -73l-33 23l57 70l-79 23l11 36l78 -26l-1 81h40l-2 -81l85 25l11 -35l-86 -23z" />
    <glyph glyph-name="plus" unicode="+" horiz-adv-x="496" 
d="M50 318v48h175v172h46v-172h175v-48h-175v-177h-46v177h-175z" />
    <glyph glyph-name="comma" unicode="," horiz-adv-x="228" 
d="M113 -83h-39l27 75q-26 7 -26 36q1 14 9 23t19.5 11t22.5 -0.5t19 -12.5t7 -25q-1 -6 -39 -107z" />
    <glyph glyph-name="hyphen" unicode="-" horiz-adv-x="497" 
d="M74 265v46h349v-46h-349z" />
    <glyph glyph-name="period" unicode="." horiz-adv-x="219" 
d="M109 -4q-15 0 -25.5 9.5t-10.5 26.5t10.5 26.5t25.5 9.5t25.5 -9.5t10.5 -26.5t-10 -26.5t-26 -9.5z" />
    <glyph glyph-name="slash" unicode="/" horiz-adv-x="476" 
d="M25 -82l373 841h53l-375 -841h-51z" />
    <glyph glyph-name="zero" unicode="0" horiz-adv-x="671" 
d="M68 265v171q0 131 78 202.5t191 71.5q112 0 189 -72t77 -202v-171q0 -130 -77 -202t-190 -73q-114 0 -191 71.5t-77 203.5zM119 436v-171q0 -109 62.5 -167t155.5 -58q92 0 153.5 59t61.5 166v171q0 107 -62 166.5t-153 59.5q-92 0 -155 -59t-63 -167z" />
    <glyph glyph-name="one" unicode="1" horiz-adv-x="396" 
d="M48 0v45h136v596l-129 -32v46l182 45v-655h137v-45h-326z" />
    <glyph glyph-name="two" unicode="2" horiz-adv-x="666" 
d="M116 158v-109h435l2 105h46v-154h-535v158q0 55 23.5 95t64.5 60.5t86 29.5t98 9q87 0 148 35.5t61 118.5q0 44 -18.5 76.5t-50.5 49t-66.5 24t-73.5 7.5t-73 -7t-66.5 -22.5t-52 -46.5t-19.5 -74h-51q0 54 22 93.5t60.5 60.5t83 31t96.5 10t96 -10.5t82 -33t60 -63
t22 -95.5t-22.5 -95.5t-61 -63t-82 -33t-93.5 -10.5q-221 0 -221 -146z" />
    <glyph glyph-name="three" unicode="3" horiz-adv-x="647" 
d="M129 653l-3 -107h-46v154h487v-26l-202 -267q104 -7 166.5 -57t62.5 -150q0 -70 -39 -119t-99 -70.5t-135 -21.5q-53 0 -98.5 10t-84.5 31.5t-61 60t-22 91.5h51q-1 -53 32.5 -87t79.5 -46t103 -12q94 0 158.5 41t64.5 121q0 52 -20 87t-57 51.5t-75 22.5t-88 6l-8 20
q23 32 100 134t99 133h-366z" />
    <glyph glyph-name="four" unicode="4" horiz-adv-x="644" 
d="M455 -1v159h-426l-4 44l425 498h58v-493h93v-49h-93v-159h-53zM87 207h368v424z" />
    <glyph glyph-name="five" unicode="5" horiz-adv-x="657" 
d="M130 428h226q132 0 191.5 -61.5t59.5 -153.5q0 -93 -69.5 -155.5t-202.5 -62.5q-51 0 -96 9.5t-85.5 30.5t-64.5 61.5t-24 96.5h52q0 -44 20 -74.5t54.5 -45t69 -20.5t74.5 -6q109 0 164.5 45.5t55.5 119.5q0 73 -45.5 121t-153.5 48h-275v319h487v-46h-438v-226z" />
    <glyph glyph-name="six" unicode="6" horiz-adv-x="688" 
d="M135 517v-198q74 104 225 104q52 0 99 -12.5t87 -37t63.5 -67.5t23.5 -99q0 -57 -24 -100t-64 -67.5t-87 -36t-99 -11.5q-71 0 -131 20.5t-102.5 71.5t-42.5 126v306q0 93 78.5 143.5t187.5 50.5q110 0 185 -46t82 -130h-52q-5 62 -65 96t-150 34q-87 0 -150.5 -39
t-63.5 -108zM359 41q56 0 103 13.5t83 52.5t36 100q0 85 -66.5 126.5t-153.5 41.5q-86 0 -155 -43.5t-70 -123.5q0 -45 20 -79t54.5 -52.5t71.5 -27t77 -8.5z" />
    <glyph glyph-name="seven" unicode="7" horiz-adv-x="567" 
d="M87 652l-2 -107h-46v155h513l7 -39l-363 -661h-58l360 652h-411z" />
    <glyph glyph-name="eight" unicode="8" horiz-adv-x="701" 
d="M62 184q0 69 47.5 116.5t113.5 61.5q-149 45 -149 162q0 52 25.5 91t68 59.5t88 30.5t94.5 10t94.5 -9.5t88.5 -30t69 -59.5t26 -92q0 -116 -153 -163q66 -14 114.5 -62.5t49.5 -115.5q0 -55 -26.5 -95t-70.5 -61.5t-92 -31.5t-100 -10t-99.5 10t-91.5 31.5t-70.5 62
t-26.5 95.5zM577 524q0 40 -23 70t-59 46t-72.5 23.5t-72.5 7.5q-49 0 -96.5 -11.5t-88.5 -46.5t-41 -89q0 -50 41 -83t89 -44t96 -11q35 0 71.5 7t73 21.5t59.5 43t23 66.5zM350 341q-34 0 -72.5 -7.5t-76.5 -24.5t-63 -49.5t-25 -74.5t24.5 -73.5t63.5 -47.5t76.5 -23
t72.5 -7t72.5 7t76.5 23t64 47.5t25 73.5q0 41 -25 73t-63.5 49t-77 25.5t-72.5 8.5z" />
    <glyph glyph-name="nine" unicode="9" horiz-adv-x="688" 
d="M329 661q-41 0 -77.5 -8t-70.5 -26t-54.5 -52t-20.5 -80q0 -59 36 -98.5t83.5 -54.5t102.5 -15q85 0 154 43.5t70 123.5q0 45 -20 79t-54 52.5t-71.5 27t-77.5 8.5zM554 185v199q-37 -53 -98 -79t-128 -26q-52 0 -99 12.5t-87 37t-63.5 67.5t-23.5 99q0 57 24 100
t64 67.5t87 36t99 11.5q71 0 131 -20.5t102.5 -71.5t42.5 -126v-306q0 -93 -78.5 -143.5t-187.5 -50.5q-110 0 -185.5 46t-81.5 130h53q4 -61 64 -95t150 -34q86 0 150.5 38.5t64.5 107.5z" />
    <glyph glyph-name="colon" unicode=":" horiz-adv-x="225" 
d="M112 291q-15 0 -26.5 10.5t-11.5 28.5t11.5 28t26.5 10q16 0 27.5 -10t11.5 -28t-11.5 -28.5t-27.5 -10.5zM112 -7q-16 0 -27 10t-11 28t11.5 28.5t26.5 10.5q16 0 27.5 -10.5t11.5 -28.5t-11.5 -28t-27.5 -10z" />
    <glyph glyph-name="semicolon" unicode=";" horiz-adv-x="225" 
d="M112 291q-15 0 -26.5 10t-11.5 28t11.5 28.5t26.5 10.5q16 0 27.5 -10t11.5 -28t-11.5 -28.5t-27.5 -10.5zM111 -83h-38l27 75q-28 8 -26 36q1 23 20.5 32t38 -1.5t17.5 -34.5q0 -5 -39 -107z" />
    <glyph glyph-name="less" unicode="&#x3c;" horiz-adv-x="361" 
d="M57 337l211 185l29 -32l-193 -172l197 -172l-33 -34l-211 186v39z" />
    <glyph glyph-name="equal" unicode="=" horiz-adv-x="554" 
d="M78 390v49h398v-49h-398zM78 193v49h398v-49h-398z" />
    <glyph glyph-name="greater" unicode="&#x3e;" horiz-adv-x="362" 
d="M94 522l211 -185v-39l-211 -186l-33 34l197 172l-193 171z" />
    <glyph glyph-name="question" unicode="?" horiz-adv-x="591" 
d="M85 508h-49q0 55 21 96t58 63.5t80.5 33.5t92.5 11q110 0 187 -50t78 -155q0 -46 -13 -80t-37 -54.5t-46.5 -31.5t-53.5 -20q-75 -24 -96.5 -57.5t-20.5 -123.5h-49q-3 104 28.5 150t120.5 73q60 16 88.5 47.5t28.5 97.5q0 44 -19.5 76.5t-52.5 49.5t-68.5 24.5
t-75.5 7.5q-38 0 -71 -7.5t-63.5 -24t-49 -49t-18.5 -77.5zM264 -2q-15 0 -26.5 9.5t-11.5 27.5t11.5 28t27.5 10t27 -10t11 -28t-11.5 -27.5t-27.5 -9.5z" />
    <glyph glyph-name="at" unicode="@" horiz-adv-x="909" 
d="M447 653q-155 0 -250 -97t-95 -248q0 -152 94 -244t250 -92q93 0 157 42l22 -37q-79 -49 -178 -49q-179 0 -285 107t-106 273q0 165 106.5 276.5t284.5 111.5q84 0 154.5 -24t125 -71t85.5 -123.5t31 -174.5q0 -36 -4 -69t-14.5 -67t-31 -57t-49.5 -28q-38 -14 -69 6.5
t-32 73.5q-28 -50 -84.5 -81t-117.5 -31q-108 0 -179.5 73t-71.5 178q0 114 71.5 182.5t178.5 68.5q63 0 118 -30t84 -86l1 93l42 -2v-360q-1 -30 14.5 -42.5t32.5 -6.5q67 13 67 185q0 174 -95 262t-257 88zM440 506q-88 0 -145.5 -55t-57.5 -150q0 -89 57.5 -147
t146.5 -58q96 0 149.5 60.5t53.5 144.5t-53.5 144.5t-150.5 60.5z" />
    <glyph glyph-name="A" unicode="A" horiz-adv-x="802" 
d="M230 259h344q-28 64 -84 194t-86 199q-28 -63 -86 -194t-88 -199zM80 47l274 607h-95v46h174l291 -653h74v-47h-223v47h93q-13 30 -37.5 85.5t-35.5 80.5h-385q-23 -54 -73 -166h92v-47h-223v47h74z" />
    <glyph glyph-name="B" unicode="B" horiz-adv-x="733" 
d="M421 0h-371v47h94v607h-92v46h369q100 0 165 -47t65 -144q0 -54 -31.5 -94.5t-86.5 -56.5q69 -18 105.5 -65.5t36.5 -110.5q0 -182 -254 -182zM195 653v-272h234q72 0 122.5 30.5t50.5 98.5q0 143 -181 143h-226zM195 334v-287h226q204 0 204 137q-1 76 -58.5 113
t-137.5 37h-234z" />
    <glyph glyph-name="C" unicode="C" horiz-adv-x="709" 
d="M416 709q133 0 230 -84q0 -46 -2 -142h-45l-1 120q-78 58 -182 58q-147 0 -228 -90.5t-80 -223.5q0 -133 83.5 -219t224.5 -86q128 0 218 88l36 -33q-103 -104 -254 -104q-169 0 -264 102t-95 252q0 71 22.5 135t66 115.5t113.5 81.5t157 30z" />
    <glyph glyph-name="D" unicode="D" horiz-adv-x="788" 
d="M375 0h-326v47h95v607h-92v46h323q169 0 261 -98t95 -244q1 -71 -20.5 -134.5t-64 -114t-112.5 -80t-159 -29.5zM194 47h181q147 0 227 91.5t78 219.5q-2 123 -81.5 209t-223.5 86h-181v-606z" />
    <glyph glyph-name="E" unicode="E" horiz-adv-x="683" 
d="M195 48h387l1 109h47v-157h-580v47h95v607h-93v46h563v-156h-47l-1 109h-372v-275h365v-47h-365v-283z" />
    <glyph glyph-name="F" unicode="F" horiz-adv-x="640" 
d="M290 0h-240v47h94v607h-92v46h546v-156h-47l-1 109h-356v-285h343v-47h-343v-274h96v-47z" />
    <glyph glyph-name="G" unicode="G" horiz-adv-x="743" 
d="M417 709q145 0 244 -86q0 -23 -0.5 -69t-0.5 -71h-46v118q-82 60 -197 60q-148 0 -229.5 -90.5t-80.5 -221.5q0 -131 82 -220.5t229 -89.5q58 0 115 23t98 64v179h-238v46h283v-247q-102 -113 -259 -113q-170 0 -265 103t-95 254q-1 163 99.5 262t260.5 99z" />
    <glyph glyph-name="H" unicode="H" horiz-adv-x="824" 
d="M680 47h94v-47h-236v47h91v283h-435v-283h92v-47h-236v47h94v606h-93v47h233v-47h-90v-277h435v277h-90v47h233v-47h-92v-606z" />
    <glyph glyph-name="I" unicode="I" horiz-adv-x="340" 
d="M195 47h96v-47h-241v47h94v606h-93v47h237v-47h-93v-606z" />
    <glyph glyph-name="J" unicode="J" horiz-adv-x="677" 
d="M257 653v47h317v-437q1 -126 -76 -200t-199 -74q-119 0 -194.5 76.5t-75.5 197.5h48q0 -99 63 -162.5t159 -63.5q100 0 162.5 60t62.5 166v390h-267z" />
    <glyph glyph-name="K" unicode="K" horiz-adv-x="717" 
d="M194 45h101v-45h-245v45h94v608h-93v47h231v-47h-88v-328l350 328h-94v47h239v-47h-77l-278 -262l260 -345h111v-46h-167v41l-239 318l-105 -97v-217z" />
    <glyph glyph-name="L" unicode="L" horiz-adv-x="620" 
d="M144 653h-93v47h233v-47h-90v-606h349l1 112h46v-159h-539v46h93v607z" />
    <glyph glyph-name="M" unicode="M" horiz-adv-x="950" 
d="M900 0h-236v46h91v585l-272 -413h-13l-275 412v-584h92v-46h-237v46h94v607h-92v47h155l269 -409l265 409h158v-47h-94v-607h95v-46z" />
    <glyph glyph-name="N" unicode="N" horiz-adv-x="826" 
d="M287 0h-236v46h93v607h-92v47h125l463 -605v558h-91v47h233v-47h-92v-653h-37l-458 596v-550h92v-46z" />
    <glyph glyph-name="O" unicode="O" horiz-adv-x="816" 
d="M408 710q86 0 154.5 -30t111 -81t65 -115t22.5 -135q-1 -95 -39 -175t-119.5 -132.5t-194.5 -52.5q-85 0 -153.5 30.5t-111.5 81.5t-65.5 115t-22.5 135q0 69 22.5 132.5t65 114.5t111 81.5t154.5 30.5zM711 349q0 131 -79.5 222t-223.5 92q-73 0 -132 -26t-95.5 -70.5
t-55.5 -100t-19 -116.5q0 -127 80 -220t222 -93q96 0 166.5 45.5t103.5 115t33 151.5z" />
    <glyph glyph-name="P" unicode="P" horiz-adv-x="710" 
d="M143 47v606h-92v47h395q73 0 126 -33t77 -83t24 -108t-24 -108t-77 -83t-126 -33h-253v-205h94v-47h-236v47h92zM193 297h253q49 0 87 19.5t57.5 51t29 69.5t0 76t-29 69.5t-57.5 51t-87 19.5h-253v-356z" />
    <glyph glyph-name="Q" unicode="Q" horiz-adv-x="818" 
d="M739 -12l-93 87q-92 -82 -235 -82q-115 0 -197.5 51.5t-120.5 132t-37 179.5q2 96 41.5 174.5t121 128.5t192.5 50q84 0 152 -29.5t111.5 -79.5t66 -114t22.5 -136q0 -139 -83 -240l93 -87zM411 661q-133 0 -219 -87.5t-85 -218.5q0 -134 78.5 -224t224.5 -90
q97 0 167 44t102.5 113t32.5 152q1 132 -78.5 221.5t-222.5 89.5z" />
    <glyph glyph-name="R" unicode="R" horiz-adv-x="738" 
d="M194 318h246q86 0 134 44t48 124q0 70 -47 118t-128 48h-253v-334zM532 43l-160 230h-178v-225h106v-48h-249v48h94v605h-93v47h395q105 0 164.5 -60.5t60.5 -152.5q1 -102 -60 -156.5t-165 -57.5h-18l161 -225h109v-48h-167v43z" />
    <glyph glyph-name="S" unicode="S" horiz-adv-x="658" 
d="M323 713q160 -3 249 -79q0 -23 -0.5 -66.5t-0.5 -67.5h-46l-1 111q-75 54 -202 56q-85 1 -145 -35.5t-60 -108.5q0 -27 12 -48.5t29.5 -35t48.5 -24.5t56.5 -17t65.5 -14q43 -8 68.5 -13.5t63 -16t59.5 -24t44.5 -33.5t32.5 -48t10 -63q0 -54 -25 -94.5t-67 -62
t-88.5 -31.5t-98.5 -10q-159 0 -264 96q0 16 0.5 71t0.5 70h47v-116q91 -73 216 -73q37 0 72.5 6.5t73 21.5t60 46.5t22.5 75.5q0 31 -13 54.5t-34.5 38.5t-52 26t-60 17.5t-63.5 13.5q-8 1 -12 2q-47 9 -76.5 16t-67 21.5t-59 32.5t-36.5 48t-15 68q0 65 38.5 109t94.5 62
t123 18z" />
    <glyph glyph-name="T" unicode="T" horiz-adv-x="621" 
d="M432 0h-243v47h96v606h-205l-1 -112h-45v159h553v-159h-46l-1 112h-204v-606h96v-47z" />
    <glyph glyph-name="U" unicode="U" horiz-adv-x="785" 
d="M393 38q92 0 154.5 59.5t62.5 167.5v388h-93v47h233v-47h-91v-389q0 -124 -74.5 -198.5t-191.5 -74.5q-116 0 -191.5 74.5t-75.5 198.5v389h-91v47h233v-47h-93v-389q0 -107 63 -166.5t155 -59.5z" />
    <glyph glyph-name="V" unicode="V" horiz-adv-x="770" 
d="M357 -2l-269 655h-78v47h224v-47h-90l241 -595l242 595h-92v47h224v-47h-78l-267 -655h-57z" />
    <glyph glyph-name="W" unicode="W" horiz-adv-x="1156" 
d="M1065 653l-231 -655h-53l-203 592l-202 -592h-53l-232 655h-80v47h227v-47h-90l202 -589l213 631h30l214 -631l201 589h-92v47h227v-47h-78z" />
    <glyph glyph-name="X" unicode="X" horiz-adv-x="692" 
d="M349 403l180 250h-103v47h235v-47h-79l-206 -288l196 -318h112v-47h-165v44l-175 287l-198 -284h109v-47h-246v47h82l225 322l-178 284h-109v47h162v-44z" />
    <glyph glyph-name="Y" unicode="Y" horiz-adv-x="720" 
d="M385 47h96v-47h-242v47h96v233l-243 373h-77v47h225v-47h-88l96 -149l112 -176l115 178l95 147h-89v47h224v-47h-76l-244 -373v-233z" />
    <glyph glyph-name="Z" unicode="Z" horiz-adv-x="607" 
d="M115 652l-2 -106h-47v154h480v-23l-437 -628h401l3 113h45v-162h-522v25l435 627h-356z" />
    <glyph glyph-name="bracketleft" unicode="[" horiz-adv-x="318" 
d="M100 -167v882h180v-47h-129v-787h129v-48h-180z" />
    <glyph glyph-name="backslash" unicode="\" horiz-adv-x="476" 
d="M450 -82h-51l-374 841h52z" />
    <glyph glyph-name="bracketright" unicode="]" horiz-adv-x="318" 
d="M218 716v-882h-180v48h130v787h-130v47h180z" />
    <glyph glyph-name="asciicircum" unicode="^" horiz-adv-x="575" 
d="M106 382h-51l-2 3l210 315h49l209 -315l-1 -3h-51l-182 278z" />
    <glyph glyph-name="underscore" unicode="_" horiz-adv-x="614" 
d="M73 -72v45h468v-45h-468z" />
    <glyph glyph-name="grave" unicode="`" horiz-adv-x="234" 
d="M166 577h-45l-90 124h59l76 -120v-4z" />
    <glyph glyph-name="a" unicode="a" horiz-adv-x="674" 
d="M300 455q-87 0 -145.5 -57t-58.5 -152q0 -96 59 -153t147 -57q95 0 149 61.5t55 146.5q1 87 -53.5 149t-152.5 62zM551 44h91v-44h-135q0 13 -1.5 52.5t-1.5 53.5q-28 -57 -84.5 -86t-119.5 -29q-107 0 -179 70t-72 186q0 115 72 184.5t179 69.5q65 0 122.5 -30.5
t82.5 -86.5v110h136v-45h-90v-405z" />
    <glyph glyph-name="b" unicode="b" horiz-adv-x="663" 
d="M157 0h-138v44h92v614h-91v43h138v-318q62 118 206 118q106 0 177.5 -69.5t71.5 -184.5t-72.5 -184t-178.5 -70q-66 0 -120 29.5t-84 85.5zM363 456q-94 0 -149.5 -61.5t-54.5 -148.5q0 -87 54.5 -147.5t146.5 -60.5q88 0 146.5 56t58.5 153q0 96 -58 152.5t-144 56.5z
" />
    <glyph glyph-name="c" unicode="c" horiz-adv-x="528" 
d="M459 100l31 -32q-73 -74 -181 -74q-114 0 -186.5 67.5t-72.5 184.5q0 118 72.5 186t185.5 68q91 0 164 -52l-2 -110h-43v87q-49 31 -119 31q-90 -1 -150.5 -56t-60.5 -154q0 -96 59 -151.5t154 -55.5q91 0 149 61z" />
    <glyph glyph-name="d" unicode="d" horiz-adv-x="660" 
d="M300 457q-87 0 -145 -56.5t-58 -153.5q0 -95 59 -151.5t147 -56.5q95 0 147.5 60.5t52.5 151.5q0 88 -54.5 147t-148.5 59zM550 44h91v-44h-134q0 13 -2 54.5t-2 55.5q-28 -57 -84.5 -87.5t-118.5 -29.5q-107 0 -178.5 69.5t-71.5 184.5q0 116 71 185t177 69
q65 0 123 -30.5t82 -87.5v274h-90v44h137v-657z" />
    <glyph glyph-name="e" unicode="e" horiz-adv-x="588" 
d="M480 116l34 -28q-35 -45 -93.5 -69.5t-120.5 -24.5q-107 0 -179 69t-72 184q0 112 71 183.5t178 71.5q114 0 186.5 -70t59.5 -206h-447q7 -89 65 -138t139 -49q51 0 101.5 21t77.5 56zM97 268h403q1 91 -53 140.5t-148 49.5q-82 0 -138 -50.5t-64 -139.5z" />
    <glyph glyph-name="f" unicode="f" horiz-adv-x="354" 
d="M174 44h118v-44h-253v44h88v405h-100v43h100v48q0 163 145 163q53 0 95 -29l-21 -36q-34 24 -73 24q-49 0 -74 -28t-25 -94v-48h157v-43h-157v-405z" />
    <glyph glyph-name="g" unicode="g" horiz-adv-x="610" 
d="M98 264q1 -97 59 -147.5t150 -50.5q91 0 148.5 58t57.5 139q0 97 -61 147t-146 50q-83 0 -145.5 -51t-62.5 -145zM63 -97h45q-1 -73 57.5 -112t141.5 -40q82 -1 141 34t59 102q0 72 -59.5 104t-141.5 32q-114 0 -184.5 64t-70.5 177t77 177t178 64q91 0 152 -43l51 60
l34 -26l-52 -62q33 -36 50.5 -72.5t17.5 -97.5q0 -68 -41 -132t-116 -82q70 -15 111.5 -56t41.5 -106q0 -86 -74 -134.5t-175 -47.5q-105 1 -175.5 53t-67.5 144z" />
    <glyph glyph-name="h" unicode="h" horiz-adv-x="645" 
d="M111 44v613h-92v43h138v-309q56 109 186 109q101 0 151 -56t50 -159v-241h90v-44h-218v44h81v240q0 169 -158 172q-75 2 -128.5 -51t-53.5 -130v-231h85v-44h-224v44h93z" />
    <glyph glyph-name="i" unicode="i" horiz-adv-x="285" 
d="M148 619q-15 0 -26 9t-11 28q0 18 11.5 27t27.5 9q15 0 26 -9t11 -28q0 -36 -39 -36zM35 495h137v-450h94v-45h-234v45h94v406h-91v44z" />
    <glyph glyph-name="j" unicode="j" horiz-adv-x="247" 
d="M138 620q-15 0 -26 9t-11 28q0 18 11.5 27t26.5 9t26.5 -9t11.5 -28t-11.5 -27.5t-27.5 -8.5zM20 495h142v-571q0 -38 -5.5 -66t-19 -52t-40.5 -36.5t-66 -12.5q-45 0 -88 25l15 39q34 -19 73 -19q52 1 67.5 31.5t15.5 90.5v526h-94v45z" />
    <glyph glyph-name="k" unicode="k" horiz-adv-x="548" 
d="M111 656h-90v44h137v-446l138 122l90 76l-74 1v42h200v-43h-63l-189 -165l178 -242h89v-45h-141v36l-161 221l-67 -55v-157h83v-45h-221v45h91v611z" />
    <glyph glyph-name="l" unicode="l" horiz-adv-x="272" 
d="M22 656v44h137v-655h93v-45h-232v45h93v611h-91z" />
    <glyph glyph-name="m" unicode="m" horiz-adv-x="1005" 
d="M257 0h-224v44h91v406h-90v43h136l1 -87q21 49 65 72.5t96 23.5q65 0 115 -30t68 -93q23 62 72.5 93t110.5 31q93 0 149.5 -57t56.5 -150v-252h90v-44h-221v44h84v252q0 73 -43.5 117.5t-115.5 44.5q-71 0 -116 -47t-45 -119v-248h84v-44h-216v44h86v248q0 73 -44.5 119
t-118.5 46q-70 -2 -113 -48t-43 -117v-248h85v-44z" />
    <glyph glyph-name="n" unicode="n" horiz-adv-x="671" 
d="M170 275v-231h86v-44h-223v44h90v406h-90v44h135l2 -102q30 56 79 83t106 28q103 0 158.5 -57.5t55.5 -161.5v-240h91v-44h-221v44h82v239q0 86 -43 130.5t-125 44.5q-78 -1 -130.5 -53t-52.5 -130z" />
    <glyph glyph-name="o" unicode="o" horiz-adv-x="605" 
d="M50 246q0 116 73 186.5t180 70.5t179.5 -71t72.5 -186t-72.5 -184t-180.5 -69q-107 0 -179.5 69t-72.5 184zM508 246q0 96 -59.5 154.5t-146.5 58.5q-86 0 -145.5 -58.5t-59.5 -154.5q0 -94 59 -151t146 -57t146.5 57t59.5 151z" />
    <glyph glyph-name="p" unicode="p" horiz-adv-x="662" 
d="M363 36q87 0 145 57t58 152q0 98 -58.5 153t-148.5 55q-96 0 -147.5 -60.5t-51.5 -150.5q0 -87 54.5 -146t148.5 -60zM110 450h-89v44h136q0 -13 0.5 -56t0.5 -57q29 57 85.5 88t120.5 31q107 -1 178 -70.5t71 -184.5q0 -113 -71 -183.5t-179 -70.5q-64 0 -122 31t-83 87
v-307h91v-43h-220v43h81v648z" />
    <glyph glyph-name="q" unicode="q" horiz-adv-x="637" 
d="M507 494h45v-690h83v-44h-220v44h91v306q-25 -57 -83 -87.5t-124 -30.5q-107 0 -178 69.5t-71 185.5t71 185t178 69q64 1 122 -30t85 -87zM301 37q94 0 149 59.5t55 146.5q0 91 -52 151.5t-149 60.5q-89 0 -147.5 -55t-58.5 -153q0 -95 57.5 -152.5t145.5 -57.5z" />
    <glyph glyph-name="r" unicode="r" horiz-adv-x="449" 
d="M122 43v407h-91v44h133l3 -97q21 47 66.5 74.5t101.5 27.5t103 -28l-20 -40q-42 24 -85 24q-72 -1 -117.5 -49t-45.5 -118v-245h89v-43h-224v43h87z" />
    <glyph glyph-name="s" unicode="s" horiz-adv-x="505" 
d="M433 460l-2 -107h-42l-2 80q-56 29 -133 29q-67 1 -107.5 -22t-40.5 -72q0 -23 11.5 -39.5t36 -26.5t46 -14.5t57.5 -10.5q100 -16 136 -34q69 -35 68 -110q-1 -50 -33.5 -83.5t-76.5 -46t-96 -12.5q-57 0 -101 13.5t-98 43.5v110h44l1 -81q74 -41 156 -41q37 0 69.5 7.5
t60 31t27.5 60.5q0 21 -9.5 37t-22.5 25.5t-36.5 17t-43 11.5t-50.5 8q-32 5 -53 9t-50.5 14t-47 23t-30.5 36t-13 52q0 69 56 103t139 34q95 2 180 -45z" />
    <glyph glyph-name="t" unicode="t" horiz-adv-x="363" 
d="M113 638l47 5v-149h168v-41h-168v-301q0 -57 18.5 -86.5t72.5 -29.5q36 0 82 23l17 -39q-52 -27 -99 -27q-75 0 -106.5 39.5t-31.5 119.5v301h-105v41h105v144z" />
    <glyph glyph-name="u" unicode="u" horiz-adv-x="648" 
d="M538 494v-451h91v-43h-132l-4 100q-59 -106 -187 -108q-102 0 -156.5 56.5t-54.5 160.5v241h-87v44h135v-283q0 -174 168 -174q79 0 129 52t50 130v231h-88v44h136z" />
    <glyph glyph-name="v" unicode="v" horiz-adv-x="608" 
d="M277 -1l-190 452h-71v43h202v-43h-80l98 -233l67 -167l68 170l99 230h-80v43h200v-43h-69l-191 -452h-53z" />
    <glyph glyph-name="w" unicode="w" horiz-adv-x="887" 
d="M250 -1l-161 452h-71v43h203v-43h-80l135 -395l152 438h33l151 -438l134 395h-82v43h205v-43h-72l-159 -452h-52l-70 197l-72 218l-72 -217l-71 -198h-51z" />
    <glyph glyph-name="x" unicode="x" horiz-adv-x="555" 
d="M222 0h-203v43h69l161 214l-143 193h-68v44h122v-41l119 -162l79 103l44 57h-79v43h196v-43h-64l-148 -196l159 -212h70v-43h-124v40l-135 182l-77 -102l-58 -77h80v-43z" />
    <glyph glyph-name="y" unicode="y" horiz-adv-x="607" 
d="M464 450h-83v44h207v-44h-71l-251 -604q-28 -69 -85 -85t-125 29l22 40q40 -32 80 -26t62 55l62 146l-191 445h-76v44h207v-44h-79l108 -250l57 -146l55 147z" />
    <glyph glyph-name="z" unicode="z" horiz-adv-x="480" 
d="M101 450l-2 -89h-42v133h368v-21l-312 -429h274l2 96h42v-140h-393v16l317 434h-254z" />
    <glyph glyph-name="braceleft" unicode="{" horiz-adv-x="310" 
d="M39 315q79 0 79 118v153q0 163 153 129v-38q-54 12 -80 -7t-26 -85v-152q0 -28 -1.5 -43t-7 -37.5t-20.5 -36.5t-39 -20q24 -6 39 -20t21 -36t7.5 -37.5t1.5 -42.5v-149q0 -65 25 -83t80 -7v-40q-77 -16 -115 14.5t-38 114.5v149q0 118 -79 118v38z" />
    <glyph glyph-name="bar" unicode="|" horiz-adv-x="249" 
d="M101 710h47v-828h-47v828z" />
    <glyph glyph-name="braceright" unicode="}" horiz-adv-x="311" 
d="M272 313v-38q-79 0 -79 -117v-149q0 -85 -38 -114.5t-115 -12.5v37q56 -11 81 7t25 83v148q0 27 1.5 43t7.5 38t21 36t39 20q-20 5 -33.5 17t-20.5 23.5t-10.5 31t-4 31.5t-0.5 34v152q0 66 -26 85.5t-80 7.5v37q153 34 153 -129v-153q0 -118 79 -118z" />
    <glyph glyph-name="asciitilde" unicode="~" horiz-adv-x="635" 
d="M519 348l39 -17q-53 -129 -192 -65l-100 52q-47 25 -89 10.5t-63 -65.5l-35 16q21 63 78 87t128 -10l97 -51q43 -24 79 -15t58 58z" />
    <glyph glyph-name="uni00A0" unicode="&#xa0;" horiz-adv-x="266" 
 />
    <glyph glyph-name="exclamdown" unicode="&#xa1;" horiz-adv-x="237" 
d="M155 459q0 -17 -11.5 -26.5t-26.5 -9.5t-26.5 10t-11.5 27t11.5 27t26.5 10t26.5 -10t11.5 -28zM144 -206h-50v559h50v-559z" />
    <glyph glyph-name="cent" unicode="&#xa2;" horiz-adv-x="537" 
d="M281 -85l-1 71q-100 9 -165.5 75t-65.5 176q0 106 65 174t167 77v60h45v-60q96 -10 156 -70l-32 -30q-58 57 -146 57q-90 0 -149 -54.5t-59 -153.5q0 -101 59 -154.5t149 -53.5q81 0 147 63l33 -34q-67 -64 -158 -72v-71h-45z" />
    <glyph glyph-name="sterling" unicode="&#xa3;" horiz-adv-x="648" 
d="M59 0v43q50 52 74 102t24 89.5t-7 81.5h-91v42h80q-2 8 -7.5 26t-8 29t-6 27.5t-5 33t-1.5 33.5q0 98 68 148.5t172 50.5q98 0 160.5 -42t63.5 -139h-45q-1 76 -52.5 106.5t-126.5 30.5q-86 0 -139.5 -40t-53.5 -114q0 -19 3 -40.5t6 -35t8.5 -37.5t8.5 -36h262v-43h-252
q37 -153 -78 -270h420l2 111h46v-157h-525z" />
    <glyph glyph-name="currency" unicode="&#xa4;" horiz-adv-x="571" 
d="M162 161l-61 -59l-34 34l61 60q-44 54 -44.5 129t43.5 130l-60 59l34 35l59 -60q54 39 126 39q74 0 124 -39l60 60l34 -35l-58 -58q43 -56 42.5 -130.5t-44.5 -129.5l60 -60l-34 -34l-61 59q-48 -37 -123 -37q-74 0 -124 37zM286 166q74 0 115.5 47.5t41.5 112.5
q0 66 -41.5 113t-115.5 47q-75 0 -116.5 -47t-41.5 -113q0 -65 41.5 -112.5t116.5 -47.5z" />
    <glyph glyph-name="yen" unicode="&#xa5;" horiz-adv-x="752" 
d="M201 284v40h121l-215 329h-76v47h224v-47h-89l209 -327l211 327h-90v47h225v-47h-77l-215 -329h121v-40h-147l-2 -12v-52h150v-40h-150v-133h96v-47h-243v47h97v133h-149v40h149v52l-3 12h-147z" />
    <glyph glyph-name="brokenbar" unicode="&#xa6;" horiz-adv-x="256" 
d="M154 342h-52v364h52v-364zM102 275h52v-363h-52v363z" />
    <glyph glyph-name="section" unicode="&#xa7;" horiz-adv-x="540" 
d="M273 260q65 0 110.5 22t45.5 66q1 49 -46 73t-107 24q-71 1 -114 -22.5t-41 -73.5q1 -40 46 -64.5t106 -24.5zM273 716q114 0 181 -66l-30 -29q-58 53 -152 53q-62 1 -106 -23.5t-42 -68.5q2 -79 147 -93q33 -3 57.5 -7t54.5 -14t49 -24.5t32 -39t12 -56.5
q-1 -45 -34 -74t-83 -38q120 -34 119 -120q-1 -38 -20 -66t-50.5 -41.5t-64.5 -19.5t-69 -6q-69 0 -127 25t-89 72l34 30q31 -42 80 -63t102 -20q37 0 68 5.5t59.5 27t28.5 57.5q0 77 -163 98q-189 22 -192 134q-1 40 28.5 75.5t85.5 43.5q-51 10 -81.5 38.5t-31.5 74.5
q-1 64 57 99.5t140 35.5z" />
    <glyph glyph-name="dieresis" unicode="&#xa8;" horiz-adv-x="454" 
d="M103 641q-15 0 -26 10t-11 27q0 18 11 28t26 10q16 0 27 -9.5t11 -27.5t-11.5 -28t-26.5 -10zM317 641q-15 0 -26 9.5t-11 27.5t11 28t26 10q16 0 27 -10t11 -28t-11 -27.5t-27 -9.5z" />
    <glyph glyph-name="copyright" unicode="&#xa9;" horiz-adv-x="836" 
d="M418 713q165 0 263 -106t98 -259q0 -99 -41 -180.5t-124.5 -133t-195.5 -51.5q-167 0 -264 105.5t-97 259.5t97 259.5t264 105.5zM103 348q0 -139 85 -230t230 -91q144 0 228.5 91t84.5 230t-84.5 230t-228.5 91q-145 0 -230 -91t-85 -230zM566 490l-29 -33
q-42 44 -107 44q-64 0 -108 -40.5t-44 -109.5q0 -66 44 -108.5t107 -42.5q62 0 106 44l31 -32q-53 -56 -137 -56t-140.5 54.5t-56.5 141.5q0 85 56.5 140t140.5 55q82 0 137 -57z" />
    <glyph glyph-name="ordfeminine" unicode="&#xaa;" horiz-adv-x="502" 
d="M242 664q-52 0 -87 -34t-35 -91t35 -90.5t87 -33.5q58 0 91 39t33 85.5t-33 85.5t-91 39zM409 377h-41l-1 63q-43 -66 -127 -68q-70 0 -117.5 45t-47.5 123q0 77 47.5 121.5t117.5 44.5q38 0 73 -17.5t55 -49.5v62h41v-324zM88 267v43h333v-43h-333z" />
    <glyph glyph-name="guillemotleft" unicode="&#xab;" horiz-adv-x="393" 
d="M290 77l-138 220l138 219h50l-135 -219l135 -220h-50zM51 297l138 219h51l-135 -219l135 -220h-51z" />
    <glyph glyph-name="logicalnot" unicode="&#xac;" horiz-adv-x="502" 
d="M424 362v-187h-45v142h-301v45h346z" />
    <glyph glyph-name="registered" unicode="&#xae;" horiz-adv-x="834" 
d="M416 713q167 0 264 -105.5t97 -259.5q0 -153 -97 -259t-264 -106t-263 105.5t-96 259.5q0 99 40.5 181t123.5 133t195 51zM103 348q0 -140 84 -230.5t229 -90.5t229.5 91.5t84.5 229.5q0 139 -84.5 230t-229.5 91q-144 0 -228.5 -91t-84.5 -230zM323 343h123
q52 0 73.5 39.5t1 79.5t-71.5 40h-126v-159zM279 160v383h170q58 0 91.5 -35.5t35 -78.5t-29 -80.5t-86.5 -40.5l126 -140v-8h-52l-122 144h-89v-144h-44z" />
    <glyph glyph-name="macron" unicode="&#xaf;" horiz-adv-x="547" 
d="M121 659v43h305v-43h-305z" />
    <glyph glyph-name="degree" unicode="&#xb0;" horiz-adv-x="317" 
d="M162 530q-40 0 -67 20t-32.5 49t1 58t33 49t63.5 20q38 0 63.5 -20t32 -49t0.5 -58t-31.5 -49t-62.5 -20zM160 692q-30 0 -47.5 -20t-18.5 -44.5t16.5 -44.5t49.5 -20q40 0 56 32.5t0 64.5t-56 32z" />
    <glyph glyph-name="plusminus" unicode="&#xb1;" horiz-adv-x="523" 
d="M76 347v42h163v165h44v-165h163v-42h-163v-168h-44v168h-163zM84 48v43h356v-43h-356z" />
    <glyph glyph-name="twosuperior" unicode="&#xb2;" horiz-adv-x="354" 
d="M85 687h-40q0 56 37.5 81t94.5 25q54 0 93 -25t39 -80q0 -54 -36 -75.5t-94 -27.5q-22 -2 -35.5 -5t-29 -10.5t-23.5 -22t-8 -36.5v-37h186l1 53h40v-93h-269v78q0 31 11.5 52t32.5 32t40.5 16t45.5 8q31 4 49 9t33 20t15 40q0 66 -91 66t-92 -68z" />
    <glyph glyph-name="threesuperior" unicode="&#xb3;" horiz-adv-x="353" 
d="M86 742l-2 -51h-36v88h255v-20l-95 -128q49 -3 78.5 -29.5t29.5 -76.5q0 -59 -41 -86.5t-101 -27.5q-59 0 -98 27t-39 83h41q0 -36 28.5 -53t67.5 -17q100 0 100 74q0 69 -98 74h-20l-3 16l94 127h-161z" />
    <glyph glyph-name="acute" unicode="&#xb4;" horiz-adv-x="224" 
d="M75 577h-45v4l75 120h60z" />
    <glyph glyph-name="_181" unicode="&#xb5;" horiz-adv-x="614" 
d="M516 0h-42l-3 92q-21 -52 -71.5 -78.5t-108.5 -25.5q-55 0 -104.5 25t-69.5 72v-312h-45v722h46v-292q0 -79 52 -124.5t123 -46.5q73 -1 124.5 46.5t51.5 139.5v277h47v-495z" />
    <glyph glyph-name="paragraph" unicode="&#xb6;" horiz-adv-x="778" 
d="M594 657h-273v-874h-46v412q-117 0 -181.5 74.5t-62.5 177.5q2 102 67 177t180 75h466v-42h-106v-873h-44v873z" />
    <glyph glyph-name="periodcentered" unicode="&#xb7;" horiz-adv-x="223" 
d="M149 290q0 -23 -18.5 -32.5t-37.5 0t-19 32.5q0 24 18.5 33.5t37.5 0t19 -33.5z" />
    <glyph glyph-name="cedilla" unicode="&#xb8;" horiz-adv-x="295" 
d="M94 -71l-7 5l20 88h38l-13 -59q57 3 82 -28.5t13 -72.5q-18 -70 -103 -70q-73 0 -103 54l27 23q29 -39 76 -39q51 0 64 41q9 30 -16.5 49.5t-77.5 8.5z" />
    <glyph glyph-name="onesuperior" unicode="&#xb9;" horiz-adv-x="233" 
d="M34 432v37h68v263l-58 -15v38l100 26v-312h66v-37h-176z" />
    <glyph glyph-name="ordmasculine" unicode="&#xba;" horiz-adv-x="488" 
d="M244 372q-70 0 -117.5 45t-47.5 122q0 78 47 122.5t117 44.5q71 0 118 -44.5t47 -121.5q0 -78 -47 -123t-117 -45zM244 414q53 0 86.5 34t33.5 91q0 58 -33.5 92t-87.5 34q-53 0 -86 -33.5t-33 -91.5t33 -92t87 -34zM85 265v42h319v-42h-319z" />
    <glyph glyph-name="guillemotright" unicode="&#xbb;" horiz-adv-x="393" 
d="M241 297l-138 -220h-50l134 220l-134 220h50zM204 517l138 -220l-138 -220h-51l135 220l-135 220h51z" />
    <glyph glyph-name="onequarter" unicode="&#xbc;" horiz-adv-x="709" 
d="M182 -2h-47l371 705h48zM48 353v37h64v265l-56 -13v38l98 23v-313h66v-37h-172zM575 356h57v-233h42v-39h-42v-84h-41v84h-191l-3 32zM448 123h143v193z" />
    <glyph glyph-name="onehalf" unicode="&#xbd;" horiz-adv-x="773" 
d="M48 353v37h63v265l-55 -12v37l98 23v-313h66v-37h-172zM181 -3l-47 1l372 705h48zM500 252h-40q0 57 37.5 82t94.5 25q54 0 93 -25t39 -80q0 -54 -36 -75.5t-94 -27.5q-21 -2 -35 -5.5t-29.5 -11t-23.5 -22t-8 -36.5v-37h186l1 54h40v-93h-269v77q0 31 11.5 52.5
t32.5 32.5t40.5 16t45.5 8q30 3 49 8t33.5 20t14.5 40q0 66 -91 66t-92 -68z" />
    <glyph glyph-name="threequarters" unicode="&#xbe;" horiz-adv-x="764" 
d="M232 -4h-47l400 709h48zM93 668l-2 -51h-35v87h251v-20l-94 -123q48 -4 77 -30t29 -75q0 -58 -40 -85t-99 -27q-58 0 -96.5 26.5t-38.5 81.5h40q1 -36 28.5 -52.5t66.5 -16.5q98 0 98 73q0 68 -96 73h-20l-2 16l93 123h-160zM622 358h57v-235h50v-39h-50v-84h-41v84h-191
l-3 32zM495 123h143v195z" />
    <glyph glyph-name="questiondown" unicode="&#xbf;" horiz-adv-x="585" 
d="M325 508q16 0 27 -9.5t11 -27.5t-11.5 -28t-27.5 -10t-27 10t-11 28t11.5 27.5t27.5 9.5zM502 -2h51q0 -55 -21 -96t-58 -64t-80.5 -33.5t-92.5 -10.5q-110 0 -187.5 49.5t-78.5 154.5q0 45 13 79t36.5 54.5t46.5 32.5t54 21q75 23 97 57t20 124h49q3 -105 -28.5 -151
t-120.5 -73q-60 -17 -88 -48t-28 -96q0 -44 19.5 -76.5t52.5 -49t68 -24t75 -7.5q30 0 56.5 4t53.5 15t46.5 28t32 45.5t12.5 64.5z" />
    <glyph glyph-name="Agrave" unicode="&#xc0;" horiz-adv-x="802" 
d="M380 749l-90 123h59l76 -119v-4h-45zM230 259h344q-28 64 -84 194t-86 199q-28 -63 -86 -194t-88 -199zM137 47h92v-47h-223v47h74l274 607h-95v46h174l291 -653h74v-47h-223v47h93q-13 30 -37.5 85.5t-35.5 80.5h-385q-23 -54 -73 -166z" />
    <glyph glyph-name="Aacute" unicode="&#xc1;" horiz-adv-x="802" 
d="M417 748h-45v4l75 120h60zM230 259h344q-28 64 -84 194t-86 199q-28 -63 -86 -194t-88 -199zM137 47h92v-47h-223v47h74l274 607h-95v46h174l291 -653h74v-47h-223v47h93q-13 30 -37.5 85.5t-35.5 80.5h-385q-23 -54 -73 -166z" />
    <glyph glyph-name="Acircumflex" unicode="&#xc2;" horiz-adv-x="802" 
d="M377 862h40l126 -117v-5h-51l-95 87l-94 -87h-52v4zM230 259h344q-28 64 -84 194t-86 199q-28 -63 -86 -194t-88 -199zM798 47v-47h-223v47h93q-13 30 -37.5 85.5t-35.5 80.5h-385q-23 -54 -73 -166h92v-47h-223v47h74l274 607h-95v46h174l291 -653h74z" />
    <glyph glyph-name="Atilde" unicode="&#xc3;" horiz-adv-x="802" 
d="M295 765l-32 14q11 41 39.5 55.5t69.5 -4.5q2 -1 24 -13t23 -12q50 -24 65 27l32 -13q-11 -43 -40.5 -57t-67.5 5q-2 1 -23.5 12t-23.5 12q-49 25 -66 -26zM230 259h344q-28 64 -84 194t-86 199q-28 -63 -86 -194t-88 -199zM798 47v-47h-223v47h93q-13 30 -37.5 85.5
t-35.5 80.5h-385q-23 -54 -73 -166h92v-47h-223v47h74l274 607h-95v46h174l291 -653h74z" />
    <glyph glyph-name="Adieresis" unicode="&#xc4;" horiz-adv-x="802" 
d="M254 789q0 18 11.5 28t26.5 10q16 0 27 -9.5t11 -27.5t-11.5 -28t-26.5 -10t-26.5 10t-11.5 27zM468 789q0 18 11.5 28t26.5 10t26.5 -10t11.5 -28t-11 -27.5t-27 -9.5t-27 9.5t-11 27.5zM230 259h344q-28 64 -84 194t-86 199q-28 -63 -86 -194t-88 -199zM137 47h92v-47
h-223v47h74l274 607h-95v46h174l291 -653h74v-47h-223v47h93q-13 30 -37.5 85.5t-35.5 80.5h-385q-23 -54 -73 -166z" />
    <glyph glyph-name="Aring" unicode="&#xc5;" horiz-adv-x="802" 
d="M405 821q-28 0 -46.5 -16t-18.5 -45q0 -28 18.5 -44.5t46.5 -16.5q29 0 47 16.5t18 44.5t-18.5 44.5t-46.5 16.5zM230 259h344q-22 49 -84.5 196.5t-85.5 200.5zM361 672q-28 12 -43 37t-15 51q0 46 30 71t72 25q41 0 72 -25t31 -70q0 -68 -63 -90l279 -624h74v-47h-224
v47h93q-11 26 -35.5 82t-36.5 84h-385l-73 -166h92v-47h-223v47h74z" />
    <glyph glyph-name="AE" unicode="&#xc6;" horiz-adv-x="976" 
d="M290 295l223 -1l1 357zM363 653v47h545v-156h-47l-1 110h-299v-276h296v-47h-296v-283h314l1 109h47v-157h-499v47h89v205h-248l-125 -205h104v-47h-241v47h79l380 606h-99z" />
    <glyph glyph-name="Ccedilla" unicode="&#xc7;" horiz-adv-x="709" 
d="M634 130l36 -33q-101 -102 -257 -104l-14 -56q57 3 82.5 -29t15.5 -73q-9 -34 -39.5 -52t-66.5 -18q-30 0 -57.5 13t-42.5 36l25 27q27 -38 75 -36q22 -1 41 9t25 29q9 31 -17 51t-79 9l-7 6l22 86q-152 12 -235.5 111t-83.5 241q0 71 22.5 135t66 115.5t113.5 81.5
t157 30q133 0 230 -84q0 -46 -2 -142h-45l-1 120q-78 58 -182 58q-147 0 -228 -90.5t-80 -223.5q0 -133 83.5 -219t224.5 -86q128 0 218 88z" />
    <glyph glyph-name="Egrave" unicode="&#xc8;" horiz-adv-x="683" 
d="M398 757h-45l-90 123h60l75 -119v-4zM195 48h387l1 109h47v-157h-580v47h95v607h-93v46h563v-156h-47l-1 109h-372v-275h365v-47h-365v-283z" />
    <glyph glyph-name="Eacute" unicode="&#xc9;" horiz-adv-x="683" 
d="M389 756h-45v4l75 120h60zM195 48h387l1 109h47v-157h-580v47h95v607h-93v46h563v-156h-47l-1 109h-372v-275h365v-47h-365v-283z" />
    <glyph glyph-name="Ecircumflex" unicode="&#xca;" horiz-adv-x="683" 
d="M218 752v4l129 122h40l130 -122v-4h-53l-97 90l-96 -90h-53zM195 48h387l1 109h47v-157h-580v47h95v607h-93v46h563v-156h-47l-1 109h-372v-275h365v-47h-365v-283z" />
    <glyph glyph-name="Edieresis" unicode="&#xcb;" horiz-adv-x="683" 
d="M263 765q-15 0 -26.5 10t-11.5 27q0 18 11.5 28t26.5 10t26 -9.5t11 -27.5t-11 -28t-26 -10zM477 765q-16 0 -27 9.5t-11 27.5t11.5 28t26.5 10t26 -10t11 -28t-11 -27.5t-26 -9.5zM195 48h387l1 109h47v-157h-580v47h95v607h-93v46h563v-156h-47l-1 109h-372v-275h365
v-47h-365v-283z" />
    <glyph glyph-name="Igrave" unicode="&#xcc;" horiz-adv-x="340" 
d="M202 750h-45l-90 123h59l76 -119v-4zM195 47h96v-47h-241v47h94v606h-93v47h237v-47h-93v-606z" />
    <glyph glyph-name="Iacute" unicode="&#xcd;" horiz-adv-x="340" 
d="M188 751h-45v3l76 120h59zM195 47h96v-47h-241v47h94v606h-93v47h237v-47h-93v-606z" />
    <glyph glyph-name="Icircumflex" unicode="&#xce;" horiz-adv-x="340" 
d="M28 748v4l122 126h39l124 -126v-4h-50l-93 93l-93 -93h-49zM195 47h96v-47h-241v47h94v606h-93v47h237v-47h-93v-606z" />
    <glyph glyph-name="Idieresis" unicode="&#xcf;" horiz-adv-x="340" 
d="M80 753q-16 0 -27 9.5t-11 27.5t11.5 28t26.5 10t26.5 -10t11.5 -28t-11 -27.5t-27 -9.5zM263 753q-16 0 -27 9.5t-11 27.5t11.5 28t26.5 10t26.5 -10t11.5 -28t-11 -27.5t-27 -9.5zM195 47h96v-47h-241v47h94v606h-93v47h237v-47h-93v-606z" />
    <glyph glyph-name="Eth" unicode="&#xd0;" horiz-adv-x="789" 
d="M61 331v44h84v279h-91v46h323q169 0 261 -98.5t94 -243.5q1 -71 -20.5 -134.5t-64 -114t-112 -80t-158.5 -29.5h-326v47h94v284h-84zM196 47h181q100 0 171 45.5t103 114.5t30 151q-2 123 -81 209t-223 86h-181v-278h142v-44h-142v-284z" />
    <glyph glyph-name="Ntilde" unicode="&#xd1;" horiz-adv-x="826" 
d="M276 793q11 41 42.5 55.5t73.5 -4.5q2 -1 24.5 -12.5t24.5 -11.5q50 -26 67 27l34 -13q-11 -44 -42 -59t-71 5q-2 1 -24.5 13t-23.5 12q-55 26 -71 -27zM287 0h-236v46h93v607h-92v47h125l463 -605v558h-91v47h233v-47h-92v-653h-37l-458 596v-550h92v-46z" />
    <glyph glyph-name="Ograve" unicode="&#xd2;" horiz-adv-x="816" 
d="M444 771h-45l-90 123h59l76 -120v-3zM408 710q86 0 154.5 -30t111 -81t65 -115t22.5 -135q-1 -95 -39 -175t-119.5 -132.5t-194.5 -52.5q-85 0 -153.5 30.5t-111.5 81.5t-65.5 115t-22.5 135q0 69 22.5 132.5t65 114.5t111 81.5t154.5 30.5zM711 349q0 131 -79.5 222
t-223.5 92q-73 0 -132 -26t-95.5 -70.5t-55.5 -100t-19 -116.5q0 -127 80 -220t222 -93q96 0 166.5 45.5t103.5 115t33 151.5z" />
    <glyph glyph-name="Oacute" unicode="&#xd3;" horiz-adv-x="816" 
d="M429 769h-45v4l75 120h60zM408 710q86 0 154.5 -30t111 -81t65 -115t22.5 -135q-1 -95 -39 -175t-119.5 -132.5t-194.5 -52.5q-85 0 -153.5 30.5t-111.5 81.5t-65.5 115t-22.5 135q0 69 22.5 132.5t65 114.5t111 81.5t154.5 30.5zM711 349q0 131 -79.5 222t-223.5 92
q-73 0 -132 -26t-95.5 -70.5t-55.5 -100t-19 -116.5q0 -127 80 -220t222 -93q96 0 166.5 45.5t103.5 115t33 151.5z" />
    <glyph glyph-name="Ocircumflex" unicode="&#xd4;" horiz-adv-x="816" 
d="M431 904l141 -132v-5h-52l-109 101l-109 -101h-51v5l141 132h39zM408 710q86 0 154.5 -30t111 -81t65 -115t22.5 -135q-1 -95 -39 -175t-119.5 -132.5t-194.5 -52.5q-85 0 -153.5 30.5t-111.5 81.5t-65.5 115t-22.5 135q0 69 22.5 132.5t65 114.5t111 81.5t154.5 30.5z
M711 349q0 131 -79.5 222t-223.5 92q-73 0 -132 -26t-95.5 -70.5t-55.5 -100t-19 -116.5q0 -127 80 -220t222 -93q96 0 166.5 45.5t103.5 115t33 151.5z" />
    <glyph glyph-name="Otilde" unicode="&#xd5;" horiz-adv-x="816" 
d="M396 858q2 -1 24.5 -12.5t23.5 -11.5q51 -24 67 29l33 -14q-10 -44 -41 -58.5t-70 5.5q-2 0 -24 12t-24 12q-51 26 -68 -26l-33 13q11 42 41 56t71 -5zM408 710q86 0 154.5 -30t111 -81t65 -115t22.5 -135q-1 -95 -39 -175t-119.5 -132.5t-194.5 -52.5q-85 0 -153.5 30.5
t-111.5 81.5t-65.5 115t-22.5 135q0 69 22.5 132.5t65 114.5t111 81.5t154.5 30.5zM711 349q0 131 -79.5 222t-223.5 92q-73 0 -132 -26t-95.5 -70.5t-55.5 -100t-19 -116.5q0 -127 80 -220t222 -93q96 0 166.5 45.5t103.5 115t33 151.5z" />
    <glyph glyph-name="Odieresis" unicode="&#xd6;" horiz-adv-x="816" 
d="M340 813q0 -23 -18 -32t-36.5 0t-18.5 32t18.5 32t36.5 0t18 -32zM554 813q0 -23 -18 -32t-36.5 0t-18.5 32t18.5 32t36.5 0t18 -32zM408 710q86 0 154.5 -30t111 -81t65 -115t22.5 -135q-1 -95 -39 -175t-119.5 -132.5t-194.5 -52.5q-85 0 -153.5 30.5t-111.5 81.5
t-65.5 115t-22.5 135q0 69 22.5 132.5t65 114.5t111 81.5t154.5 30.5zM711 349q0 131 -79.5 222t-223.5 92q-73 0 -132 -26t-95.5 -70.5t-55.5 -100t-19 -116.5q0 -127 80 -220t222 -93q96 0 166.5 45.5t103.5 115t33 151.5z" />
    <glyph glyph-name="multiply" unicode="&#xd7;" horiz-adv-x="454" 
d="M73 447l30 31l124 -124l123 123l31 -31l-124 -123l128 -125l-31 -31l-127 126l-126 -128l-31 31l127 128z" />
    <glyph glyph-name="Oslash" unicode="&#xd8;" horiz-adv-x="815" 
d="M105 350q0 -80 34.5 -151.5t98.5 -113.5l322 540q-66 38 -153 38q-144 0 -223.5 -92.5t-78.5 -220.5zM710 349q0 76 -28.5 142t-82.5 109l-321 -537q60 -26 130 -26q142 0 222.5 92.5t79.5 219.5zM407 710q99 0 179 -43l55 93h53l-70 -117q66 -49 101 -127t35 -167
q-1 -95 -38.5 -175t-119.5 -132.5t-195 -52.5q-87 0 -155 31l-59 -99h-52l71 120q-76 48 -116.5 131t-40.5 179q0 68 21.5 130.5t63 114.5t110.5 83t157 31z" />
    <glyph glyph-name="Ugrave" unicode="&#xd9;" horiz-adv-x="785" 
d="M428 753h-45l-90 124h59l76 -120v-4zM393 38q92 0 154.5 59.5t62.5 167.5v388h-93v47h233v-47h-91v-389q0 -124 -74.5 -198.5t-191.5 -74.5q-116 0 -191.5 74.5t-75.5 198.5v389h-91v47h233v-47h-93v-389q0 -107 63 -166.5t155 -59.5z" />
    <glyph glyph-name="Uacute" unicode="&#xda;" horiz-adv-x="785" 
d="M404 753h-46v3l77 119h61zM393 38q92 0 154.5 59.5t62.5 167.5v388h-93v47h233v-47h-91v-389q0 -124 -74.5 -198.5t-191.5 -74.5q-116 0 -191.5 74.5t-75.5 198.5v389h-91v47h233v-47h-93v-389q0 -107 63 -166.5t155 -59.5z" />
    <glyph glyph-name="Ucircumflex" unicode="&#xdb;" horiz-adv-x="785" 
d="M239 760v3l129 122h40l129 -121v-4h-52l-97 89l-97 -89h-52zM393 38q92 0 154.5 59.5t62.5 167.5v388h-93v47h233v-47h-91v-389q0 -124 -74.5 -198.5t-191.5 -74.5q-116 0 -191.5 74.5t-75.5 198.5v389h-91v47h233v-47h-93v-389q0 -107 63 -166.5t155 -59.5z" />
    <glyph glyph-name="Udieresis" unicode="&#xdc;" horiz-adv-x="785" 
d="M262 767q-16 0 -27 9.5t-11 27.5t11.5 28t26.5 10q16 0 27 -10t11 -28t-11 -27.5t-27 -9.5zM525 767q-16 0 -27 9.5t-11 27.5t11.5 28t26.5 10q16 0 27 -10t11 -28t-11 -27.5t-27 -9.5zM393 38q92 0 154.5 59.5t62.5 167.5v388h-93v47h233v-47h-91v-389
q0 -124 -74.5 -198.5t-191.5 -74.5q-116 0 -191.5 74.5t-75.5 198.5v389h-91v47h233v-47h-93v-389q0 -107 63 -166.5t155 -59.5z" />
    <glyph glyph-name="Yacute" unicode="&#xdd;" horiz-adv-x="720" 
d="M326 757v4l76 120h59l-90 -124h-45zM240 653h-88l96 -149l112 -176l115 178l95 147h-89v47h224v-47h-76l-244 -373v-233h96v-47h-242v47h96v233l-243 373h-77v47h225v-47z" />
    <glyph glyph-name="Thorn" unicode="&#xde;" horiz-adv-x="708" 
d="M145 655h-94v46h239v-46h-95v-100h250q107 0 165.5 -57t58.5 -143q-1 -86 -59 -143t-165 -57h-250v-108h95v-47h-239v47h94v608zM445 201q83 0 128.5 43.5t45.5 110.5t-45.5 111t-128.5 44h-250v-309h250z" />
    <glyph glyph-name="germandbls" unicode="&#xdf;" horiz-adv-x="634" 
d="M111 517q0 95 59 144.5t149 49.5q96 0 154 -43.5t58 -135.5q0 -49 -24.5 -86.5t-67.5 -54.5q-17 -7 -42 -9q27 0 41 -4q147 -41 147 -192q0 -101 -62 -150t-156 -48q-73 0 -141 29l4 46q64 -32 133 -32q77 1 125.5 39t48.5 114q0 174 -221 174h-86v44h82q30 0 57 5.5
t54.5 18.5t44 40t16.5 65q0 137 -165 137q-84 0 -121 -40t-41 -112l1 -516h-139v43h92v474z" />
    <glyph glyph-name="agrave" unicode="&#xe0;" horiz-adv-x="674" 
d="M298 574l-85 120h58l71 -116v-4h-44zM302 36q95 0 149 61.5t55 146.5q1 87 -53.5 149t-152.5 62q-87 0 -145.5 -57t-58.5 -152q0 -96 59 -153t147 -57zM551 44h91v-44h-135q0 13 -1.5 52.5t-1.5 53.5q-28 -57 -84.5 -86t-119.5 -29q-107 0 -179 70t-72 186
q0 115 72 184.5t179 69.5q65 0 122.5 -30.5t82.5 -86.5v110h136v-45h-90v-405z" />
    <glyph glyph-name="aacute" unicode="&#xe1;" horiz-adv-x="674" 
d="M318 573h-44v4l71 116h58zM300 455q-87 0 -145.5 -57t-58.5 -152q0 -96 59 -153t147 -57q95 0 149 61.5t55 146.5q1 87 -53.5 149t-152.5 62zM551 44h91v-44h-135q0 13 -1.5 52.5t-1.5 53.5q-28 -57 -84.5 -86t-119.5 -29q-107 0 -179 70t-72 186q0 115 72 184.5
t179 69.5q65 0 122.5 -30.5t82.5 -86.5v110h136v-45h-90v-405z" />
    <glyph glyph-name="acircumflex" unicode="&#xe2;" horiz-adv-x="674" 
d="M177 570v4l126 122h40l127 -122v-4h-51l-96 90l-95 -90h-51zM300 455q-87 0 -145.5 -57t-58.5 -152q0 -96 59 -153t147 -57q95 0 149 61.5t55 146.5q1 87 -53.5 149t-152.5 62zM551 44h91v-44h-135q0 13 -1.5 52.5t-1.5 53.5q-28 -57 -84.5 -86t-119.5 -29
q-107 0 -179 70t-72 186q0 115 72 184.5t179 69.5q65 0 122.5 -30.5t82.5 -86.5v110h136v-45h-90v-405z" />
    <glyph glyph-name="atilde" unicode="&#xe3;" horiz-adv-x="674" 
d="M230 607l-33 14q11 41 40 55t70 -5q2 -1 24 -12.5t23 -11.5q50 -23 65 27l33 -13q-10 -43 -40.5 -57t-68.5 5q-2 1 -24 12.5t-23 11.5q-51 24 -66 -26zM302 36q95 0 149 61.5t55 146.5q1 87 -53.5 149t-152.5 62q-87 0 -145.5 -57t-58.5 -152q0 -96 59 -153t147 -57z
M551 44h91v-44h-135q0 13 -1.5 52.5t-1.5 53.5q-28 -57 -84.5 -86t-119.5 -29q-107 0 -179 70t-72 186q0 115 72 184.5t179 69.5q65 0 122.5 -30.5t82.5 -86.5v110h136v-45h-90v-405z" />
    <glyph glyph-name="adieresis" unicode="&#xe4;" horiz-adv-x="674" 
d="M219 609q-16 0 -27 9.5t-11 27.5t11.5 28t26.5 10q16 0 27 -10t11 -28t-11 -27.5t-27 -9.5zM433 609q-16 0 -27 9.5t-11 27.5t11.5 28t26.5 10q16 0 27 -10t11 -28t-11 -27.5t-27 -9.5zM302 36q95 0 149 61.5t55 146.5q1 87 -53.5 149t-152.5 62q-87 0 -145.5 -57
t-58.5 -152q0 -96 59 -153t147 -57zM551 44h91v-44h-135q0 13 -1.5 52.5t-1.5 53.5q-28 -57 -84.5 -86t-119.5 -29q-107 0 -179 70t-72 186q0 115 72 184.5t179 69.5q65 0 122.5 -30.5t82.5 -86.5v110h136v-45h-90v-405z" />
    <glyph glyph-name="aring" unicode="&#xe5;" horiz-adv-x="674" 
d="M324 551q-40 0 -68.5 23.5t-28.5 61.5q0 42 28.5 65t67.5 23q40 0 70 -23t30 -64q0 -40 -29.5 -63t-69.5 -23zM324 693q-27 0 -45 -15t-18 -41q0 -24 18.5 -39t44.5 -15q28 0 46 15t18 40t-18 40t-46 15zM302 36q95 0 149 61.5t55 146.5q1 87 -53.5 149t-152.5 62
q-87 0 -145.5 -57t-58.5 -152q0 -96 59 -153t147 -57zM551 44h91v-44h-135q0 13 -1.5 52.5t-1.5 53.5q-28 -57 -84.5 -86t-119.5 -29q-107 0 -179 70t-72 186q0 115 72 184.5t179 69.5q65 0 122.5 -30.5t82.5 -86.5v110h136v-45h-90v-405z" />
    <glyph glyph-name="ae" unicode="&#xe6;" horiz-adv-x="1038" 
d="M548 267l402 -1q1 91 -53.5 141t-148.5 50q-82 0 -137 -50.5t-63 -139.5zM300 455q-87 0 -145.5 -57.5t-58.5 -152.5t59.5 -152t147.5 -57q98 0 151 60t53 149q-2 91 -56 150.5t-151 59.5zM545 0h-39v117q-26 -62 -83.5 -94t-122.5 -31q-107 0 -179 69.5t-72 185.5
q0 114 72 184t178 69q68 0 127.5 -34.5t80.5 -95.5v124h39v-111q30 56 83.5 87t120.5 31q112 0 185.5 -71t58.5 -204h-446q7 -89 64 -138t138 -49q51 0 102 21t78 56l33 -28q-35 -45 -93.5 -69.5t-120.5 -24.5q-67 0 -121 30t-83 86v-110z" />
    <glyph glyph-name="ccedilla" unicode="&#xe7;" horiz-adv-x="529" 
d="M460 100l31 -32q-72 -72 -177 -74h-10l-10 -46q56 3 81 -27.5t13 -70.5q-19 -66 -101 -64q-64 2 -97 47l23 26q26 -34 74 -37q51 0 62 36q8 29 -16.5 48.5t-75.5 8.5l-6 5l18 77q-100 12 -159.5 76.5t-59.5 172.5q0 118 72.5 186t185.5 68q91 0 164 -52l-1 -110h-43v87
q-49 31 -120 31q-90 -1 -150.5 -56t-60.5 -154q0 -97 59 -152t154 -55q90 0 150 61z" />
    <glyph glyph-name="egrave" unicode="&#xe8;" horiz-adv-x="588" 
d="M300 579l-90 124h60l75 -120v-4h-45zM480 116l34 -28q-35 -45 -93.5 -69.5t-120.5 -24.5q-107 0 -179 69t-72 184q0 112 71 183.5t178 71.5q114 0 186.5 -70t59.5 -206h-447q7 -89 65 -138t139 -49q51 0 101.5 21t77.5 56zM97 268h403q1 91 -53 140.5t-148 49.5
q-82 0 -138 -50.5t-64 -139.5z" />
    <glyph glyph-name="eacute" unicode="&#xe9;" horiz-adv-x="588" 
d="M269 583l76 120h59l-90 -123h-45v3zM298 502q114 0 186.5 -70t59.5 -206h-447q7 -89 65 -138t139 -49q51 0 101.5 21t77.5 56l34 -28q-35 -45 -93.5 -69.5t-120.5 -24.5q-107 0 -179 69t-72 184q0 112 71 183.5t178 71.5zM500 268q1 91 -53 140.5t-148 49.5
q-82 0 -138 -50.5t-64 -139.5h403z" />
    <glyph glyph-name="ecircumflex" unicode="&#xea;" horiz-adv-x="588" 
d="M152 573l136 128h38l135 -128v-4h-50l-104 96l-104 -96h-51v4zM480 116l34 -28q-35 -45 -93.5 -69.5t-120.5 -24.5q-107 0 -179 69t-72 184q0 112 71 183.5t178 71.5q114 0 186.5 -70t59.5 -206h-447q7 -89 65 -138t139 -49q51 0 101.5 21t77.5 56zM97 268h403
q1 91 -53 140.5t-148 49.5q-82 0 -138 -50.5t-64 -139.5z" />
    <glyph glyph-name="edieresis" unicode="&#xeb;" horiz-adv-x="588" 
d="M172 656q0 22 18 31t36 0t18 -31t-18 -31t-36 0t-18 31zM446 656q0 -22 -18 -31t-36 0t-18 31t18 31t36 0t18 -31zM480 116l34 -28q-35 -45 -93.5 -69.5t-120.5 -24.5q-107 0 -179 69t-72 184q0 112 71 183.5t178 71.5q114 0 186.5 -70t59.5 -206h-447q7 -89 65 -138
t139 -49q51 0 101.5 21t77.5 56zM97 268h403q1 91 -53 140.5t-148 49.5q-82 0 -138 -50.5t-64 -139.5z" />
    <glyph glyph-name="igrave" unicode="&#xec;" horiz-adv-x="285" 
d="M130 569l-80 124h56l67 -120v-4h-43zM35 495h137v-450h94v-45h-234v45h94v406h-91v44z" />
    <glyph glyph-name="iacute" unicode="&#xed;" horiz-adv-x="285" 
d="M119 572l67 120h56l-80 -124h-43v4zM34 495h138v-450h94v-45h-234v45h93v406h-91v44z" />
    <glyph glyph-name="icircumflex" unicode="&#xee;" horiz-adv-x="285" 
d="M19 566v5l102 123h34l103 -123v-5h-44l-76 86l-76 -86h-43zM34 451v44h138v-450h94v-45h-234v45h93v406h-91z" />
    <glyph glyph-name="idieresis" unicode="&#xef;" horiz-adv-x="285" 
d="M223 608q-16 0 -27 9.5t-11 27.5t11.5 28t26.5 10q16 0 27 -10t11 -28t-11 -27.5t-27 -9.5zM68 608q-16 0 -27 9.5t-11 27.5t11.5 28t26.5 10q16 0 27 -10t11 -28t-11 -27.5t-27 -9.5zM34 495h138v-450h94v-45h-234v45h93v406h-91v44z" />
    <glyph glyph-name="eth" unicode="&#xf0;" horiz-adv-x="612" 
d="M331 649l44 64l30 -19l-43 -64q191 -133 196 -376q2 -117 -68 -190t-187 -73q-120 0 -187 73.5t-67 174.5t64.5 174.5t181.5 76.5q62 2 117.5 -26t86.5 -78q-20 64 -64 118t-99 91l-40 -58l-29 19l39 58q-46 27 -101 45l14 40q64 -22 112 -50zM303 35q97 0 152.5 61
t55.5 144q0 84 -55.5 146t-152.5 62t-151.5 -61.5t-54.5 -146.5t54 -145t152 -60z" />
    <glyph glyph-name="ntilde" unicode="&#xf1;" horiz-adv-x="671" 
d="M331 689q2 0 23.5 -12t23.5 -13q49 -24 64 27l33 -13q-11 -43 -41 -57t-68 5q-2 1 -23.5 12.5t-22.5 11.5q-51 24 -66 -26l-33 14q11 41 40 55.5t70 -4.5zM170 275v-231h86v-44h-223v44h90v406h-90v44h135l2 -102q30 56 79 83t106 28q103 0 158.5 -57.5t55.5 -161.5v-240
h91v-44h-221v44h82v239q0 86 -43 130.5t-125 44.5q-78 -1 -130.5 -53t-52.5 -130z" />
    <glyph glyph-name="ograve" unicode="&#xf2;" horiz-adv-x="605" 
d="M314 580l-53 43l-23 80l50 -42l51 -79zM50 246q0 116 73 186.5t180 70.5t179.5 -71t72.5 -186t-72.5 -184t-180.5 -69q-107 0 -179.5 69t-72.5 184zM508 246q0 96 -59.5 154.5t-146.5 58.5q-86 0 -145.5 -58.5t-59.5 -154.5q0 -94 59 -151t146 -57t146.5 57t59.5 151z
" />
    <glyph glyph-name="oacute" unicode="&#xf3;" horiz-adv-x="605" 
d="M312 579h-45v3l75 119h60zM50 246q0 116 73 186.5t180 70.5t179.5 -71t72.5 -186t-72.5 -184t-180.5 -69q-107 0 -179.5 69t-72.5 184zM508 246q0 96 -59.5 154.5t-146.5 58.5q-86 0 -145.5 -58.5t-59.5 -154.5q0 -94 59 -151t146 -57t146.5 57t59.5 151z" />
    <glyph glyph-name="ocircumflex" unicode="&#xf4;" horiz-adv-x="605" 
d="M322 701l131 -128v-5h-49l-101 98l-99 -98h-50v5l131 128h37zM50 246q0 116 73 186.5t180 70.5t179.5 -71t72.5 -186t-72.5 -184t-180.5 -69q-107 0 -179.5 69t-72.5 184zM508 246q0 96 -59.5 154.5t-146.5 58.5q-86 0 -145.5 -58.5t-59.5 -154.5q0 -94 59 -151t146 -57
t146.5 57t59.5 151z" />
    <glyph glyph-name="otilde" unicode="&#xf5;" horiz-adv-x="605" 
d="M288 686q2 0 24 -12t24 -12q48 -23 65 27l32 -13q-10 -43 -40 -57t-68 5q-2 0 -23.5 12t-23.5 12q-50 26 -67 -26l-32 14q11 40 39.5 54t69.5 -4zM50 246q0 116 73 186.5t180 70.5t179.5 -71t72.5 -186t-72.5 -184t-180.5 -69q-107 0 -179.5 69t-72.5 184zM508 246
q0 96 -59.5 154.5t-146.5 58.5q-86 0 -145.5 -58.5t-59.5 -154.5q0 -94 59 -151t146 -57t146.5 57t59.5 151z" />
    <glyph glyph-name="odieresis" unicode="&#xf6;" horiz-adv-x="605" 
d="M244 663q0 -21 -17 -30t-34.5 0t-17.5 30q0 22 17 31t34.5 0t17.5 -31zM436 663q0 -21 -17 -30t-34.5 0t-17.5 30t17.5 30t34.5 0t17 -30zM50 246q0 116 73 186.5t180 70.5t179.5 -71t72.5 -186t-72.5 -184t-180.5 -69q-107 0 -179.5 69t-72.5 184zM508 246
q0 96 -59.5 154.5t-146.5 58.5q-86 0 -145.5 -58.5t-59.5 -154.5q0 -94 59 -151t146 -57t146.5 57t59.5 151z" />
    <glyph glyph-name="divide" unicode="&#xf7;" horiz-adv-x="545" 
d="M310 484q0 -24 -19 -33.5t-38 0t-19 33.5q0 23 19 32.5t38 0t19 -32.5zM78 311v48h389v-48h-389zM310 180q0 -24 -19 -33.5t-38 0t-19 33.5q0 23 19 32.5t38 0t19 -32.5z" />
    <glyph glyph-name="oslash" unicode="&#xf8;" horiz-adv-x="603" 
d="M179 77l215 360q-44 21 -92 21q-86 0 -145 -58.5t-59 -153.5q0 -113 81 -169zM431 414l-213 -357q35 -17 84 -17q87 0 146 56t59 150q0 107 -76 168zM101 -54l54 90q-104 69 -104 210q0 115 72 186t179 71q62 0 116 -26l37 62h50l-50 -85q98 -73 98 -208
q0 -115 -72.5 -184t-179.5 -69q-62 0 -109 22l-42 -69h-49z" />
    <glyph glyph-name="ugrave" unicode="&#xf9;" horiz-adv-x="648" 
d="M336 567h-45l-90 123h59l76 -120v-3zM538 494v-451h91v-43h-132l-4 100q-59 -106 -187 -108q-102 0 -156.5 56.5t-54.5 160.5v241h-87v44h135v-283q0 -174 168 -174q79 0 129 52t50 130v231h-88v44h136z" />
    <glyph glyph-name="uacute" unicode="&#xfa;" horiz-adv-x="648" 
d="M306 565h-45v4l76 120h59zM538 494v-451h91v-43h-132l-4 100q-59 -106 -187 -108q-102 0 -156.5 56.5t-54.5 160.5v241h-87v44h135v-283q0 -174 168 -174q79 0 129 52t50 130v231h-88v44h136z" />
    <glyph glyph-name="ucircumflex" unicode="&#xfb;" horiz-adv-x="648" 
d="M158 569v3l129 122h40l130 -121v-4h-53l-97 89l-96 -89h-53zM538 494v-451h91v-43h-132l-4 100q-59 -106 -187 -108q-102 0 -156.5 56.5t-54.5 160.5v241h-87v44h135v-283q0 -174 168 -174q79 0 129 52t50 130v231h-88v44h136z" />
    <glyph glyph-name="udieresis" unicode="&#xfc;" horiz-adv-x="648" 
d="M202 606q-15 -1 -26.5 9t-11.5 28t11 27.5t27 9.5q15 0 26 -9.5t11 -27.5t-11 -27.5t-26 -9.5zM416 605q-15 0 -26.5 10t-11.5 28t11 27.5t27 9.5q15 0 26 -9.5t11 -27.5t-11 -28t-26 -10zM538 494v-451h91v-43h-132l-4 100q-59 -106 -187 -108q-102 0 -156.5 56.5
t-54.5 160.5v241h-87v44h135v-283q0 -174 168 -174q79 0 129 52t50 130v231h-88v44h136z" />
    <glyph glyph-name="yacute" unicode="&#xfd;" horiz-adv-x="607" 
d="M318 571h-45v3l75 120h60zM464 450h-83v44h207v-44h-71l-251 -604q-28 -69 -85 -85t-125 29l22 40q40 -32 80 -26t62 55l62 146l-191 445h-76v44h207v-44h-79l108 -250l57 -146l55 147z" />
    <glyph glyph-name="thorn" unicode="&#xfe;" horiz-adv-x="636" 
d="M336 37q88 0 145 54.5t57 155.5t-56.5 154.5t-145.5 53.5q-87 0 -144.5 -59t-57.5 -150t58 -150t144 -59zM0 656v43h131v-323q30 58 87 91.5t128 33.5q105 -4 172.5 -71t67.5 -183q0 -120 -70.5 -188t-179.5 -68q-66 0 -120 31.5t-85 92.5v-278h92v-43h-220v43h82v819
h-85z" />
    <glyph glyph-name="ydieresis" unicode="&#xff;" horiz-adv-x="607" 
d="M207 606q-16 0 -27 9.5t-11 27.5t11.5 28t26.5 10q16 0 27 -10t11 -28t-11 -27.5t-27 -9.5zM421 606q-16 0 -27 9.5t-11 27.5t11.5 28t26.5 10q16 0 27 -10t11 -28t-11 -27.5t-27 -9.5zM464 450h-83v44h207v-44h-71l-251 -604q-28 -69 -85 -85t-125 29l22 40
q40 -32 80 -26t62 55l62 146l-191 445h-76v44h207v-44h-79l108 -250l57 -146l55 147z" />
    <glyph glyph-name="Amacron" unicode="&#x100;" horiz-adv-x="801" 
d="M268 780v43h258v-43h-258zM229 259h344q-31 72 -169 393q-63 -141 -175 -393zM136 47h93v-47h-223v47h74l273 607h-95v46h174l291 -653h74v-47h-223v47h93q-13 30 -37.5 85.5t-35.5 80.5h-385q-23 -54 -73 -166z" />
    <glyph glyph-name="amacron" unicode="&#x101;" horiz-adv-x="675" 
d="M197 633v42h249v-42h-249zM300 455q-87 0 -145 -57t-58 -152q0 -96 59 -153t147 -57q95 0 149 61.5t55 146.5q1 87 -53.5 149t-153.5 62zM551 44h92v-44h-135q0 13 -1.5 52.5t-1.5 53.5q-28 -57 -84.5 -86t-119.5 -29q-107 0 -179 70t-72 186q0 115 72 184.5t178 69.5
q65 0 123 -30.5t82 -86.5l1 110h136v-45h-91v-405z" />
    <glyph glyph-name="Abreve" unicode="&#x102;" horiz-adv-x="801" 
d="M478 864h39q0 -53 -34.5 -81.5t-87.5 -28.5q-55 0 -89.5 28.5t-35.5 81.5h41q0 -34 23.5 -52.5t61.5 -18.5q36 0 58.5 19t23.5 52zM229 259h344q-31 72 -169 393q-63 -141 -175 -393zM136 47h93v-47h-223v47h74l273 607h-95v46h174l291 -653h74v-47h-223v47h93
q-13 30 -37.5 85.5t-35.5 80.5h-385q-23 -54 -73 -166z" />
    <glyph glyph-name="abreve" unicode="&#x103;" horiz-adv-x="675" 
d="M328 615q38 1 59 20.5t23 53.5h39q0 -53 -35.5 -82.5t-86.5 -30.5q-54 0 -89 29.5t-36 83.5h40q0 -35 24 -54.5t62 -19.5zM303 36q95 0 149 61.5t55 146.5q1 87 -53.5 149t-153.5 62q-87 0 -145 -57t-58 -152q0 -96 59 -153t147 -57zM551 44h92v-44h-135q0 13 -1.5 52.5
t-1.5 53.5q-28 -57 -84.5 -86t-119.5 -29q-107 0 -179 70t-72 186q0 115 72 184.5t178 69.5q65 0 123 -30.5t82 -86.5l1 110h136v-45h-91v-405z" />
    <glyph glyph-name="Aogonek" unicode="&#x104;" horiz-adv-x="802" 
d="M137 47h92v-47h-223v47h74l274 607h-95v46h174l291 -653h74v-47q-48 -5 -75.5 -26t-32.5 -41t0 -34q8 -24 43 -29t71 16l8 -38q-44 -27 -98 -17.5t-67 53.5q-9 28 7.5 64.5t54.5 51.5h-134v47h93q-13 30 -37.5 85.5t-35.5 80.5h-385zM230 259h344q-28 64 -84 194t-86 199
q-90 -207 -174 -393z" />
    <glyph glyph-name="aogonek" unicode="&#x105;" horiz-adv-x="674" 
d="M551 44h91v-44q-66 -6 -90 -39t-14 -61q8 -24 41 -26.5t69 18.5l9 -36q-48 -29 -97.5 -21t-61.5 52q-9 28 6.5 61.5t51.5 51.5h-47l-5 106q-28 -57 -84.5 -86t-119.5 -29q-107 0 -179 70t-72 186q0 115 72 184.5t179 69.5q65 0 122.5 -30.5t82.5 -86.5v110h136v-45h-90
v-405zM300 455q-87 0 -145.5 -57t-58.5 -152q0 -96 59 -153t147 -57q95 0 149 61.5t55 146.5q1 87 -53.5 149t-152.5 62z" />
    <glyph glyph-name="Cacute" unicode="&#x106;" horiz-adv-x="709" 
d="M369 773v4l76 118h57l-89 -122h-44zM634 130l36 -33q-103 -104 -254 -104q-169 0 -264 102t-95 252q0 71 22.5 135t66 115.5t113.5 81.5t157 30q133 0 230 -84q0 -46 -2 -142h-45l-1 120q-78 58 -182 58q-147 0 -228 -90.5t-80 -223.5q0 -133 83.5 -219t224.5 -86
q128 0 218 88z" />
    <glyph glyph-name="cacute" unicode="&#x107;" horiz-adv-x="528" 
d="M262 580v4l66 103h51l-77 -107h-40zM459 100l31 -32q-73 -74 -181 -74q-114 0 -186.5 67.5t-72.5 184.5q0 118 72.5 186t185.5 68q91 0 164 -52l-2 -110h-43v87q-49 31 -119 31q-90 -1 -150.5 -56t-60.5 -154q0 -96 59 -151.5t154 -55.5q91 0 149 61z" />
    <glyph glyph-name="Ccircumflex" unicode="&#x108;" horiz-adv-x="709" 
d="M262 773v4l128 121h40l128 -121v-4h-52l-97 89l-95 -89h-52zM634 130l36 -33q-103 -104 -254 -104q-169 0 -264 102t-95 252q0 71 22.5 135t66 115.5t113.5 81.5t157 30q133 0 230 -84q0 -46 -2 -142h-45l-1 120q-78 58 -182 58q-147 0 -228 -90.5t-80 -223.5
q0 -133 83.5 -219t224.5 -86q128 0 218 88z" />
    <glyph glyph-name="ccircumflex" unicode="&#x109;" horiz-adv-x="528" 
d="M153 572v3l124 117h39l125 -116v-4h-51l-93 85l-93 -85h-51zM459 100l31 -32q-73 -74 -181 -74q-114 0 -186.5 67.5t-72.5 184.5q0 118 72.5 186t185.5 68q91 0 164 -52l-2 -110h-43v87q-49 31 -119 31q-90 -1 -150.5 -56t-60.5 -154q0 -96 59 -151.5t154 -55.5
q91 0 149 61z" />
    <glyph glyph-name="Cdotaccent" unicode="&#x10a;" horiz-adv-x="709" 
d="M410 785q-16 0 -28.5 10.5t-12.5 29.5t12.5 29.5t29.5 10.5t29 -10.5t12 -29.5t-12.5 -29.5t-29.5 -10.5zM634 130l36 -33q-103 -104 -254 -104q-169 0 -264 102t-95 252q0 71 22.5 135t66 115.5t113.5 81.5t157 30q133 0 230 -84q0 -46 -2 -142h-45l-1 120
q-78 58 -182 58q-147 0 -228 -90.5t-80 -223.5q0 -133 83.5 -219t224.5 -86q128 0 218 88z" />
    <glyph glyph-name="cdotaccent" unicode="&#x10b;" horiz-adv-x="528" 
d="M305 604q-17 0 -29 10t-12 27q0 18 12.5 27.5t28.5 9.5t28 -9.5t12 -27.5t-12 -27.5t-28 -9.5zM459 100l31 -32q-73 -74 -181 -74q-114 0 -186.5 67.5t-72.5 184.5q0 118 72.5 186t185.5 68q91 0 164 -52l-2 -110h-43v87q-49 31 -119 31q-90 -1 -150.5 -56t-60.5 -154
q0 -96 59 -151.5t154 -55.5q91 0 149 61z" />
    <glyph glyph-name="Ccaron" unicode="&#x10c;" horiz-adv-x="709" 
d="M555 896v-3l-128 -119h-39l-128 118v4h52l96 -88l96 88h51zM634 130l36 -33q-103 -104 -254 -104q-169 0 -264 102t-95 252q0 71 22.5 135t66 115.5t113.5 81.5t157 30q133 0 230 -84q0 -46 -2 -142h-45l-1 120q-78 58 -182 58q-147 0 -228 -90.5t-80 -223.5
q0 -133 83.5 -219t224.5 -86q128 0 218 88z" />
    <glyph glyph-name="ccaron" unicode="&#x10d;" horiz-adv-x="528" 
d="M433 691v-4l-119 -110h-38l-120 110v4h50l90 -80l89 80h48zM459 100l31 -32q-73 -74 -181 -74q-114 0 -186.5 67.5t-72.5 184.5q0 118 72.5 186t185.5 68q91 0 164 -52l-2 -110h-43v87q-49 31 -119 31q-90 -1 -150.5 -56t-60.5 -154q0 -96 59 -151.5t154 -55.5
q91 0 149 61z" />
    <glyph glyph-name="Dcaron" unicode="&#x10e;" horiz-adv-x="788" 
d="M493 887v-3l-127 -120h-39l-128 119v4h52l95 -88l96 88h51zM49 0v47h95v607h-92v46h323q169 0 261 -98t95 -244q1 -71 -20.5 -134.5t-64 -114t-112.5 -80t-159 -29.5h-326zM194 47h181q147 0 227 91.5t78 219.5q-2 123 -81.5 209t-223.5 86h-181v-606z" />
    <glyph glyph-name="dcaron" unicode="&#x10f;" horiz-adv-x="658" 
d="M651 702h47l-47 -146h-37zM503 251q0 88 -54.5 147t-148.5 59q-88 0 -145.5 -56.5t-57.5 -153.5q0 -95 59 -151.5t147 -56.5q95 0 147.5 60.5t52.5 151.5zM413 701h137v-657h91v-44h-134q0 13 -2 54.5t-2 55.5q-28 -57 -84.5 -87.5t-118.5 -29.5q-107 0 -178.5 69.5
t-71.5 184.5q0 116 71 185t177 69q65 0 123 -30.5t82 -87.5v274h-90v44z" />
    <glyph glyph-name="Dcroat" unicode="&#x110;" horiz-adv-x="789" 
d="M61 331v44h84v279h-91v46h323q169 0 261 -98.5t94 -243.5q1 -71 -20.5 -134.5t-64 -114t-112 -80t-158.5 -29.5h-326v47h94v284h-84zM196 47h181q100 0 171 45.5t103 114.5t30 151q-2 123 -81 209t-223 86h-181v-278h142v-44h-142v-284z" />
    <glyph glyph-name="dcroat" unicode="&#x111;" horiz-adv-x="660" 
d="M300 457q-88 0 -145.5 -56.5t-57.5 -153.5q0 -95 59 -151.5t147 -56.5q95 0 147.5 60.5t52.5 151.5q0 87 -54.5 146t-148.5 60zM550 44h91v-44h-134l-4 110q-28 -57 -84.5 -87.5t-118.5 -29.5q-107 0 -178.5 69.5t-71.5 184.5q0 116 71 185t177 69q65 0 123 -30.5
t82 -87.5v166h-97v37h97v74h-89v42h136v-116h73v-37h-73v-505z" />
    <glyph glyph-name="Emacron" unicode="&#x112;" horiz-adv-x="683" 
d="M491 824v-42h-255v42h255zM195 48h387l1 109h47v-157h-580v47h95v607h-93v46h563v-156h-47l-1 109h-372v-275h365v-47h-365v-283z" />
    <glyph glyph-name="emacron" unicode="&#x113;" horiz-adv-x="588" 
d="M183 672h255v-40h-255v40zM480 116l34 -28q-35 -45 -93.5 -69.5t-120.5 -24.5q-107 0 -179 69t-72 184q0 112 71 183.5t178 71.5q114 0 186.5 -70t59.5 -206h-447q7 -89 65 -138t139 -49q51 0 101.5 21t77.5 56zM97 268h403q1 91 -53 140.5t-148 49.5q-82 0 -138 -50.5
t-64 -139.5z" />
    <glyph glyph-name="Ebreve" unicode="&#x114;" horiz-adv-x="683" 
d="M499 884q1 -52 -34.5 -81t-87.5 -30t-89 28t-37 83h40q0 -34 24.5 -54.5t62.5 -19.5q35 1 58 21t24 53h39zM195 48h387l1 109h47v-157h-580v47h95v607h-93v46h563v-156h-47l-1 109h-372v-275h365v-47h-365v-283z" />
    <glyph glyph-name="ebreve" unicode="&#x115;" horiz-adv-x="588" 
d="M426 697q1 -52 -34.5 -81t-86.5 -30q-52 0 -88.5 29.5t-37.5 81.5h39q0 -34 24.5 -54t61.5 -20q35 1 58.5 21t24.5 53h39zM480 116l34 -28q-35 -45 -93.5 -69.5t-120.5 -24.5q-107 0 -179 69t-72 184q0 112 71 183.5t178 71.5q114 0 186.5 -70t59.5 -206h-447
q7 -89 65 -138t139 -49q51 0 101.5 21t77.5 56zM97 268h403q1 91 -53 140.5t-148 49.5q-82 0 -138 -50.5t-64 -139.5z" />
    <glyph glyph-name="Edotaccent" unicode="&#x116;" horiz-adv-x="683" 
d="M373 773q-16 0 -28 10.5t-12 29.5q0 18 12 28t29 10t29 -10t12 -28q0 -19 -12.5 -29.5t-29.5 -10.5zM195 48h387l1 109h47v-157h-580v47h95v607h-93v46h563v-156h-47l-1 109h-372v-275h365v-47h-365v-283z" />
    <glyph glyph-name="edotaccent" unicode="&#x117;" horiz-adv-x="588" 
d="M310 610q-16 0 -28 10.5t-12 28.5t12 28t29 10q16 0 28 -10t12 -28q0 -19 -12 -29t-29 -10zM480 116l34 -28q-35 -45 -93.5 -69.5t-120.5 -24.5q-107 0 -179 69t-72 184q0 112 71 183.5t178 71.5q114 0 186.5 -70t59.5 -206h-447q7 -89 65 -138t139 -49q51 0 101.5 21
t77.5 56zM97 268h403q1 91 -53 140.5t-148 49.5q-82 0 -138 -50.5t-64 -139.5z" />
    <glyph glyph-name="Eogonek" unicode="&#x118;" horiz-adv-x="683" 
d="M645 -157q-50 -28 -103.5 -19.5t-66.5 54.5q-9 30 6 67.5t54 54.5h-485v47h95v607h-93v46h563v-156h-47l-1 109h-372v-275h365v-47h-365v-283h387l1 109h47v-157q-50 -5 -79 -26.5t-34 -42.5t1 -37q9 -27 44.5 -31t73.5 19z" />
    <glyph glyph-name="eogonek" unicode="&#x119;" horiz-adv-x="588" 
d="M481 116l33 -28q-38 -50 -106 -75q-34 -17 -46 -47t-4 -55q10 -27 42 -31t69 18l8 -37q-47 -26 -96.5 -18t-63.5 53q-7 25 1 54.5t28 48.5q-30 -4 -47 -4q-106 1 -177.5 69.5t-71.5 182.5q0 112 70.5 183.5t177.5 71.5q114 0 187 -70t60 -206h-447q7 -89 64.5 -138
t138.5 -49q51 0 102 21t78 56zM98 269h402q1 91 -53.5 140t-147.5 49q-82 0 -138 -50.5t-63 -138.5z" />
    <glyph glyph-name="Ecaron" unicode="&#x11a;" horiz-adv-x="683" 
d="M520 884v-4l-128 -119h-40l-129 118v5h53l96 -87l96 87h52zM195 48h387l1 109h47v-157h-580v47h95v607h-93v46h563v-156h-47l-1 109h-372v-275h365v-47h-365v-283z" />
    <glyph glyph-name="ecaron" unicode="&#x11b;" horiz-adv-x="588" 
d="M450 692v-3l-126 -118h-39l-127 117v4h51l95 -86l95 86h51zM480 116l34 -28q-35 -45 -93.5 -69.5t-120.5 -24.5q-107 0 -179 69t-72 184q0 112 71 183.5t178 71.5q114 0 186.5 -70t59.5 -206h-447q7 -89 65 -138t139 -49q51 0 101.5 21t77.5 56zM97 268h403
q1 91 -53 140.5t-148 49.5q-82 0 -138 -50.5t-64 -139.5z" />
    <glyph glyph-name="Gcircumflex" unicode="&#x11c;" horiz-adv-x="743" 
d="M264 767v3l128 122h40l128 -121v-4h-52l-96 89l-96 -89h-52zM417 709q144 0 244 -86q0 -42 -2 -140h-45l-1 118q-81 60 -196 60q-147 0 -229 -90t-82 -222q0 -131 82.5 -220.5t228.5 -89.5q59 0 116 23t97 64v179h-238v46h284v-247q-104 -113 -259 -113q-170 0 -265 103
t-95 254q-1 163 99 262t261 99z" />
    <glyph glyph-name="gcircumflex" unicode="&#x11d;" horiz-adv-x="610" 
d="M163 578v3l128 120h40l128 -119v-4h-52l-97 88l-95 -88h-52zM98 264q0 -96 58 -146.5t150 -50.5t149.5 57.5t57.5 138.5q0 97 -61 147t-146 50q-83 0 -145.5 -51t-62.5 -145zM63 -97h46q-2 -71 56.5 -110.5t141.5 -40.5q82 -1 141 34t59 101q0 72 -59.5 104t-141.5 32
q-114 0 -184.5 64t-70.5 177t77 177t178 64q91 0 152 -43l51 60l34 -26l-52 -62q33 -36 50.5 -73t17.5 -98q0 -68 -41.5 -132t-116.5 -81q70 -16 112 -57t42 -106q0 -86 -74 -134t-175 -47q-105 0 -175.5 52t-67.5 145z" />
    <glyph glyph-name="Gbreve" unicode="&#x11e;" horiz-adv-x="743" 
d="M535 890q1 -51 -34.5 -80t-87.5 -30q-54 0 -89.5 27.5t-36.5 82.5h42q0 -34 23.5 -54t60.5 -19q36 0 59.5 20t24.5 53h38zM417 709q145 0 244 -86q0 -23 -0.5 -69t-0.5 -71h-46v118q-82 60 -197 60q-148 0 -229.5 -90.5t-80.5 -221.5q0 -131 82 -220.5t229 -89.5
q58 0 115 23t98 64v179h-238v46h283v-247q-102 -113 -259 -113q-170 0 -265 103t-95 254q-1 163 99.5 262t260.5 99z" />
    <glyph glyph-name="gbreve" unicode="&#x11f;" horiz-adv-x="610" 
d="M313 632q35 1 58 21t24 53h39q1 -52 -34.5 -81.5t-86.5 -30.5q-53 0 -89 28.5t-37 83.5h40q0 -35 24 -55t62 -19zM98 264q1 -97 59 -147.5t150 -50.5q91 0 148.5 58t57.5 139q0 97 -61 147t-146 50q-83 0 -145.5 -51t-62.5 -145zM63 -97h45q-1 -73 57.5 -112t141.5 -40
q82 -1 141 34t59 102q0 72 -59.5 104t-141.5 32q-114 0 -184.5 64t-70.5 177t77 177t178 64q91 0 152 -43l51 60l34 -26l-52 -62q33 -36 50.5 -72.5t17.5 -97.5q0 -68 -41 -132t-116 -82q70 -15 111.5 -56t41.5 -106q0 -86 -74 -134.5t-175 -47.5q-105 1 -175.5 53
t-67.5 144z" />
    <glyph glyph-name="Gdotaccent" unicode="&#x120;" horiz-adv-x="743" 
d="M413 778q-17 0 -29 10.5t-12 28.5q0 19 12.5 29t29.5 10t29 -10t12 -29t-12.5 -29t-29.5 -10zM417 709q145 0 244 -86q0 -23 -0.5 -69t-0.5 -71h-46v118q-82 60 -197 60q-148 0 -229.5 -90.5t-80.5 -221.5q0 -131 82 -220.5t229 -89.5q58 0 115 23t98 64v179h-238v46h283
v-247q-102 -113 -259 -113q-170 0 -265 103t-95 254q-1 163 99.5 262t260.5 99z" />
    <glyph glyph-name="gdotaccent" unicode="&#x121;" horiz-adv-x="610" 
d="M321 619q-17 0 -29 10.5t-12 29.5q0 18 12 28t29 10t29 -10t12 -28q0 -19 -12.5 -29.5t-28.5 -10.5zM98 265q0 -96 58 -146t150 -50t149 57.5t57 138.5q0 96 -60.5 146t-145.5 50q-83 0 -145.5 -50.5t-62.5 -145.5zM63 -97h46q-3 -71 56 -111t142 -40q81 -1 140.5 34.5
t59.5 101.5q0 72 -59.5 104t-141.5 32q-114 0 -184.5 64t-70.5 177t77 177t179 64q90 0 151 -43l52 59l34 -26l-52 -61q32 -35 49.5 -72.5t17.5 -98.5q0 -68 -41 -132t-116 -82q70 -15 112 -56t42 -106q0 -86 -74 -134t-175 -48q-105 1 -175.5 53t-68.5 144z" />
    <glyph glyph-name="Gcommaaccent" unicode="&#x122;" horiz-adv-x="742" 
d="M416 709q145 0 244 -86q0 -23 -0.5 -69t-0.5 -71h-45l-1 118q-82 60 -197 60q-148 0 -229.5 -90.5t-80.5 -221.5q0 -131 82.5 -220.5t228.5 -89.5q59 0 116 23t97 64v179h-238v46h284v-247q-104 -113 -259 -113q-170 0 -265 103t-95 254q-1 163 99 262t260 99zM399 -226
h-38l30 74q-24 5 -24 31q0 23 18.5 32t36.5 -0.5t18 -32.5q0 -6 -17.5 -49.5t-23.5 -54.5z" />
    <glyph glyph-name="gcommaaccent" unicode="&#x123;" horiz-adv-x="610" 
d="M358 722l-30 -74q24 -7 24 -31q0 -23 -18 -32t-36 0.5t-18 32.5q0 6 17.5 49.5t22.5 54.5h38zM98 264q1 -97 59 -147.5t150 -50.5q91 0 148.5 58t57.5 139q0 97 -61 147t-146 50q-83 0 -145.5 -51t-62.5 -145zM63 -97h45q-1 -73 57.5 -112t141.5 -40q82 -1 141 34t59 102
q0 72 -59.5 104t-141.5 32q-114 0 -184.5 64t-70.5 177t77 177t178 64q91 0 152 -43l51 60l34 -26l-52 -62q33 -36 50.5 -72.5t17.5 -97.5q0 -68 -41 -132t-116 -82q70 -15 111.5 -56t41.5 -106q0 -86 -74 -134.5t-175 -47.5q-105 1 -175.5 53t-67.5 144z" />
    <glyph glyph-name="Hcircumflex" unicode="&#x124;" horiz-adv-x="824" 
d="M261 773v4l128 121h40l129 -121v-4h-52l-97 89l-96 -89h-52zM680 47h94v-47h-236v47h91v283h-435v-283h92v-47h-236v47h94v606h-93v47h233v-47h-90v-277h435v277h-90v47h233v-47h-92v-606z" />
    <glyph glyph-name="hcircumflex" unicode="&#x125;" horiz-adv-x="645" 
d="M146 763v3l127 121h40l128 -120v-4h-53l-95 87l-95 -87h-52zM111 44v613h-92v43h138v-309q56 109 186 109q101 0 151 -56t50 -159v-241h90v-44h-218v44h81v240q0 169 -158 172q-75 2 -128.5 -51t-53.5 -130v-231h85v-44h-224v44h93z" />
    <glyph glyph-name="Hbar" unicode="&#x126;" horiz-adv-x="825" 
d="M194 376h435v124h-435v-124zM680 47h94v-47h-236v47h91v283h-435v-283h92v-47h-236v47h94v453h-80v38h80v115h-93v47h233v-47h-90v-115h435v115h-90v47h233v-47h-92v-115h77v-38h-77v-453z" />
    <glyph glyph-name="hbar" unicode="&#x127;" horiz-adv-x="645" 
d="M40 547v36h71v74h-92v43h138v-117h97v-36h-97v-156q56 109 186 109q101 0 151 -56t50 -159v-241h90v-44h-218v44h81v240q0 169 -158 172q-75 2 -128.5 -51t-53.5 -130v-231h85v-44h-224v44h93v503h-71z" />
    <glyph glyph-name="Itilde" unicode="&#x128;" horiz-adv-x="340" 
d="M158 836q1 0 22.5 -11.5t23.5 -11.5q47 -25 64 26l31 -13q-10 -43 -39.5 -57t-67.5 5q-2 1 -23 12.5t-22 11.5q-49 26 -66 -25l-31 14q10 40 38.5 54t69.5 -5zM195 47h96v-47h-241v47h94v606h-93v47h237v-47h-93v-606z" />
    <glyph glyph-name="itilde" unicode="&#x129;" horiz-adv-x="285" 
d="M120 674q2 -1 19 -12t19 -11q41 -25 55 25l31 -12q-9 -43 -36 -57t-59 5q-21 14 -37 22q-42 26 -56 -22l-30 12q8 40 34 54t60 -4zM35 451v44h137v-450h94v-45h-234v45h93v406h-90z" />
    <glyph glyph-name="Imacron" unicode="&#x12a;" horiz-adv-x="340" 
d="M65 768v42h209v-42h-209zM195 47h96v-47h-241v47h94v606h-93v47h237v-47h-93v-606z" />
    <glyph glyph-name="imacron" unicode="&#x12b;" horiz-adv-x="285" 
d="M53 632v42h186v-42h-186zM35 451v44h137v-450h94v-45h-234v45h94v406h-91z" />
    <glyph glyph-name="Ibreve" unicode="&#x12c;" horiz-adv-x="340" 
d="M288 866q1 -52 -32.5 -79t-85.5 -28q-53 0 -87 26.5t-35 81.5h40q0 -34 22.5 -52t59.5 -17q35 0 56.5 18t22.5 50h39zM195 47h96v-47h-241v47h95v606h-93v47h236v-47h-93v-606z" />
    <glyph glyph-name="ibreve" unicode="&#x12d;" horiz-adv-x="285" 
d="M212 690h38q0 -51 -30 -75.5t-75 -24.5t-74.5 25t-29.5 76h38q0 -60 66 -62q67 2 67 61zM35 495h137v-450h94v-45h-234v45h94v406h-91v44z" />
    <glyph glyph-name="Iogonek" unicode="&#x12e;" horiz-adv-x="340" 
d="M51 700h237v-47h-93v-606h96v-47q-57 0 -69 -4q-55 -11 -74.5 -45.5t-9.5 -62.5q9 -26 45 -29t75 21l9 -40q-51 -29 -105 -21.5t-68 53.5q-10 31 6 71t57 57h-107v47h94v606h-93v47z" />
    <glyph glyph-name="iogonek" unicode="&#x12f;" horiz-adv-x="285" 
d="M148 619q-15 0 -26 9t-11 28q0 18 11.5 27t27.5 9q15 0 26 -9t11 -28q0 -36 -39 -36zM135 0h-103v45h94v406h-91v44h137v-450h94v-45h-48q-34 -4 -57.5 -18t-31.5 -31t-11.5 -34t2.5 -27q9 -25 43 -27.5t71 19.5l9 -38q-49 -28 -101.5 -20.5t-65.5 51.5q-10 29 5.5 69.5
t53.5 55.5z" />
    <glyph glyph-name="Idotaccent" unicode="&#x130;" horiz-adv-x="340" 
d="M132 799q0 18 12 28t29 10q16 0 27.5 -10.5t11.5 -28.5q0 -19 -12 -29t-28 -10q-17 1 -28.5 11t-11.5 29zM195 47h96v-47h-241v47h94v606h-93v47h237v-47h-93v-606z" />
    <glyph glyph-name="dotlessi" unicode="&#x131;" horiz-adv-x="285" 
d="M35 451v44h137v-450h94v-45h-234v45h94v406h-91z" />
    <glyph glyph-name="IJ" unicode="&#x132;" horiz-adv-x="1010" 
d="M195 47h96v-47h-241v47h94v606h-93v47h237v-47h-93v-606zM590 653v47h317v-437q1 -126 -76 -200t-199 -74q-119 0 -194.5 76.5t-75.5 197.5h48q0 -99 63 -162.5t159 -63.5q100 0 162.5 60t62.5 166v390h-267z" />
    <glyph glyph-name="ij" unicode="&#x133;" horiz-adv-x="532" 
d="M148 619q-15 0 -26 9t-11 28q0 18 11.5 27t27.5 9q15 0 26 -9t11 -28q0 -36 -39 -36zM35 495h137v-450h94v-45h-234v45h94v406h-91v44zM423 620q-15 0 -26 9t-11 28q0 18 11.5 27t26.5 9t26.5 -9t11.5 -28t-11.5 -27.5t-27.5 -8.5zM305 495h142v-571q0 -38 -5.5 -66
t-19 -52t-40.5 -36.5t-66 -12.5q-45 0 -88 25l15 39q34 -19 73 -19q52 1 67.5 31.5t15.5 90.5v526h-94v45z" />
    <glyph glyph-name="Jcircumflex" unicode="&#x134;" horiz-adv-x="684" 
d="M245 768v4l128 121h40l129 -121v-4h-52l-97 89l-96 -89h-52zM236 652v48h345v-437q0 -126 -77 -200t-199 -74q-120 0 -197.5 76.5t-77.5 197.5h48q0 -99 64.5 -162t162.5 -63q100 0 162.5 59.5t62.5 165.5v389h-294z" />
    <glyph glyph-name="jcircumflex" unicode="&#x135;" horiz-adv-x="247" 
d="M129 694l100 -120v-4h-46l-72 86l-76 -86h-46v4l106 120h34zM20 495h142v-571q0 -38 -5.5 -66t-19 -52t-40.5 -36.5t-66 -12.5q-45 0 -89 25l15 39q35 -19 74 -19q52 1 67.5 31.5t15.5 90.5v526h-94v45z" />
    <glyph glyph-name="Kcommaaccent" unicode="&#x136;" horiz-adv-x="717" 
d="M358 -217l31 75q-25 5 -25 31q0 23 19 32.5t37.5 0t18.5 -32.5q0 -8 -18 -51.5t-24 -54.5h-39zM194 45h101v-45h-245v45h94v608h-93v47h231v-47h-88v-328l350 328h-94v47h239v-47h-77l-278 -262l260 -345h111v-46h-167v41l-239 318l-105 -97v-217z" />
    <glyph glyph-name="kcommaaccent" unicode="&#x137;" horiz-adv-x="548" 
d="M158 202v-157h83v-45h-221v45h91v611h-90v44h137v-446l138 122l90 76l-74 1v42h200v-43h-63l-189 -165l178 -242h89v-45h-141v36l-161 221zM252 -210l30 71q-24 5 -24 30q0 22 18 31t35.5 -0.5t17.5 -31.5q0 -8 -17 -49t-23 -51h-37z" />
    <glyph glyph-name="kgreenlandic" unicode="&#x138;" horiz-adv-x="561" 
d="M124 452h-90v44h137v-242l138 122l90 76l-74 1v42h200v-43h-63l-189 -165l178 -242h89v-45h-141v36l-161 221l-67 -55v-157h83v-45h-221v45h91v407z" />
    <glyph glyph-name="Lacute" unicode="&#x139;" horiz-adv-x="620" 
d="M191 760h-44v3l75 119h58zM144 653h-93v47h233v-47h-90v-606h349l1 112h46v-159h-539v46h93v607z" />
    <glyph glyph-name="lacute" unicode="&#x13a;" horiz-adv-x="272" 
d="M104 761l68 115h53l-79 -119h-42v4zM159 700v-655h93v-45h-233v45h94v611h-91v44h137z" />
    <glyph glyph-name="Lcommaaccent" unicode="&#x13b;" horiz-adv-x="620" 
d="M144 653h-93v47h233v-47h-90v-606h349l1 112h46v-159h-539v46h93v607zM294 -219l30 74q-24 5 -24 30q0 23 18 32t36.5 0t18.5 -32q0 -6 -18 -50.5t-23 -53.5h-38z" />
    <glyph glyph-name="lcommaaccent" unicode="&#x13c;" horiz-adv-x="272" 
d="M22 656v44h137v-655h93v-45h-232v45h93v611h-91zM93 -218l29 73q-23 5 -23 30q0 23 17.5 32t35.5 0t18 -32q0 -6 -17.5 -50.5t-22.5 -52.5h-37z" />
    <glyph glyph-name="Lcaron" unicode="&#x13d;" horiz-adv-x="620" 
d="M144 653h-93v47h233v-47h-90v-606h349l1 112h46v-159h-539v46h93v607zM459 549h-42l41 151h53z" />
    <glyph glyph-name="lcaron" unicode="&#x13e;" horiz-adv-x="272" 
d="M209 557l33 144h47l-43 -144h-37zM22 656v44h137v-655h93v-45h-232v45h93v611h-91z" />
    <glyph glyph-name="Ldot" unicode="&#x13f;" horiz-adv-x="620" 
d="M194 47h349l1 112h46v-159h-539v46h93v607h-93v47h233v-47h-90v-606zM386 316q-17 0 -29 10.5t-12 29.5t12.5 29.5t29.5 10.5q16 0 28 -10.5t12 -29.5q0 -20 -12 -30t-29 -10z" />
    <glyph glyph-name="ldot" unicode="&#x140;" horiz-adv-x="272" 
d="M22 656v44h137v-655h93v-45h-232v45h93v611h-91zM270 303q-17 0 -29 10.5t-12 29.5t12.5 29.5t29.5 10.5q16 0 28 -10.5t12 -29.5q0 -20 -12 -30t-29 -10z" />
    <glyph glyph-name="Lslash" unicode="&#x141;" horiz-adv-x="620" 
d="M144 653h-93v47h233v-47h-90v-278l104 42v-43l-104 -43v-284h349l1 112h46v-159h-539v46h93v265l-78 -30v42l78 31v299z" />
    <glyph glyph-name="lslash" unicode="&#x142;" horiz-adv-x="278" 
d="M25 656v44h137v-332l83 33v-43l-83 -32v-281h93v-45h-232v45h93v263l-77 -29v41l77 30v306h-91z" />
    <glyph glyph-name="Nacute" unicode="&#x143;" horiz-adv-x="826" 
d="M374 762l77 128h60l-91 -132h-46v4zM195 596v-550h92v-46h-236v46h93v607h-92v47h125l463 -605v558h-91v47h233v-47h-92v-653h-37z" />
    <glyph glyph-name="nacute" unicode="&#x144;" horiz-adv-x="671" 
d="M364 580h-42v3l68 109h55zM170 275v-231h86v-44h-223v44h90v406h-90v44h135l2 -102q30 56 79 83t106 28q103 0 158.5 -57.5t55.5 -161.5v-240h91v-44h-221v44h82v239q0 86 -43 130.5t-125 44.5q-78 -1 -130.5 -53t-52.5 -130z" />
    <glyph glyph-name="Ncommaaccent" unicode="&#x145;" horiz-adv-x="826" 
d="M195 596v-550h92v-46h-236v46h93v607h-92v47h125l463 -605v558h-91v47h233v-47h-92v-653h-37zM376 -210l31 80q-25 5 -25 31q0 23 19 32.5t37.5 0t18.5 -32.5q0 -6 -18.5 -54.5t-23.5 -56.5h-39z" />
    <glyph glyph-name="ncommaaccent" unicode="&#x146;" horiz-adv-x="671" 
d="M170 275v-231h86v-44h-223v44h90v406h-90v44h135l2 -102q30 56 79 83t106 28q103 0 158.5 -57.5t55.5 -161.5v-240h91v-44h-221v44h82v239q0 86 -43 130.5t-125 44.5q-78 -1 -130.5 -53t-52.5 -130zM305 -206l30 73q-23 5 -23 29q0 23 18 32t35.5 0t17.5 -32
q0 -6 -17.5 -49.5t-22.5 -52.5h-38z" />
    <glyph glyph-name="Ncaron" unicode="&#x147;" horiz-adv-x="826" 
d="M551 880v-3l-129 -122h-40l-129 121v4h53l96 -88l97 88h52zM287 0h-236v46h93v607h-92v47h125l463 -605v558h-91v47h233v-47h-92v-653h-37l-458 596v-550h92v-46z" />
    <glyph glyph-name="ncaron" unicode="&#x148;" horiz-adv-x="671" 
d="M494 700v-3l-125 -116h-39l-124 115v4h50l94 -85l93 85h51zM170 275v-231h86v-44h-223v44h90v406h-90v44h135l2 -102q30 56 79 83t106 28q103 0 158.5 -57.5t55.5 -161.5v-240h91v-44h-221v44h82v239q0 86 -43 130.5t-125 44.5q-78 -1 -130.5 -53t-52.5 -130z" />
    <glyph glyph-name="napostrophe" unicode="&#x149;" horiz-adv-x="671" 
d="M170 275v-231h86v-44h-223v44h90v406h-90v44h135l2 -102q30 56 79 83t106 28q103 0 158.5 -57.5t55.5 -161.5v-240h91v-44h-221v44h82v239q0 86 -43 130.5t-125 44.5q-78 -1 -130.5 -53t-52.5 -130z" />
    <glyph glyph-name="Eng" unicode="&#x14a;" horiz-adv-x="826" 
d="M287 0h-236v46h93v607h-92v47h125l463 -605v558h-91v47h233v-47h-92v-687q1 -79 -27 -121.5t-104 -42.5q-48 0 -87 29l16 39q30 -22 71 -22q52 1 68.5 30t16.5 88v45l-449 585v-550h92v-46z" />
    <glyph glyph-name="eng" unicode="&#x14b;" horiz-adv-x="645" 
d="M571 -12q1 -81 -25 -123t-99 -43q-46 -1 -87 26l19 38q30 -19 67 -19q48 3 62 30.5t14 90.5v295q0 86 -44 130.5t-126 44.5q-78 -1 -130 -54t-52 -129v-231h86v-44h-223v44h90v406h-90v43h135l2 -101q29 55 79.5 82.5t107.5 28.5q102 0 158 -58.5t56 -160.5v-296z" />
    <glyph glyph-name="Omacron" unicode="&#x14c;" horiz-adv-x="816" 
d="M257 803v43h306v-43h-306zM408 710q86 0 154.5 -30t111 -81t65 -115t22.5 -135q-1 -95 -39 -175t-119.5 -132.5t-194.5 -52.5q-85 0 -153.5 30.5t-111.5 81.5t-65.5 115t-22.5 135q0 69 22.5 132.5t65 114.5t111 81.5t154.5 30.5zM711 349q0 131 -79.5 222t-223.5 92
q-73 0 -132 -26t-95.5 -70.5t-55.5 -100t-19 -116.5q0 -127 80 -220t222 -93q96 0 166.5 45.5t103.5 115t33 151.5z" />
    <glyph glyph-name="omacron" unicode="&#x14d;" horiz-adv-x="605" 
d="M166 647v41h272v-41h-272zM50 246q0 116 73 186.5t180 70.5t179.5 -71t72.5 -186t-72.5 -184t-180.5 -69q-107 0 -179.5 69t-72.5 184zM508 246q0 96 -59.5 154.5t-146.5 58.5q-86 0 -145.5 -58.5t-59.5 -154.5q0 -94 59 -151t146 -57t146.5 57t59.5 151z" />
    <glyph glyph-name="Obreve" unicode="&#x14e;" horiz-adv-x="816" 
d="M534 891q1 -52 -34.5 -80.5t-87.5 -29.5t-88.5 28.5t-37.5 81.5h40q0 -34 24.5 -54t61.5 -19q35 1 58.5 20.5t24.5 52.5h39zM408 710q86 0 154.5 -30t111 -81t65 -115t22.5 -135q-1 -95 -39 -175t-119.5 -132.5t-194.5 -52.5q-85 0 -153.5 30.5t-111.5 81.5t-65.5 115
t-22.5 135q0 69 22.5 132.5t65 114.5t111 81.5t154.5 30.5zM711 349q0 131 -79.5 222t-223.5 92q-73 0 -132 -26t-95.5 -70.5t-55.5 -100t-19 -116.5q0 -127 80 -220t222 -93q96 0 166.5 45.5t103.5 115t33 151.5z" />
    <glyph glyph-name="obreve" unicode="&#x14f;" horiz-adv-x="605" 
d="M387 695l39 -1q0 -52 -35.5 -81t-86.5 -29q-52 -1 -88 28.5t-37 82.5h39q0 -34 24.5 -54.5t61.5 -19.5q35 1 58.5 21t24.5 53zM50 246q0 116 73 186.5t180 70.5t179.5 -71t72.5 -186t-72.5 -184t-180.5 -69q-107 0 -179.5 69t-72.5 184zM508 246q0 96 -59.5 154.5
t-146.5 58.5q-86 0 -145.5 -58.5t-59.5 -154.5q0 -94 59 -151t146 -57t146.5 57t59.5 151z" />
    <glyph glyph-name="Ohungarumlaut" unicode="&#x150;" horiz-adv-x="816" 
d="M484 777h-44l70 107h56zM353 777h-44l69 107h56zM408 710q86 0 154.5 -30t111 -81t65 -115t22.5 -135q-1 -95 -39 -175t-119.5 -132.5t-194.5 -52.5q-85 0 -153.5 30.5t-111.5 81.5t-65.5 115t-22.5 135q0 69 22.5 132.5t65 114.5t111 81.5t154.5 30.5zM711 349
q0 131 -79.5 222t-223.5 92q-73 0 -132 -26t-95.5 -70.5t-55.5 -100t-19 -116.5q0 -127 80 -220t222 -93q96 0 166.5 45.5t103.5 115t33 151.5z" />
    <glyph glyph-name="ohungarumlaut" unicode="&#x151;" horiz-adv-x="605" 
d="M205 590l69 102h55l-80 -102h-44zM336 590l69 102h54l-80 -102h-43zM50 246q0 116 73 186.5t180 70.5t179.5 -71t72.5 -186t-72.5 -184t-180.5 -69q-107 0 -179.5 69t-72.5 184zM508 246q0 96 -59.5 154.5t-146.5 58.5q-86 0 -145.5 -58.5t-59.5 -154.5q0 -94 59 -151
t146 -57t146.5 57t59.5 151z" />
    <glyph glyph-name="OE" unicode="&#x152;" horiz-adv-x="944" 
d="M478 44v614q-34 6 -69 6q-146 0 -224.5 -89t-77.5 -225q1 -135 79.5 -223t222.5 -88q32 0 69 5zM892 0h-414q-4 0 -17.5 -2t-27 -3t-24.5 -1q-169 0 -261 102t-92 254q0 154 91.5 255t261.5 101q37 0 70 -6h396v-155h-45l-1 110h-307v-273h298v-45h-298v-290h324l1 109
h45v-156z" />
    <glyph glyph-name="oe" unicode="&#x153;" horiz-adv-x="1037" 
d="M506 246q0 94 -58.5 153t-145.5 59q-85 0 -144.5 -60t-59.5 -152q0 -94 58.5 -151t145.5 -57t145.5 57t58.5 151zM549 268l401 -1q1 91 -53 141t-148 50q-82 0 -137.5 -50.5t-62.5 -139.5zM930 116l33 -28q-35 -46 -92.5 -70t-120.5 -24q-77 0 -137.5 39.5t-86.5 109.5
q-27 -72 -87 -111t-138 -39q-107 0 -179 69t-72 184q0 116 72.5 186.5t179.5 70.5q78 0 139 -41t86 -113q24 70 83.5 111.5t137.5 41.5q114 0 186.5 -70t59.5 -206h-445q7 -89 64 -138t138 -49q51 0 101.5 21t77.5 56z" />
    <glyph glyph-name="Racute" unicode="&#x154;" horiz-adv-x="738" 
d="M321 772l75 118h59l-89 -122h-45v4zM194 318h246q86 0 134 44t48 124q0 70 -47 118t-128 48h-253v-334zM532 43l-160 230h-178v-225h106v-48h-249v48h94v605h-93v47h395q105 0 164.5 -60.5t60.5 -152.5q1 -102 -60 -156.5t-165 -57.5h-18l161 -225h109v-48h-167v43z" />
    <glyph glyph-name="racute" unicode="&#x155;" horiz-adv-x="449" 
d="M258 583h-41v4l67 108h54zM122 43v407h-91v44h133l3 -97q21 47 66.5 74.5t101.5 27.5t103 -28l-20 -40q-42 24 -85 24q-72 -1 -117.5 -49t-45.5 -118v-245h89v-43h-224v43h87z" />
    <glyph glyph-name="Rcommaaccent" unicode="&#x156;" horiz-adv-x="738" 
d="M362 -217l31 74q-25 7 -25 31q0 23 19 32t37.5 0t18.5 -32q0 -6 -18.5 -51t-23.5 -54h-39zM194 318h246q86 0 134 44t48 124q0 70 -47 118t-128 48h-253v-334zM532 43l-160 230h-178v-225h106v-48h-249v48h94v605h-93v47h395q105 0 164.5 -60.5t60.5 -152.5
q1 -102 -60 -156.5t-165 -57.5h-18l161 -225h109v-48h-167v43z" />
    <glyph glyph-name="rcommaaccent" unicode="&#x157;" horiz-adv-x="449" 
d="M122 43v407h-91v44h133l3 -97q21 47 66.5 74.5t101.5 27.5t103 -28l-20 -40q-42 24 -85 24q-72 -1 -117.5 -49t-45.5 -118v-245h89v-43h-224v43h87zM105 -208l27 70q-23 5 -23 29q0 22 17 31t34.5 0t17.5 -31q0 -6 -16.5 -48.5t-21.5 -50.5h-35z" />
    <glyph glyph-name="Rcaron" unicode="&#x158;" horiz-adv-x="738" 
d="M214 885v4h53l96 -88l96 88h52v-3l-128 -121h-40zM194 318h246q86 0 134 44t48 124q0 70 -47 118t-128 48h-253v-334zM532 43l-160 230h-178v-225h106v-48h-249v48h94v605h-93v47h395q105 0 164.5 -60.5t60.5 -152.5q1 -102 -60 -156.5t-165 -57.5h-18l161 -225h109v-48
h-167v43z" />
    <glyph glyph-name="rcaron" unicode="&#x159;" horiz-adv-x="449" 
d="M386 696v-3l-120 -115h-38l-121 115v3h50l90 -82l90 82h49zM122 43v407h-91v44h133l3 -97q21 47 66.5 74.5t101.5 27.5t103 -28l-20 -40q-42 24 -85 24q-72 -1 -117.5 -49t-45.5 -118v-245h89v-43h-224v43h87z" />
    <glyph glyph-name="Sacute" unicode="&#x15a;" horiz-adv-x="658" 
d="M305 783l74 118h59l-89 -122h-44v4zM323 713q160 -3 249 -79q0 -23 -0.5 -66.5t-0.5 -67.5h-46l-1 111q-75 54 -202 56q-85 1 -145 -35.5t-60 -108.5q0 -27 12 -48.5t29.5 -35t48.5 -24.5t56.5 -17t65.5 -14q43 -8 68.5 -13.5t63 -16t59.5 -24t44.5 -33.5t32.5 -48
t10 -63q0 -54 -25 -94.5t-67 -62t-88.5 -31.5t-98.5 -10q-159 0 -264 96q0 16 0.5 71t0.5 70h47v-116q91 -73 216 -73q37 0 72.5 6.5t73 21.5t60 46.5t22.5 75.5q0 31 -13 54.5t-34.5 38.5t-52 26t-60 17.5t-63.5 13.5q-8 1 -12 2q-47 9 -76.5 16t-67 21.5t-59 32.5
t-36.5 48t-15 68q0 65 38.5 109t94.5 62t123 18z" />
    <glyph glyph-name="sacute" unicode="&#x15b;" horiz-adv-x="504" 
d="M291 693h54l-79 -110h-42v4zM433 460l-3 -107h-42l-1 80q-58 29 -134 29q-67 1 -107.5 -22t-40.5 -72q0 -23 12 -39.5t36.5 -26.5t45.5 -14.5t57 -10.5q101 -16 137 -35q68 -34 67 -109q0 -50 -33 -83.5t-76.5 -46t-96.5 -12.5q-56 0 -100 13.5t-99 43.5l1 110h43l1 -81
q74 -41 156 -41q27 0 52 4.5t50 14.5t40 31t15 49q0 26 -12 44t-38 28.5t-49 15.5t-62 11q-32 5 -53 9t-50.5 14t-47.5 23t-31 36t-13 52q0 69 56 103t140 34q93 2 180 -45z" />
    <glyph glyph-name="Scircumflex" unicode="&#x15c;" horiz-adv-x="658" 
d="M188 783v3l129 123h40l130 -122v-4h-53l-97 90l-97 -90h-52zM112 109q91 -73 216 -73q37 0 72.5 6.5t73 21.5t60 46.5t22.5 75.5q0 31 -13 54.5t-34.5 38.5t-52 26t-60 17.5t-63.5 13.5q-8 1 -12 2q-47 9 -76.5 16t-67 21.5t-59 32.5t-36.5 48t-15 68q0 65 38.5 109
t94.5 62t123 18q160 -3 249 -79q0 -23 -0.5 -66.5t-0.5 -67.5h-46l-1 111q-75 54 -202 56q-85 1 -145 -35.5t-60 -108.5q0 -27 12 -48.5t29.5 -35t48.5 -24.5t56.5 -17t65.5 -14q43 -8 68.5 -13.5t63 -16t59.5 -24t44.5 -33.5t32.5 -48t10 -63q0 -54 -25 -94.5t-67 -62
t-88.5 -31.5t-98.5 -10q-159 0 -264 96q0 16 0.5 71t0.5 70h47v-116z" />
    <glyph glyph-name="scircumflex" unicode="&#x15d;" horiz-adv-x="504" 
d="M117 576v3l122 116h38l123 -115v-4h-50l-92 85l-91 -85h-50zM433 460l-3 -107h-42l-1 80q-58 29 -134 29q-67 1 -107.5 -22t-40.5 -72q0 -23 12 -39.5t36.5 -26.5t45.5 -14.5t57 -10.5q101 -16 137 -35q68 -34 67 -109q0 -50 -33 -83.5t-76.5 -46t-96.5 -12.5
q-56 0 -100 13.5t-99 43.5l1 110h43l1 -81q74 -41 156 -41q27 0 52 4.5t50 14.5t40 31t15 49q0 26 -12 44t-38 28.5t-49 15.5t-62 11q-32 5 -53 9t-50.5 14t-47.5 23t-31 36t-13 52q0 69 56 103t140 34q93 2 180 -45z" />
    <glyph glyph-name="Scedilla" unicode="&#x15e;" horiz-adv-x="658" 
d="M323 713q160 -3 249 -79q0 -23 -0.5 -66.5t-0.5 -67.5h-46l-1 111q-75 54 -202 56q-85 1 -145 -35.5t-60 -108.5q0 -27 12 -48.5t29.5 -35t48.5 -24.5t56.5 -17t65.5 -14q44 -8 69 -13t62.5 -16t59.5 -24.5t44.5 -33t32.5 -47.5t10 -64q-1 -95 -72.5 -143t-175.5 -54
l-12 -51q58 3 83.5 -29.5t13.5 -71.5q-9 -33 -37.5 -50t-64.5 -16q-65 2 -102 46l22 28q29 -36 80 -36t62 36q10 31 -16.5 50.5t-80.5 8.5l-7 5l20 79q-156 3 -256 96q0 16 0.5 71t0.5 70h47v-116q91 -73 216 -73q37 0 72.5 6.5t73 21.5t60 46.5t22.5 75.5q0 31 -13 54.5
t-34.5 38.5t-52 26t-60 17.5t-63.5 13.5q-8 1 -12 2q-47 9 -76.5 16t-67 21.5t-59 32.5t-36.5 48t-15 68q0 65 38.5 109t94.5 62t123 18z" />
    <glyph glyph-name="scedilla" unicode="&#x15f;" horiz-adv-x="505" 
d="M433 457l-3 -106h-42l-1 79q-56 28 -134 28q-67 1 -107 -21.5t-40 -70.5q0 -23 11.5 -39.5t36 -26.5t45.5 -14.5t57 -10.5q101 -16 137 -35q68 -34 67 -109q-1 -68 -54.5 -102t-130.5 -38l-10 -44q57 3 81 -27t13 -67q-9 -30 -35.5 -46t-59.5 -16q-62 0 -99 43l20 26
q29 -32 79 -34q46 0 56 35q10 28 -15.5 47t-76.5 8l-7 5l18 70q-88 2 -183 56v109h44l1 -80q70 -40 156 -40q37 0 69 7t59.5 30t27.5 60q0 26 -12 44t-37.5 28.5t-50 16t-61.5 10.5q-32 5 -53 9t-50.5 14t-47 23t-30.5 36t-13 52q0 69 55.5 102.5t139.5 33.5q93 2 180 -45z
" />
    <glyph glyph-name="Scaron" unicode="&#x160;" horiz-adv-x="658" 
d="M488 894v-3l-128 -112h-39l-129 111v4h53l96 -82l96 82h51zM112 109q91 -73 216 -73q37 0 72.5 6.5t73 21.5t60 46.5t22.5 75.5q0 31 -13 54.5t-34.5 38.5t-52 26t-60 17.5t-63.5 13.5q-8 1 -12 2q-47 9 -76.5 16t-67 21.5t-59 32.5t-36.5 48t-15 68q0 65 38.5 109
t94.5 62t123 18q160 -3 249 -79q0 -23 -0.5 -66.5t-0.5 -67.5h-46l-1 111q-75 54 -202 56q-85 1 -145 -35.5t-60 -108.5q0 -27 12 -48.5t29.5 -35t48.5 -24.5t56.5 -17t65.5 -14q43 -8 68.5 -13.5t63 -16t59.5 -24t44.5 -33.5t32.5 -48t10 -63q0 -54 -25 -94.5t-67 -62
t-88.5 -31.5t-98.5 -10q-159 0 -264 96q0 16 0.5 71t0.5 70h47v-116z" />
    <glyph glyph-name="scaron" unicode="&#x161;" horiz-adv-x="505" 
d="M398 688v-4l-119 -113h-37l-120 113v4h48l90 -84l91 84h47zM433 460l-2 -107h-42l-2 80q-56 29 -133 29q-67 1 -107.5 -22t-40.5 -72q0 -23 11.5 -39.5t36 -26.5t46 -14.5t57.5 -10.5q100 -16 136 -34q69 -35 68 -110q-1 -50 -33.5 -83.5t-76.5 -46t-96 -12.5
q-57 0 -101 13.5t-98 43.5v110h44l1 -81q74 -41 156 -41q37 0 69.5 7.5t60 31t27.5 60.5q0 21 -9.5 37t-22.5 25.5t-36.5 17t-43 11.5t-50.5 8q-32 5 -53 9t-50.5 14t-47 23t-30.5 36t-13 52q0 69 56 103t139 34q95 2 180 -45z" />
    <glyph glyph-name="Tcommaaccent" unicode="&#x162;" horiz-adv-x="622" 
d="M432 0h-101l-11 -53q59 5 84.5 -27.5t13.5 -72.5q-11 -39 -48.5 -55.5t-80 -8t-71.5 36.5l18 32q28 -32 78 -33.5t64 37.5q9 30 -18 50t-81 9l-5 5l19 80h-104v47h97v606h-205l-1 -112h-46v159h554v-159h-46l-1 112h-205v-606h96v-47z" />
    <glyph glyph-name="tcommaaccent" unicode="&#x163;" horiz-adv-x="363" 
d="M124 -163l23 25q26 -31 72 -33q46 0 57 37q8 27 -16 44t-73 7l-5 5l17 78q-49 12 -68 51t-19 109v293h-105v41h105v144l47 5v-149h168v-41h-168v-293q0 -62 17.5 -92.5t73.5 -30.5q37 0 83 22l16 -39q-52 -27 -98 -27q-11 0 -16 1l-12 -47q54 4 78 -24t14 -65
q-9 -30 -34.5 -46.5t-58.5 -16.5q-61 0 -98 42z" />
    <glyph glyph-name="Tcaron" unicode="&#x164;" horiz-adv-x="621" 
d="M461 887v-3l-130 -122h-40l-129 121v4h52l97 -90l98 90h52zM432 0h-243v47h96v606h-205l-1 -112h-45v159h553v-159h-46l-1 112h-204v-606h96v-47z" />
    <glyph glyph-name="tcaron" unicode="&#x165;" horiz-adv-x="362" 
d="M359 494h-38l41 153h48zM109 494v144l47 5v-149h115v-41h-115v-301q0 -57 18.5 -86t72.5 -29q37 0 83 22l17 -39q-52 -27 -99 -27q-76 0 -107.5 39.5t-31.5 119.5v301h-101v41h101z" />
    <glyph glyph-name="Tbar" unicode="&#x166;" horiz-adv-x="625" 
d="M161 330v42h126v281h-204l-1 -112h-46v159h553v-159h-45l-2 112h-204v-281h134v-42h-134v-283h96v-47h-243v47h96v283h-126z" />
    <glyph glyph-name="tbar" unicode="&#x167;" horiz-adv-x="365" 
d="M115 638l47 5v-149h168v-41h-168v-161h123v-37h-123v-103q0 -57 18.5 -86t72.5 -29q38 0 82 22l17 -39q-52 -27 -99 -27q-75 0 -106.5 39.5t-31.5 119.5v103h-80v37h80v161h-105v41h105v144z" />
    <glyph glyph-name="Utilde" unicode="&#x168;" horiz-adv-x="785" 
d="M300 785l-32 14q10 40 39 54t70 -4q2 -1 24 -12.5t23 -11.5q49 -24 65 27l32 -13q-11 -43 -40.5 -57t-67.5 5q-2 1 -24 12.5t-23 11.5q-51 24 -66 -26zM610 653h-93v47h233v-47h-91v-389q0 -124 -74.5 -198.5t-191.5 -74.5q-116 0 -191.5 74.5t-75.5 198.5v389h-91v47
h233v-47h-93v-389q0 -107 63 -166.5t155 -59.5t154.5 59.5t62.5 167.5v388z" />
    <glyph glyph-name="utilde" unicode="&#x169;" horiz-adv-x="648" 
d="M292 682q2 0 23.5 -11.5t23.5 -12.5q49 -24 64 27l33 -13q-10 -43 -40.5 -57t-68.5 5q-1 0 -22.5 12t-23.5 13q-51 24 -66 -26l-32 14q10 40 39 54t70 -5zM538 494v-451h91v-43h-132l-4 100q-59 -106 -187 -108q-102 0 -156.5 56.5t-54.5 160.5v241h-87v44h135v-283
q0 -174 168 -174q79 0 129 52t50 130v231h-88v44h136z" />
    <glyph glyph-name="Umacron" unicode="&#x16a;" horiz-adv-x="785" 
d="M269 776v43h245v-43h-245zM393 38q92 0 154.5 59.5t62.5 167.5v388h-93v47h233v-47h-91v-389q0 -124 -74.5 -198.5t-191.5 -74.5q-116 0 -191.5 74.5t-75.5 198.5v389h-91v47h233v-47h-93v-389q0 -107 63 -166.5t155 -59.5z" />
    <glyph glyph-name="umacron" unicode="&#x16b;" horiz-adv-x="648" 
d="M190 633v40h236v-40h-236zM538 494v-451h91v-43h-132l-4 100q-59 -106 -187 -108q-102 0 -156.5 56.5t-54.5 160.5v241h-87v44h135v-283q0 -174 168 -174q79 0 129 52t50 130v231h-88v44h136z" />
    <glyph glyph-name="Ubreve" unicode="&#x16c;" horiz-adv-x="785" 
d="M484 873h41q0 -54 -35.5 -82t-89.5 -29q-55 -1 -91 26.5t-37 84.5h41q0 -34 24.5 -54t62.5 -19q36 1 59.5 20.5t24.5 52.5zM610 653h-93v47h233v-47h-91v-389q0 -124 -74.5 -198.5t-191.5 -74.5q-116 0 -191.5 74.5t-75.5 198.5v389h-91v47h233v-47h-93v-389
q0 -107 63 -166.5t155 -59.5t154.5 59.5t62.5 167.5v388z" />
    <glyph glyph-name="ubreve" unicode="&#x16d;" horiz-adv-x="648" 
d="M422 690q0 -51 -35 -80t-86 -30q-53 -1 -89 27t-36 83h40q0 -34 24 -54t61 -19q35 1 58 21t24 52h39zM538 494v-451h91v-43h-132l-4 100q-59 -106 -187 -108q-102 0 -156.5 56.5t-54.5 160.5v241h-87v44h135v-283q0 -174 168 -174q79 0 129 52t50 130v231h-88v44h136z
" />
    <glyph glyph-name="Uring" unicode="&#x16e;" horiz-adv-x="785" 
d="M499 822q0 -41 -30 -64.5t-71 -23.5q-42 0 -71.5 23.5t-29.5 64.5q0 42 29.5 65t70.5 23t71.5 -23.5t30.5 -64.5zM462 822q0 26 -18 41.5t-47 15.5q-27 0 -45.5 -15.5t-18.5 -41.5q0 -25 18.5 -40.5t45.5 -15.5q28 0 46.5 15.5t18.5 40.5zM393 38q92 0 154.5 59.5
t62.5 167.5v388h-93v47h233v-47h-91v-389q0 -124 -74.5 -198.5t-191.5 -74.5q-116 0 -191.5 74.5t-75.5 198.5v389h-91v47h233v-47h-93v-389q0 -107 63 -166.5t155 -59.5z" />
    <glyph glyph-name="uring" unicode="&#x16f;" horiz-adv-x="648" 
d="M399 637q0 -41 -29.5 -64t-70.5 -23t-70 23.5t-29 63.5q0 41 29 64t69 23q41 0 71 -23.5t30 -63.5zM364 638q0 25 -18.5 40t-46.5 15t-46 -14.5t-18 -40.5q0 -25 18.5 -40t45.5 -15q28 0 46.5 15t18.5 40zM538 494v-451h91v-43h-132l-4 100q-59 -106 -187 -108
q-102 0 -156.5 56.5t-54.5 160.5v241h-87v44h135v-283q0 -174 168 -174q79 0 129 52t50 130v231h-88v44h136z" />
    <glyph glyph-name="Uhungarumlaut" unicode="&#x170;" horiz-adv-x="785" 
d="M341 768h-43l69 107h55zM472 768h-43l69 107h56zM393 38q92 0 154.5 59.5t62.5 167.5v388h-93v47h233v-47h-91v-389q0 -124 -74.5 -198.5t-191.5 -74.5q-116 0 -191.5 74.5t-75.5 198.5v389h-91v47h233v-47h-93v-389q0 -107 63 -166.5t155 -59.5z" />
    <glyph glyph-name="uhungarumlaut" unicode="&#x171;" horiz-adv-x="648" 
d="M372 594h-41l66 101h52zM248 594h-41l65 101h53zM538 494v-451h91v-43h-132l-4 100q-59 -106 -187 -108q-102 0 -156.5 56.5t-54.5 160.5v241h-87v44h135v-283q0 -174 168 -174q79 0 129 52t50 130v231h-88v44h136z" />
    <glyph glyph-name="Uogonek" unicode="&#x172;" horiz-adv-x="786" 
d="M393 38q92 0 154.5 59.5t62.5 167.5v388h-93v47h233v-47h-91v-389q0 -91 -41 -156.5t-111 -94.5q-36 -19 -46 -51t-1 -52q10 -27 45 -32t77 18l9 -41q-48 -28 -104 -19t-71 56q-8 20 -1 50.5t27 53.5q-32 -5 -49 -5q-116 0 -191.5 74.5t-75.5 198.5v389h-91v47h233v-47
h-93v-389q0 -107 63 -166.5t155 -59.5z" />
    <glyph glyph-name="uogonek" unicode="&#x173;" horiz-adv-x="648" 
d="M538 494v-451h91v-43q-1 0 -16 -1t-16 -1q-31 -11 -50 -31t-20.5 -37.5t1.5 -31.5q10 -25 42.5 -31t70.5 14l8 -36q-47 -24 -96.5 -14.5t-63.5 51.5q-10 28 5.5 63t54.5 55h-48l-7 100q-59 -106 -188 -108q-102 0 -156.5 56.5t-54.5 160.5v241h-87v44h135v-283
q0 -174 168 -174q79 0 129 52t50 130v231h-88v44h136z" />
    <glyph glyph-name="Wcircumflex" unicode="&#x174;" horiz-adv-x="1156" 
d="M424 771v4l130 122h41l131 -121v-5h-54l-98 90l-96 -90h-54zM1065 653l-231 -655h-53l-203 592l-202 -592h-53l-232 655h-80v47h227v-47h-90l202 -589l213 631h30l214 -631l201 589h-92v47h227v-47h-78z" />
    <glyph glyph-name="wcircumflex" unicode="&#x175;" horiz-adv-x="887" 
d="M294 578v3l128 120h40l129 -119v-4h-52l-97 89l-96 -89h-52zM250 -1l-161 452h-71v43h203v-43h-80l135 -395l152 438h33l151 -438l134 395h-82v43h205v-43h-72l-159 -452h-52l-70 197l-72 218l-72 -217l-71 -198h-51z" />
    <glyph glyph-name="Ycircumflex" unicode="&#x176;" horiz-adv-x="720" 
d="M215 774v4l128 120h40l130 -120v-4h-53l-97 89l-96 -89h-52zM385 47h96v-47h-242v47h96v233l-243 373h-77v47h225v-47h-88l96 -149l112 -176l115 178l95 147h-89v47h224v-47h-76l-244 -373v-233z" />
    <glyph glyph-name="ycircumflex" unicode="&#x177;" horiz-adv-x="607" 
d="M163 579v3l125 118h40l126 -117v-4h-52l-94 87l-93 -87h-52zM464 450h-83v44h207v-44h-71l-251 -604q-28 -69 -85 -85t-125 29l22 40q40 -32 80 -26t62 55l62 146l-191 445h-76v44h207v-44h-79l108 -250l57 -146l55 147z" />
    <glyph glyph-name="Ydieresis" unicode="&#x178;" horiz-adv-x="720" 
d="M246 769q-15 0 -26.5 10t-11.5 27q0 18 11.5 28t26.5 10t26 -9.5t11 -27.5t-11 -28t-26 -10zM476 769q-16 0 -27 9.5t-11 27.5t11.5 28t26.5 10t26.5 -10t11.5 -28t-11 -27.5t-27 -9.5zM240 653h-88l96 -149l112 -176l115 178l95 147h-89v47h224v-47h-76l-244 -373v-233
h96v-47h-242v47h96v233l-243 373h-77v47h225v-47z" />
    <glyph glyph-name="Zacute" unicode="&#x179;" horiz-adv-x="607" 
d="M278 776l75 119h60l-90 -123h-45v4zM115 652l-2 -106h-47v154h480v-23l-436 -628h400l3 113h45v-162h-522v25l435 627h-356z" />
    <glyph glyph-name="zacute" unicode="&#x17a;" horiz-adv-x="480" 
d="M254 578h-42v3l70 115h56zM101 450l-2 -89h-42v133h368v-21l-312 -429h274l2 96h42v-140h-393v16l317 434h-254z" />
    <glyph glyph-name="Zdotaccent" unicode="&#x17b;" horiz-adv-x="607" 
d="M317 787q-17 0 -29 10.5t-12 29.5t12.5 29.5t29.5 10.5t29 -10.5t12 -29.5t-12.5 -29.5t-29.5 -10.5zM115 652l-2 -106h-47v154h480v-23l-437 -628h401l2 113h46v-162h-523v25l435 627h-355z" />
    <glyph glyph-name="zdotaccent" unicode="&#x17c;" horiz-adv-x="480" 
d="M249 614q-17 0 -28.5 9.5t-11.5 27.5t12 28t28 10t28 -10t12 -28t-12 -27.5t-28 -9.5zM101 450l-2 -89h-42v133h368v-21l-312 -429h274l2 96h42v-140h-393v16l317 434h-254z" />
    <glyph glyph-name="Zcaron" unicode="&#x17d;" horiz-adv-x="607" 
d="M465 892v-4l-130 -116h-40l-131 116v4h53l98 -86l98 86h52zM115 652l-2 -106h-47v154h480v-23l-437 -628h401l3 113h45v-162h-522v25l435 627h-356z" />
    <glyph glyph-name="zcaron" unicode="&#x17e;" horiz-adv-x="480" 
d="M386 690v-4l-122 -114h-38l-122 114v4h50l91 -84l93 84h48zM101 450l-2 -89h-42v133h368v-21l-312 -429h274l2 96h42v-140h-393v16l317 434h-254z" />
    <glyph glyph-name="longs" unicode="&#x17f;" horiz-adv-x="313" 
d="M348 687l-14 -40q-27 14 -60 14q-49 0 -74 -28t-25 -93v-496h118v-44h-253v44h88v407h-101v41h101v48q0 163 145 164q39 0 75 -17z" />
    <glyph glyph-name="florin" unicode="&#x192;" horiz-adv-x="416" 
d="M197 -1q0 -78 -28.5 -120t-100.5 -44q-51 0 -95 33l22 34q33 -25 71 -25q45 1 64.5 29t19.5 94v448h-110v43h110v49q0 163 145 164q57 0 100 -34l-23 -34q-37 25 -77 25q-49 0 -73.5 -28t-24.5 -93v-49h164v-43h-164v-449z" />
    <glyph glyph-name="Aringacute" unicode="&#x1fa;" horiz-adv-x="801" 
d="M440 938h59l-81 -78h-45v3zM466 749q0 24 -18 38t-46 14q-27 0 -45 -14t-18 -38q0 -23 18.5 -36.5t44.5 -13.5q29 0 46.5 13t17.5 37zM229 259h344q-7 17 -76.5 177t-94.5 216zM502 750q0 -56 -60 -76l281 -627h74v-47h-223v47h93q-13 30 -37.5 85.5t-35.5 80.5h-385
l-73 -166h93v-47h-223v47h74l282 628q-58 21 -58 75q0 40 29 61.5t70 21.5q40 0 69.5 -22t29.5 -61z" />
    <glyph glyph-name="aringacute" unicode="&#x1fb;" horiz-adv-x="674" 
d="M292 745l72 89h55l-85 -92h-42v3zM223 626q0 41 28.5 63t67.5 22q38 0 66 -22.5t28 -61.5q0 -40 -28 -62.5t-67 -22.5t-67 22.5t-28 61.5zM318 681q-26 0 -44 -15t-18 -40q0 -24 18 -39t44 -15t43.5 14.5t17.5 39.5t-17.5 40t-43.5 15zM302 36q95 0 149 61.5t55 146.5
q1 87 -53.5 149t-152.5 62q-87 0 -145.5 -57t-58.5 -152q0 -96 59 -153t147 -57zM551 44h91v-44h-135q0 13 -1.5 52.5t-1.5 53.5q-28 -57 -84.5 -86t-119.5 -29q-107 0 -179 70t-72 186q0 115 72 184.5t179 69.5q65 0 122.5 -30.5t82.5 -86.5v110h136v-45h-90v-405z" />
    <glyph glyph-name="AEacute" unicode="&#x1fc;" horiz-adv-x="976" 
d="M559 761h-45v4l75 120h60zM290 295l223 -1l1 357zM363 653v47h545v-156h-47l-1 110h-299v-276h296v-47h-296v-283h314l1 109h47v-157h-499v47h89v205h-248l-125 -205h104v-47h-241v47h79l380 606h-99z" />
    <glyph glyph-name="aeacute" unicode="&#x1fd;" horiz-adv-x="1038" 
d="M623 702l-84 -114h-41v4l69 110h56zM548 267l402 -1q1 91 -53.5 141t-148.5 50q-82 0 -137 -50.5t-63 -139.5zM300 455q-87 0 -145.5 -57.5t-58.5 -152.5t59.5 -152t147.5 -57q98 0 151 60t53 149q-2 91 -56 150.5t-151 59.5zM545 0h-39v117q-26 -62 -83.5 -94
t-122.5 -31q-107 0 -179 69.5t-72 185.5q0 114 72 184t178 69q68 0 127.5 -34.5t80.5 -95.5v124h39v-111q30 56 83.5 87t120.5 31q112 0 185.5 -71t58.5 -204h-446q7 -89 64 -138t138 -49q51 0 102 21t78 56l33 -28q-35 -45 -93.5 -69.5t-120.5 -24.5q-67 0 -121 30t-83 86
v-110z" />
    <glyph glyph-name="Oslashacute" unicode="&#x1fe;" horiz-adv-x="815" 
d="M428 787h-45v3l75 120h60zM105 350q0 -80 34.5 -151.5t98.5 -113.5l322 540q-66 38 -153 38q-144 0 -223.5 -92.5t-78.5 -220.5zM710 349q0 76 -28.5 142t-82.5 109l-321 -537q60 -26 130 -26q142 0 222.5 92.5t79.5 219.5zM407 710q99 0 179 -43l55 93h53l-70 -117
q66 -49 101 -127t35 -167q-1 -95 -38.5 -175t-119.5 -132.5t-195 -52.5q-87 0 -155 31l-59 -99h-52l71 120q-76 48 -116.5 131t-40.5 179q0 68 21.5 130.5t63 114.5t110.5 83t157 31z" />
    <glyph glyph-name="oslashacute" unicode="&#x1ff;" horiz-adv-x="603" 
d="M320 587h-41v3l69 111h55zM180 76l214 361q-47 21 -92 21q-86 0 -145 -59t-59 -153q0 -113 82 -170zM431 413l-214 -357q35 -17 85 -17q87 0 146 56t59 150q0 107 -76 168zM101 -54l54 90q-104 69 -104 210q0 115 72 186t179 71q62 0 116 -26l37 62h50l-50 -85
q98 -73 98 -208q0 -115 -72 -184t-179 -69q-62 0 -110 22l-42 -69h-49z" />
    <glyph glyph-name="Scommaaccent" unicode="&#x218;" horiz-adv-x="658" 
d="M112 109q91 -73 216 -73q37 0 72.5 6.5t73 21.5t60 46.5t22.5 75.5q0 31 -13 54.5t-34.5 38.5t-52 26t-60 17.5t-63.5 13.5q-8 1 -12 2q-47 9 -76.5 16t-67 21.5t-59 32.5t-36.5 48t-15 68q0 65 38.5 109t94.5 62t123 18q160 -3 249 -79q0 -23 -0.5 -66.5t-0.5 -67.5h-46
l-1 111q-75 54 -202 56q-85 1 -145 -35.5t-60 -108.5q0 -27 12 -48.5t29.5 -35t48.5 -24.5t56.5 -17t65.5 -14q43 -8 68.5 -13.5t63 -16t59.5 -24t44.5 -33.5t32.5 -48t10 -63q0 -54 -25 -94.5t-67 -62t-88.5 -31.5t-98.5 -10q-159 0 -264 96q0 16 0.5 71t0.5 70h47v-116z
M290 -239l28 77q-24 7 -24 31q0 23 19 32t37.5 0t18.5 -32q0 -4 -8.5 -26t-19.5 -48.5t-13 -33.5h-38z" />
    <glyph glyph-name="scommaaccent" unicode="&#x219;" horiz-adv-x="504" 
d="M433 460l-3 -107h-42l-1 80q-56 29 -134 29q-67 1 -107.5 -22.5t-39.5 -71.5q0 -23 11.5 -39.5t36 -26.5t45.5 -14.5t57 -10.5q101 -16 137 -35q68 -34 67 -109q0 -50 -32.5 -83.5t-76.5 -46t-96 -12.5q-57 0 -101 13.5t-99 43.5l1 110h43l1 -81q74 -41 157 -41
q37 0 69.5 7.5t60 31t27.5 60.5q0 26 -12.5 44t-38.5 28.5t-49 15.5t-62 11q-32 5 -53 9t-50.5 14t-47 23t-30.5 36t-13 52q-1 69 55 103t140 34q93 2 180 -45zM217 -235l28 73q-23 7 -23 30q0 22 18 31t36 0t18 -31q0 -6 -16 -47t-23 -56h-38z" />
    <glyph glyph-name="uni021A" unicode="&#x21a;" horiz-adv-x="621" 
d="M432 0h-243v47h96v606h-205l-1 -112h-45v159h553v-159h-46l-1 112h-204v-606h96v-47zM269 -235l28 76q-24 5 -24 31q0 23 19 32.5t37.5 0t18.5 -33.5q0 -4 -8.5 -25.5t-19 -47.5t-12.5 -33h-39z" />
    <glyph glyph-name="uni021B" unicode="&#x21b;" horiz-adv-x="363" 
d="M113 638l47 5v-149h168v-41h-168v-301q0 -57 18.5 -86t72.5 -29q38 0 82 22l17 -39q-52 -27 -99 -27q-75 0 -106.5 39.5t-31.5 119.5v301h-105v41h105v144zM179 -242l28 77q-22 7 -22 30q0 22 17.5 31t35 0t17.5 -31q0 -3 -8.5 -25.5t-19 -48.5t-12.5 -33h-36z" />
    <glyph glyph-name="dotlessj" unicode="&#x237;" horiz-adv-x="246" 
d="M19 495h142v-571q0 -80 -27.5 -123.5t-102.5 -43.5q-46 0 -89 25l15 39q34 -19 74 -19q52 1 67.5 31.5t15.5 90.5v526h-95v45z" />
    <glyph glyph-name="circumflex" unicode="&#x2c6;" horiz-adv-x="421" 
d="M49 577v3l129 122h40l130 -121v-4h-53l-97 89l-96 -89h-53z" />
    <glyph glyph-name="caron" unicode="&#x2c7;" horiz-adv-x="404" 
d="M347 700v-3l-130 -123h-40l-129 122v4h52l97 -90l98 90h52z" />
    <glyph glyph-name="breve" unicode="&#x2d8;" horiz-adv-x="332" 
d="M282 700q0 -53 -35 -82.5t-86 -30.5q-53 0 -88 28.5t-36 84.5h40q0 -35 23.5 -55t60.5 -20q35 1 58 21t24 54h39z" />
    <glyph glyph-name="dotaccent" unicode="&#x2d9;" horiz-adv-x="206" 
d="M95 628q-16 0 -28 10.5t-12 29.5q0 18 12.5 28.5t28.5 10.5t28 -10.5t12 -29.5t-12 -29t-29 -10z" />
    <glyph glyph-name="ogonek" unicode="&#x2db;" horiz-adv-x="380" 
d="M241 -133l18 -28q-29 -29 -74 -31q-35 -2 -61 13.5t-34 42.5q-14 42 17.5 85.5t109.5 43.5l5 -25q-55 -3 -79.5 -33t-14.5 -57q5 -15 20 -24t37 -8q31 0 56 21z" />
    <glyph glyph-name="tilde" unicode="&#x2dc;" horiz-adv-x="324" 
d="M139 706q2 0 23.5 -12t23.5 -13q49 -24 64 27l33 -13q-11 -43 -41 -57t-68 5q-2 1 -23.5 12.5t-22.5 11.5q-51 24 -66 -26l-33 14q11 41 40 55.5t70 -4.5z" />
    <glyph glyph-name="hungarumlaut" unicode="&#x2dd;" horiz-adv-x="350" 
d="M211 592h-45l71 109h56zM78 593h-45l70 108h57z" />
    <glyph glyph-name="commaaccentcomb" unicode="&#x326;" horiz-adv-x="188" 
d="M159 -216h-38l27 74q-28 8 -26 36q1 23 20.5 32t38 -1t17.5 -34q-1 -8 -39 -107z" />
    <glyph glyph-name="_375" unicode="&#x394;" horiz-adv-x="693" 
d="M356 700l323 -700h-687l322 700h42zM335 645l-274 -601h549z" />
    <glyph glyph-name="Omega" unicode="&#x3a9;" horiz-adv-x="823" 
d="M89 0v43h147q-85 39 -131 122.5t-46 185.5q0 72 22.5 136t64.5 114.5t110.5 80t154.5 29.5t154.5 -29.5t111 -80t65 -114.5t22.5 -136q0 -103 -46 -186t-132 -122h148v-43h-245v44q108 23 166 109t59 197q1 132 -79 223t-224 91q-73 0 -131.5 -25.5t-95 -69.5t-56 -100
t-19.5 -119q2 -111 60.5 -197t166.5 -109v-44h-247z" />
    <glyph glyph-name="mu" unicode="&#x3bc;" horiz-adv-x="643" 
d="M541 0h-44l-2 98q-21 -52 -70.5 -81t-106.5 -29q-55 0 -105.5 28t-69.5 77v-319h-46v718h47v-289q0 -79 52 -124.5t122 -46.5q72 -1 123.5 46.5t51.5 139.5v273h48v-491z" />
    <glyph glyph-name="pi" unicode="&#x3c0;" horiz-adv-x="664" 
d="M187 0h-47v453h-122v41h616v-41h-127v-316q0 -59 22.5 -84t84.5 -16l-1 -39q-81 -15 -117.5 24t-35.5 116v316h-273v-454z" />
    <glyph glyph-name="Wgrave" unicode="&#x1e80;" horiz-adv-x="1156" 
d="M559 763l-86 122h59l71 -118v-4h-44zM91 653h-80v47h227v-47h-90l202 -589l213 631h30l214 -631l201 589h-92v47h227v-47h-78l-231 -655h-53l-203 592l-202 -592h-53z" />
    <glyph glyph-name="wgrave" unicode="&#x1e81;" horiz-adv-x="887" 
d="M471 571h-42l-82 115h55l69 -111v-4zM250 -1l-161 452h-71v43h203v-43h-80l135 -395l152 438h33l151 -438l134 395h-82v43h205v-43h-72l-159 -452h-52l-70 197l-72 218l-72 -217l-71 -198h-51z" />
    <glyph glyph-name="Wacute" unicode="&#x1e82;" horiz-adv-x="1156" 
d="M682 884l-86 -122h-44v3l72 119h58zM91 653h-80v47h227v-47h-90l202 -589l213 631h30l214 -631l201 589h-92v47h227v-47h-78l-231 -655h-53l-203 592l-202 -592h-53z" />
    <glyph glyph-name="wacute" unicode="&#x1e83;" horiz-adv-x="887" 
d="M458 574h-41v4l66 110h56zM250 -1l-161 452h-71v43h203v-43h-80l135 -395l152 438h33l151 -438l134 395h-82v43h205v-43h-72l-159 -452h-52l-70 197l-72 218l-72 -217l-71 -198h-51z" />
    <glyph glyph-name="Wdieresis" unicode="&#x1e84;" horiz-adv-x="1156" 
d="M721 776q-16 0 -27.5 9.5t-11.5 27.5t11.5 28t27.5 10t27 -10t11 -28t-11 -27.5t-27 -9.5zM436 775q-16 0 -27.5 10t-11.5 28t11.5 28t27.5 10t27 -10t11 -28t-11.5 -28t-26.5 -10zM91 653h-80v47h227v-47h-90l202 -589l213 631h30l214 -631l201 589h-92v47h227v-47h-78
l-231 -655h-53l-203 592l-202 -592h-53z" />
    <glyph glyph-name="wdieresis" unicode="&#x1e85;" horiz-adv-x="887" 
d="M334 607q-16 0 -27 9.5t-11 27.5t11.5 28t26.5 10t26 -10t11 -28t-11 -27.5t-26 -9.5zM554 607q-15 0 -26 9.5t-11 27.5t11 27.5t26 9.5q16 0 27 -9.5t11 -27.5t-11 -27.5t-27 -9.5zM250 -1l-161 452h-71v43h203v-43h-80l135 -395l152 438h33l151 -438l134 395h-82v43
h205v-43h-72l-159 -452h-52l-70 197l-72 218l-72 -217l-71 -198h-51z" />
    <glyph glyph-name="Ygrave" unicode="&#x1ef2;" horiz-adv-x="720" 
d="M347 747l-83 119h59l69 -115v-4h-45zM240 653h-88l96 -149l112 -176l115 178l95 147h-89v47h224v-47h-76l-244 -373v-233h96v-47h-242v47h96v233l-243 373h-77v47h225v-47z" />
    <glyph glyph-name="ygrave" unicode="&#x1ef3;" horiz-adv-x="607" 
d="M328 578h-42l-81 113h56l67 -109v-4zM464 450h-83v44h207v-44h-71l-251 -604q-28 -69 -85 -85t-125 29l22 40q40 -32 80 -26t62 55l62 146l-191 445h-76v44h207v-44h-79l108 -250l57 -146l55 147z" />
    <glyph glyph-name="endash" unicode="&#x2013;" horiz-adv-x="594" 
d="M74 264v46h446v-46h-446z" />
    <glyph glyph-name="emdash" unicode="&#x2014;" horiz-adv-x="701" 
d="M74 264v46h553v-46h-553z" />
    <glyph glyph-name="quoteleft" unicode="&#x2018;" horiz-adv-x="215" 
d="M119 701h42l-45 -162h-53z" />
    <glyph glyph-name="quoteright" unicode="&#x2019;" horiz-adv-x="212" 
d="M106 537h-42l45 164h52z" />
    <glyph glyph-name="quotesinglbase" unicode="&#x201a;" horiz-adv-x="269" 
d="M119 -108h-40l45 168h53z" />
    <glyph glyph-name="quotedblleft" unicode="&#x201c;" horiz-adv-x="333" 
d="M118 700h41l-45 -163h-52zM237 700h41l-45 -163h-52z" />
    <glyph glyph-name="quotedblright" unicode="&#x201d;" horiz-adv-x="332" 
d="M226 539h-41l44 162h53zM107 539h-42l45 162h53z" />
    <glyph glyph-name="quotedblbase" unicode="&#x201e;" horiz-adv-x="384" 
d="M234 -108h-39l45 168h52zM119 -108h-40l45 168h53z" />
    <glyph glyph-name="dagger" unicode="&#x2020;" horiz-adv-x="546" 
d="M513 503v-42h-216v-593h-48v593h-216v42h216v201h48v-201h216z" />
    <glyph glyph-name="daggerdbl" unicode="&#x2021;" horiz-adv-x="597" 
d="M539 503v-43h-217v-285h217v-43h-217v-264h-47v264h-217v43h217v285h-217v43h217v197h47v-197h217z" />
    <glyph glyph-name="bullet" unicode="&#x2022;" horiz-adv-x="377" 
d="M190 250q-43 0 -70.5 26t-27.5 69t27.5 69.5t70.5 26.5q41 0 68 -26.5t27 -69.5q0 -42 -27 -68.5t-68 -26.5z" />
    <glyph glyph-name="ellipsis" unicode="&#x2026;" horiz-adv-x="625" 
d="M515 -4q-15 0 -25.5 9.5t-10.5 26.5t10.5 26.5t25.5 9.5t25.5 -9.5t10.5 -26.5t-10 -26.5t-26 -9.5zM313 -4q-15 0 -26 9.5t-11 26.5t11 26.5t26 9.5t25.5 -9.5t10.5 -26.5t-10 -26.5t-26 -9.5zM110 -4q-15 0 -25.5 9.5t-10.5 26.5t10.5 26.5t25.5 9.5t25.5 -9.5
t10.5 -26.5t-10 -26.5t-26 -9.5z" />
    <glyph glyph-name="perthousand" unicode="&#x2030;" horiz-adv-x="1105" 
d="M190 706q72 0 112.5 -44t40.5 -105q0 -60 -41 -103.5t-113 -43.5t-112 43.5t-40 104.5t40 104.5t113 43.5zM115 0l451 702h54l-452 -702h-53zM189 667q-52 0 -80.5 -32.5t-28.5 -76.5q1 -45 29.5 -76.5t80.5 -31.5t80.5 31.5t29.5 75.5q0 44 -29.5 77t-81.5 33zM549 291
q73 0 113.5 -44.5t40.5 -105.5q0 -60 -41 -103.5t-113 -43.5t-112 43.5t-40 104.5t40 105t112 44zM765 142q0 61 40 105t112 44q73 0 113.5 -44.5t40.5 -105.5q0 -60 -41 -103.5t-113 -43.5t-112 43.5t-40 104.5zM549 252q-52 0 -81 -33t-28 -77t29.5 -75.5t80.5 -31.5
q51 0 80 31.5t29 75.5q1 44 -28.5 77t-81.5 33zM917 252q-52 0 -81 -33t-28 -77t29.5 -75.5t80.5 -31.5q51 0 80 31.5t29 75.5q1 44 -28.5 77t-81.5 33z" />
    <glyph glyph-name="guilsinglleft" unicode="&#x2039;" horiz-adv-x="292" 
d="M188 79l-138 220l138 219h51l-135 -219l135 -220h-51z" />
    <glyph glyph-name="guilsinglright" unicode="&#x203a;" horiz-adv-x="292" 
d="M53 75l135 220l-135 219h51l138 -219l-138 -220h-51z" />
    <glyph glyph-name="fraction" unicode="&#x2044;" horiz-adv-x="110" 
d="M-106 -2h-47l371 705h48z" />
    <glyph glyph-name="zerosuperior" unicode="&#x2070;" horiz-adv-x="371" 
d="M41 601v52q0 75 40 116.5t103 41.5q64 0 105 -41t41 -117v-52q0 -43 -16 -77t-41.5 -51t-56 -25.5t-61.5 0t-56.5 25.5t-41.5 51t-16 77zM82 654v-53q0 -54 32 -85.5t71 -32t71 30.5t32 87v53q0 57 -30 87.5t-75 30.5t-73 -30.5t-28 -87.5z" />
    <glyph glyph-name="foursuperior" unicode="&#x2074;" horiz-adv-x="340" 
d="M207 807h54v-233h46v-39h-46v-83h-42v83h-193l-5 32zM73 574h146v188z" />
    <glyph glyph-name="fivesuperior" unicode="&#x2075;" horiz-adv-x="351" 
d="M90 672l84 -1q71 0 106.5 -30t35.5 -80q0 -51 -36 -83t-106 -32q-56 0 -94.5 23.5t-39.5 78.5h41q-1 -34 25.5 -49t67.5 -15q54 0 77 22.5t23 53.5q0 30 -23 52t-77 22h-124v173h247v-39h-207v-96z" />
    <glyph glyph-name="sixsuperior" unicode="&#x2076;" horiz-adv-x="365" 
d="M91 696v-74q34 42 99 42q57 0 97.5 -27.5t40.5 -83.5q0 -55 -40.5 -83t-96.5 -28q-58 0 -99.5 28.5t-41.5 83.5v142q0 57 39 85.5t96 28.5t94.5 -23t41.5 -68h-41q-5 53 -94 53q-43 0 -69 -19.5t-26 -56.5zM191 481q35 0 65 18t30 54q0 38 -29 56t-67 18
q-36 0 -66.5 -19.5t-30.5 -53.5q0 -38 29.5 -55.5t68.5 -17.5z" />
    <glyph glyph-name="sevensuperior" unicode="&#x2077;" horiz-adv-x="310" 
d="M293 807l4 -22l-169 -334h-46l160 316h-170l-3 -56h-39v96h263z" />
    <glyph glyph-name="eightsuperior" unicode="&#x2078;" horiz-adv-x="371" 
d="M39 543q0 36 22 59t57 31q-31 7 -51.5 27.5t-20.5 52.5q0 49 41 73.5t99 24.5t99 -24t41 -74q0 -59 -72 -80q33 -8 55.5 -31.5t22.5 -57.5q0 -55 -44 -80t-103 -25q-58 0 -102 24.5t-44 79.5zM283 713q0 34 -29 48t-68 14q-38 0 -67.5 -14t-29.5 -48q-1 -31 28 -46
t69 -15q39 0 68 15t29 46zM289 544q0 35 -31.5 52t-72.5 17q-40 0 -71.5 -17.5t-31.5 -52.5q1 -35 34.5 -50.5t69.5 -15.5t69 15.5t34 51.5z" />
    <glyph glyph-name="ninesuperior" unicode="&#x2079;" horiz-adv-x="361" 
d="M174 774q-37 0 -66 -17.5t-29 -54.5q0 -40 28.5 -57.5t67.5 -17.5q35 0 65.5 20t31.5 53q0 39 -29.5 56.5t-68.5 17.5zM274 559v73q-34 -42 -99 -42q-58 0 -98 27t-40 85q0 53 41 81.5t96 28.5q58 0 99.5 -28t41.5 -83v-142q0 -59 -40 -87t-97 -28t-94 23t-41 68h41
q2 -24 26 -38.5t67 -14.5q44 0 70.5 19.5t26.5 57.5z" />
    <glyph glyph-name="zeroinferior" unicode="&#x2080;" horiz-adv-x="374" 
d="M42 66v51q0 75 40.5 116.5t103.5 41.5t104.5 -41t41.5 -117v-51q0 -43 -16 -77t-41.5 -51t-56.5 -25.5t-62 0t-56.5 25.5t-41.5 51t-16 77zM84 118v-53q0 -54 32 -85.5t70.5 -32t70.5 30.5t32 87v53q0 57 -29.5 87.5t-74.5 30.5t-73 -30.5t-28 -87.5z" />
    <glyph glyph-name="oneinferior" unicode="&#x2081;" horiz-adv-x="227" 
d="M34 -87v38h63v267l-55 -12v38l97 23v-316h65v-38h-170z" />
    <glyph glyph-name="twoinferior" unicode="&#x2082;" horiz-adv-x="354" 
d="M86 167h-41q0 57 37.5 82t94.5 25q54 0 93.5 -25t39.5 -80q0 -29 -11 -49t-32 -30.5t-41 -15.5t-47 -8q-21 -2 -35 -5.5t-29.5 -11t-23.5 -22t-8 -36.5v-37h187v54h40v-93h-269v77q0 31 11.5 52.5t32.5 32.5t40.5 16t45.5 8q30 3 49 8t34 20t15 40q0 66 -92 66
q-91 0 -91 -68z" />
    <glyph glyph-name="threeinferior" unicode="&#x2083;" horiz-adv-x="355" 
d="M87 237l-2 -51h-36v88h255v-20l-95 -128q49 -3 78.5 -29.5t29.5 -76.5q0 -59 -41 -86.5t-101 -27.5q-59 0 -98 27t-39 83h41q0 -36 28.5 -53t67.5 -17q100 0 100 74q0 69 -98 74h-20l-3 16l94 127h-161z" />
    <glyph glyph-name="fourinferior" unicode="&#x2084;" horiz-adv-x="342" 
d="M208 268h54v-233h46v-39h-46v-83h-42v83h-193l-5 32zM73 35h147v187z" />
    <glyph glyph-name="fiveinferior" unicode="&#x2085;" horiz-adv-x="351" 
d="M90 134l84 -1q72 0 107.5 -30t34.5 -81q0 -51 -35.5 -82.5t-105.5 -31.5q-57 0 -95 23t-39 79h40q0 -64 94 -64q53 0 76 22.5t23 53.5q0 30 -23 52t-77 22h-124v173h247v-39h-207v-96z" />
    <glyph glyph-name="sixinferior" unicode="&#x2086;" horiz-adv-x="366" 
d="M92 165v-74q34 43 99 43q58 0 98 -27.5t40 -84.5q0 -55 -40.5 -82.5t-96.5 -27.5q-58 0 -99.5 28t-41.5 83v142q0 57 39.5 85.5t96.5 28.5t94 -23t41 -68h-41q-5 53 -94 53q-43 0 -69 -19.5t-26 -56.5zM192 -50q35 0 65 18t30 54q0 38 -29 56.5t-67 18.5q-35 0 -65.5 -20
t-31.5 -54q0 -38 30 -55.5t68 -17.5z" />
    <glyph glyph-name="seveninferior" unicode="&#x2087;" horiz-adv-x="310" 
d="M293 269l4 -22l-169 -334h-47l161 316h-171l-2 -56h-39v96h263z" />
    <glyph glyph-name="eightinferior" unicode="&#x2088;" horiz-adv-x="373" 
d="M40 11q0 36 22 59t57 31q-31 7 -51.5 27.5t-20.5 52.5q0 49 42.5 73.5t97.5 24.5t97.5 -24t42.5 -74q0 -59 -72 -80q33 -8 55.5 -31.5t22.5 -57.5q0 -55 -44 -80t-102 -25q-59 0 -103 24.5t-44 79.5zM284 181q0 33 -30 47t-67 14q-36 0 -66.5 -14t-30.5 -47
q-1 -30 28.5 -45.5t68.5 -15.5t68 15t29 46zM290 12q0 35 -31.5 52t-72.5 17q-40 0 -71.5 -17.5t-31.5 -52.5q1 -35 34.5 -50.5t69.5 -15.5t69 15.5t34 51.5z" />
    <glyph glyph-name="nineinferior" unicode="&#x2089;" horiz-adv-x="366" 
d="M174 240q-37 0 -65.5 -17.5t-28.5 -55.5q0 -39 28.5 -56.5t66.5 -17.5q36 0 66.5 19.5t30.5 53.5q0 39 -29.5 56.5t-68.5 17.5zM274 24v74q-34 -42 -99 -42q-58 0 -97.5 27t-39.5 84q0 53 41 82t95 29q58 0 99.5 -28.5t41.5 -83.5v-142q0 -59 -39 -86.5t-96 -27.5t-94 23
t-41 68h41q5 -53 94 -53q43 0 68.5 19.5t25.5 56.5z" />
    <glyph glyph-name="Euro" unicode="&#x20ac;" horiz-adv-x="618" 
d="M42 386v44h71q21 123 109.5 201t239.5 78q45 0 90 -12l-11 -45q-39 9 -79 9q-126 0 -200.5 -62.5t-95.5 -168.5h278l-11 -44h-276q-1 -13 -1 -39q0 -28 2 -40h265l-11 -43h-246q21 -103 95 -163.5t199 -60.5q50 0 104 19l13 -47q-59 -21 -118 -21q-149 0 -236 74
t-110 198h-70v43h64q-1 11 -1 39t1 41h-65z" />
    <glyph glyph-name="afii61289" unicode="&#x2113;" horiz-adv-x="379" 
d="M177 242v-95q0 -51 32 -77.5t101 -9.5v-48q-91 -30 -147 4t-57 132v46l-49 -24l-14 42q34 14 62 30v315q0 76 33.5 117t100.5 41q44 0 70 -27t32 -64.5t2 -86.5q-6 -86 -47.5 -155t-118.5 -140zM173 302q120 114 124 241q7 126 -58 126t-65 -112q0 -26 -0.5 -121.5
t-0.5 -133.5z" />
    <glyph glyph-name="uni2117" unicode="&#x2117;" horiz-adv-x="836" 
d="M418 713q168 0 264.5 -104.5t96.5 -260.5q0 -155 -96.5 -260t-264.5 -105q-167 0 -264 105t-97 260q0 156 97 260.5t264 104.5zM105 348q0 -139 84 -230.5t229 -91.5t229 92t84 230q0 140 -84 231.5t-229 91.5t-229 -91t-84 -232zM342 327h121q31 0 53 16.5t27 40.5
t0.5 47.5t-25.5 40t-52 16.5h-124v-161zM342 286v-135h-46v382h170q47 0 79.5 -25.5t40.5 -61.5t1 -72.5t-40.5 -62t-83.5 -25.5h-121z" />
    <glyph glyph-name="trademark" unicode="&#x2122;" horiz-adv-x="787" 
d="M175 420v243h-113v37h269v-37h-115v-243h-41zM392 420v280h40l115 -150l119 150h36v-280h-43l1 209l-109 -136h-9l-108 140l1 -213h-43z" />
    <glyph glyph-name="estimated" unicode="&#x212e;" horiz-adv-x="650" 
d="M523 133l37 -29q-43 -61 -98 -86t-129 -25q-116 0 -192 78t-76 218q0 142 75.5 219.5t191.5 77.5q58 0 106.5 -17t87 -53t57 -100.5t11.5 -152.5h-402v-170q58 -53 141 -53q125 0 190 93zM477 308v189q-54 44 -145 44q-89 0 -143 -47v-186h288z" />
    <glyph glyph-name="uni2153" unicode="&#x2153;" horiz-adv-x="748" 
d="M50 355v37h64v264l-55 -12v37l97 23v-312h67v-37h-173zM166 -2h-47l372 705h47zM472 327l-2 -51h-37v88h256v-20l-95 -128q49 -3 78 -29.5t29 -76.5q0 -59 -41 -86.5t-101 -27.5q-58 0 -97 27t-39 83h40q1 -36 29.5 -53t67.5 -17q99 0 99 74q0 69 -96 74h-22l-2 16
l94 127h-161z" />
    <glyph glyph-name="uni2154" unicode="&#x2154;" horiz-adv-x="835" 
d="M97 601h-41q0 56 37.5 81t94.5 25q54 0 93.5 -24.5t39.5 -79.5q0 -54 -35.5 -75.5t-95.5 -28.5q-22 -2 -35.5 -5t-29 -10.5t-23.5 -22t-8 -36.5v-37h187v54h40v-94h-269v78q0 31 11.5 52.5t32.5 32.5t40.5 16t45.5 8q30 3 49 8t34 20t15 40q0 66 -92 66q-91 0 -91 -68z
M259 -2h-47l369 705h48zM559 328l-2 -51h-36v88h255v-20l-95 -128q49 -4 78.5 -30.5t29.5 -75.5q0 -59 -41 -86.5t-101 -27.5q-59 0 -98 27t-39 83h41q0 -37 28 -53.5t68 -16.5q100 0 100 74q0 69 -99 73q-2 1 -19 1l-3 16l94 127h-161z" />
    <glyph glyph-name="oneeighth" unicode="&#x215b;" horiz-adv-x="765" 
d="M49 355v37h64v264l-55 -12v37l97 23v-312h67v-37h-173zM172 -2h-46l371 705h47zM428 99q0 35 22.5 59t57.5 31q-72 17 -72 81q0 49 42 73.5t97 24.5t97.5 -24t42.5 -74q0 -59 -71 -81q33 -7 55.5 -31t22.5 -58q0 -55 -44 -80t-103 -25q-58 0 -102 24.5t-45 79.5zM672 269
q0 33 -29.5 47t-66.5 14q-36 0 -66.5 -14t-30.5 -47q-1 -31 28.5 -46.5t68.5 -15.5t67.5 15.5t28.5 46.5zM679 100q0 35 -31.5 52t-72.5 17q-40 0 -71.5 -17.5t-31.5 -52.5q1 -35 34.5 -50.5t69.5 -15.5t69 15.5t34 51.5z" />
    <glyph glyph-name="threeeighths" unicode="&#x215c;" horiz-adv-x="826" 
d="M238 -2h-47l371 705h48zM94 670l-2 -51h-36v88h256v-20l-95 -127q48 -4 77.5 -30.5t29.5 -76.5q0 -59 -41 -86.5t-101 -27.5q-58 0 -97 27t-40 83h41q1 -37 29 -53.5t67 -16.5q100 0 100 74q0 69 -96 74h-22l-3 16l95 127h-162zM490 99q0 35 22.5 59t56.5 31
q-31 7 -51.5 28t-20.5 53q0 49 42.5 73.5t97.5 24.5t97.5 -24t42.5 -74q0 -59 -72 -81q33 -7 55.5 -31t22.5 -58q0 -55 -44 -80t-102 -25q-59 0 -103 24.5t-44 79.5zM734 269q0 33 -30 47t-67 14q-36 0 -66.5 -14t-30.5 -47q0 -31 29 -46.5t68 -15.5t68 15.5t29 46.5z
M740 100q0 35 -31.5 52t-72.5 17q-40 0 -71.5 -17.5t-31.5 -52.5q1 -35 34.5 -50.5t69.5 -15.5t69 15.5t34 51.5z" />
    <glyph glyph-name="fiveeighths" unicode="&#x215d;" horiz-adv-x="830" 
d="M242 -2h-47l372 705h47zM96 566h83q72 0 107.5 -30t35.5 -81t-36 -83t-106 -32q-56 0 -94.5 23.5t-39.5 78.5h41q-1 -34 25.5 -48.5t67.5 -14.5q54 0 77 22.5t23 53.5q0 30 -23 51.5t-78 21.5h-123v173h246v-39h-206v-96zM494 99q0 35 22.5 59t56.5 31q-31 7 -51.5 28
t-20.5 53q0 49 42.5 73.5t97.5 24.5t97.5 -24t42.5 -74q0 -59 -72 -81q33 -7 55.5 -31t22.5 -58q0 -55 -44 -80t-102 -25q-59 0 -103 24.5t-44 79.5zM738 269q0 33 -30 47t-67 14q-36 0 -66.5 -14t-30.5 -47q0 -31 29 -46.5t68 -15.5t68 15.5t29 46.5zM744 100
q0 35 -31.5 52t-72.5 17q-40 0 -71.5 -17.5t-31.5 -52.5q1 -35 34.5 -50.5t69.5 -15.5t69 15.5t34 51.5z" />
    <glyph glyph-name="seveneighths" unicode="&#x215e;" horiz-adv-x="763" 
d="M160 -2h-47l371 705h48zM302 702l4 -22l-169 -334h-46l160 316h-171l-2 -56h-39v96h263zM427 99q0 35 22.5 59t56.5 31q-31 7 -51.5 28t-20.5 53q0 49 42.5 73.5t97.5 24.5t97.5 -24t42.5 -74q0 -59 -72 -81q33 -7 55.5 -31t22.5 -58q0 -55 -44 -80t-102 -25
q-59 0 -103 24.5t-44 79.5zM671 269q0 33 -30 47t-67 14q-36 0 -66.5 -14t-30.5 -47q0 -31 29 -46.5t68 -15.5t68 15.5t29 46.5zM677 100q0 35 -31.5 52t-72.5 17q-40 0 -71.5 -17.5t-31.5 -52.5q1 -35 34.5 -50.5t69.5 -15.5t69 15.5t34 51.5z" />
    <glyph glyph-name="arrowleft" unicode="&#x2190;" horiz-adv-x="649" 
d="M261 140l-211 211l211 210l28 -27l-156 -159h444v-48h-444l156 -159z" />
    <glyph glyph-name="arrowup" unicode="&#x2191;" horiz-adv-x="489" 
d="M34 404l211 211l210 -211l-27 -28l-160 156v-444h-48v443l-159 -156z" />
    <glyph glyph-name="arrowright" unicode="&#x2192;" horiz-adv-x="649" 
d="M388 562l211 -211l-211 -211l-28 28l157 159h-445v49h443l-155 158z" />
    <glyph glyph-name="arrowdown" unicode="&#x2193;" horiz-adv-x="489" 
d="M455 288l-210 -211l-211 211l28 28l159 -156v444h49v-443l158 155z" />
    <glyph glyph-name="uni2196" unicode="&#x2196;" horiz-adv-x="501" 
d="M68 240v298h298v-42h-222l314 -314l-35 -35l-313 314l-2 -222z" />
    <glyph glyph-name="uni2197" unicode="&#x2197;" horiz-adv-x="502" 
d="M433 538v-299h-43v222l-313 -314l-34 35l314 314l-223 1v41h299z" />
    <glyph glyph-name="uni2198" unicode="&#x2198;" horiz-adv-x="516" 
d="M424 462v-299h-298l-1 41l223 2l-314 313l35 34l314 -313v222h41z" />
    <glyph glyph-name="uni2199" unicode="&#x2199;" horiz-adv-x="516" 
d="M93 163v299h42v-222l313 313l34 -34l-314 -314l224 -1l-1 -41h-298z" />
    <glyph glyph-name="partialdiff" unicode="&#x2202;" horiz-adv-x="612" 
d="M558 254q2 -117 -67.5 -190t-187.5 -73q-120 0 -187 73.5t-67 174.5t64.5 174.5t181.5 76.5q62 2 118 -26t85 -76q-33 95 -113.5 168t-179.5 103l14 40q159 -55 248 -168.5t91 -276.5zM303 35q97 0 152 61t55 144q0 84 -55 146t-152 62t-151.5 -61.5t-54.5 -146.5
t54 -145t152 -60z" />
    <glyph glyph-name="increment" unicode="&#x2206;" horiz-adv-x="736" 
d="M397 700l314 -700h-686l314 700h58zM368 649l-266 -603h532z" />
    <glyph glyph-name="product" unicode="&#x220f;" horiz-adv-x="701" 
d="M594 -188h-53v840h-381v-840h-53v888h487v-888z" />
    <glyph glyph-name="summation" unicode="&#x2211;" horiz-adv-x="573" 
d="M332 367l-222 -318h410v-49h-485v22l240 346l-222 314v18h461v-47h-382z" />
    <glyph glyph-name="minus" unicode="&#x2212;" horiz-adv-x="531" 
d="M78 318v46h375v-46h-375z" />
    <glyph glyph-name="uni2215" unicode="&#x2215;" horiz-adv-x="422" 
d="M49 -2h-47l371 705h48z" />
    <glyph glyph-name="uni2219" unicode="&#x2219;" horiz-adv-x="232" 
d="M116 268q-17 0 -29.5 11.5t-12.5 30.5q0 20 12.5 31t29.5 11t29.5 -11t12.5 -31q0 -19 -12.5 -30t-29.5 -12z" />
    <glyph glyph-name="radical" unicode="&#x221a;" horiz-adv-x="603" 
d="M592 700l-241 -700h-45l-173 369l-96 -42l-15 37l142 62l165 -372l226 657z" />
    <glyph glyph-name="infinity" unicode="&#x221e;" horiz-adv-x="804" 
d="M224 171q-77 0 -120.5 45.5t-42.5 108.5t45.5 110.5t121.5 47.5q26 0 51 -10t48.5 -30.5t39.5 -38t38 -44.5q46 56 87.5 88.5t87.5 32.5q78 0 121.5 -44t43.5 -108t-42.5 -111t-120.5 -47q-50 0 -89.5 31.5t-87.5 90.5q-46 -56 -89 -89t-92 -33zM224 213q15 0 30 5
t25 9.5t26.5 19.5t23 21t27 29t26.5 29q-89 114 -156 114q-58 0 -90 -34.5t-31 -81.5q1 -55 34 -82t85 -29zM581 213q59 1 91.5 35t31.5 81q-1 48 -33 79t-90 31q-25 0 -50.5 -14.5t-41 -30t-35.5 -39t-25 -28.5q7 -8 26 -29.5t30 -32t28 -25t33.5 -21t34.5 -6.5z" />
    <glyph glyph-name="integral" unicode="&#x222b;" horiz-adv-x="438" 
d="M188 -1v535q0 169 148 169q53 0 98 -34l-24 -35q-42 25 -76 25q-99 0 -99 -125v-535q0 -82 -28.5 -126t-105.5 -44q-46 0 -93 35l23 34q30 -26 72 -26q46 0 65.5 30.5t19.5 96.5z" />
    <glyph glyph-name="approxequal" unicode="&#x2248;" horiz-adv-x="599" 
d="M487 427l35 -17q-47 -109 -171 -58l-100 45q-45 22 -83 7.5t-55 -54.5l-34 17q20 54 71 74.5t114 -6.5l100 -45q41 -20 71.5 -12.5t51.5 49.5zM487 255l35 -16q-47 -110 -172 -59l-100 45q-44 22 -82 8t-55 -55l-34 17q20 53 71 74.5t113 -5.5l100 -45q41 -21 72 -13.5
t52 49.5z" />
    <glyph glyph-name="notequal" unicode="&#x2260;" horiz-adv-x="591" 
d="M96 193v44h130l101 158h-231v44h257l43 67l28 -16l-31 -51h102v-44h-129l-100 -158h229v-44h-257l-45 -71l-30 17l35 54h-102z" />
    <glyph glyph-name="lessequal" unicode="&#x2264;" horiz-adv-x="452" 
d="M84 419l243 164l24 -31l-216 -143l217 -151l-25 -32l-243 174v19zM80 101v40h290v-40h-290z" />
    <glyph glyph-name="greaterequal" unicode="&#x2265;" horiz-adv-x="453" 
d="M126 583l242 -164v-19l-243 -172l-25 30l216 151l-215 143zM373 141v-40h-290v40h290z" />
    <glyph glyph-name="lozenge" unicode="&#x25ca;" horiz-adv-x="555" 
d="M517 352l-221 -345h-39l-216 345l216 344h39zM276 647l-180 -295l179 -297l189 296z" />
    <glyph glyph-name="fi" unicode="&#xfb01;" horiz-adv-x="571" 
d="M434 619q-15 0 -26 9t-11 28q0 36 39 36q14 0 25.5 -9t11.5 -27q0 -19 -11.5 -28t-27.5 -9zM346 687l-13 -41q-25 14 -60 14q-49 0 -74 -27.5t-25 -92.5v-46h284v-450h94v-44h-221v44h81v406h-238v-406h98v-44h-232v44h87v406h-100v44h100v46q0 163 146 163q41 0 73 -16z
" />
    <glyph glyph-name="fl" unicode="&#xfb02;" horiz-adv-x="570" 
d="M175 43h100v-43h-235v43h88v406h-101v43h101v48q0 165 168 167q67 1 161 -24v-639h93v-44h-221v44h82v603q-67 18 -117 18q-55 -1 -87 -28t-32 -97v-48h145v-43h-145v-406z" />
    <glyph glyph-name="a.alt" horiz-adv-x="577" 
d="M438 218q-36 21 -91.5 33.5t-105.5 11.5q-66 -3 -108 -30.5t-42 -85.5q0 -55 43 -84t102 -29q77 0 137 48.5t65 135.5zM436 315q0 73 -49.5 106t-127.5 34q-83 0 -133 -29l-1 -77h-42l-1 102q69 49 181 49q97 -1 158.5 -46t61.5 -139v-271h88v-44h-130l-3 105
q-32 -55 -87.5 -85t-120.5 -30q-79 0 -132 39.5t-53 114.5q0 67 43.5 106.5t106 46.5t127.5 -3t114 -33v54z" />
    <glyph glyph-name="aacute.alt" horiz-adv-x="577" 
d="M281 585h-42v5l70 111h57zM438 218q-37 21 -93.5 34t-107.5 11q-64 -3 -105 -31t-41 -85q0 -55 43 -84t102 -29q77 0 137 48.5t65 135.5zM436 315q0 73 -49.5 106t-127.5 34q-83 0 -133 -29l-1 -77h-42l-1 102q69 49 181 49q97 -1 158.5 -46t61.5 -139v-271h88v-44h-130
l-3 105q-32 -55 -87.5 -85t-120.5 -30q-79 0 -132 39.5t-53 114.5q0 67 43.5 106.5t106 46.5t127.5 -3t114 -33v54z" />
    <glyph glyph-name="abreve.alt" horiz-adv-x="577" 
d="M362 704h41q0 -56 -33 -88.5t-91 -32.5q-59 0 -91 32t-32 89h38q0 -83 85 -83q83 1 83 83zM438 218q-36 21 -91.5 33.5t-106.5 11.5q-66 -2 -107.5 -30t-41.5 -86q0 -55 43 -84t102 -29q77 0 137 48.5t65 135.5zM436 315q0 73 -49.5 106t-127.5 34q-83 0 -133 -29l-1 -77
h-42l-1 102q69 49 181 49q97 -1 158.5 -46t61.5 -139v-271h88v-44h-130l-3 105q-32 -55 -87.5 -85t-120.5 -30q-79 0 -132 39.5t-53 114.5q0 67 43.5 106.5t106 46.5t127.5 -3t114 -33v54z" />
    <glyph glyph-name="acircumflex.alt" horiz-adv-x="577" 
d="M131 574v7l131 122h37l132 -122v-7h-49l-102 92l-101 -92h-48zM438 218q-36 21 -91.5 33.5t-105.5 11.5q-66 -3 -108 -30.5t-42 -85.5q0 -55 43 -84t102 -29q77 0 137 48.5t65 135.5zM436 315q0 73 -49.5 106t-127.5 34q-83 0 -133 -29l-1 -77h-42l-1 102q69 49 181 49
q97 -1 158.5 -46t61.5 -139v-271h88v-44h-130l-3 105q-32 -55 -87.5 -85t-120.5 -30q-79 0 -132 39.5t-53 114.5q0 67 43.5 106.5t106 46.5t127.5 -3t114 -33v54z" />
    <glyph glyph-name="adieresis.alt" horiz-adv-x="577" 
d="M188 623q-15 0 -26 9.5t-11 26.5t10.5 26.5t25.5 9.5t26 -9.5t11 -26.5t-10.5 -26.5t-25.5 -9.5zM384 623q-15 0 -26 9t-11 27q0 17 11 26.5t26 9.5t25.5 -9.5t10.5 -26.5t-10.5 -26.5t-25.5 -9.5zM438 218q-36 21 -91.5 33.5t-106.5 11.5q-66 -2 -107.5 -30t-41.5 -86
q0 -55 43 -84t102 -29q77 0 137 48.5t65 135.5zM436 315q0 73 -49.5 106t-127.5 34q-83 0 -133 -29l-1 -77h-42l-1 102q69 49 181 49q97 -1 158.5 -46t61.5 -139v-271h88v-44h-130l-3 105q-32 -55 -87.5 -85t-120.5 -30q-79 0 -132 39.5t-53 114.5q0 67 43.5 106.5t106 46.5
t127.5 -3t114 -33v54z" />
    <glyph glyph-name="agrave.alt" horiz-adv-x="577" 
d="M271 585l-80 116h59l64 -112v-4h-43zM438 218q-36 21 -91.5 33.5t-105.5 11.5q-66 -3 -108 -30.5t-42 -85.5q0 -55 43 -84t102 -29q77 0 137 48.5t65 135.5zM436 315q0 73 -49.5 106t-127.5 34q-83 0 -133 -29l-1 -77h-42l-1 102q69 49 181 49q97 -1 158.5 -46t61.5 -139
v-271h88v-44h-130l-3 105q-32 -55 -87.5 -85t-120.5 -30q-79 0 -132 39.5t-53 114.5q0 67 43.5 106.5t106 46.5t127.5 -3t114 -33v54z" />
    <glyph glyph-name="amacron.alt" horiz-adv-x="577" 
d="M150 638v42h261v-42h-261zM438 218q-36 21 -91.5 33.5t-106.5 11.5q-66 -2 -107.5 -30t-41.5 -86q0 -55 43 -84t102 -29q77 0 137 48.5t65 135.5zM436 315q0 73 -49.5 106t-127.5 34q-83 0 -133 -29l-1 -77h-42l-1 102q69 49 181 49q97 -1 158.5 -46t61.5 -139v-271h88
v-44h-130l-3 105q-32 -55 -87.5 -85t-120.5 -30q-79 0 -132 39.5t-53 114.5q0 67 43.5 106.5t106 46.5t127.5 -3t114 -33v54z" />
    <glyph glyph-name="aogonek.alt" horiz-adv-x="573" 
d="M436 315q0 73 -49.5 106t-127.5 34q-83 0 -133 -29l-1 -77h-42l-1 102q69 49 181 49q97 -1 158.5 -46t61.5 -139v-272h83l-1 -43q-59 -5 -80 -36.5t-12 -57.5q8 -24 40.5 -28.5t67.5 16.5l8 -36q-46 -26 -94.5 -17.5t-61.5 51.5q-8 28 5 59t46 49h-40l-6 105
q-32 -55 -87.5 -85t-120.5 -30q-78 0 -131.5 40.5t-53.5 114.5q0 67 43.5 106t106 46t127.5 -3t114 -33v54zM438 219q-37 21 -93.5 32.5t-108.5 9.5q-64 -3 -104.5 -31t-40.5 -83q0 -57 42.5 -85t102.5 -28q77 0 137 49t65 136z" />
    <glyph glyph-name="aring.alt" horiz-adv-x="577" 
d="M372 642q0 -39 -27.5 -60.5t-67.5 -21.5q-39 0 -67 22t-28 59q0 39 28 61t66 22q39 0 67.5 -22t28.5 -60zM336 642q0 23 -16.5 37t-43.5 14q-25 0 -41.5 -13.5t-16.5 -37.5q0 -23 17 -36.5t43 -13.5t42 13.5t16 36.5zM438 218q-36 21 -91.5 33.5t-106.5 11.5
q-66 -2 -107.5 -30t-41.5 -86q0 -55 43 -84t102 -29q77 0 137 48.5t65 135.5zM436 315q0 73 -49.5 106t-127.5 34q-83 0 -133 -29l-1 -77h-42l-1 102q69 49 181 49q97 -1 158.5 -46t61.5 -139v-271h88v-44h-130l-3 105q-32 -55 -87.5 -85t-120.5 -30q-79 0 -132 39.5
t-53 114.5q0 67 43.5 106.5t106 46.5t127.5 -3t114 -33v54z" />
    <glyph glyph-name="aringacute.alt" horiz-adv-x="577" 
d="M261 743l69 89h54l-80 -92h-43v3zM280 547q-39 0 -66 21t-27 59t27.5 59.5t64.5 21.5q38 0 65.5 -21.5t27.5 -59.5t-27 -59t-65 -21zM279 676q-23 0 -40 -14t-17 -36t17 -35t41 -13q25 0 40.5 13t15.5 36q0 22 -16 35.5t-41 13.5zM438 218q-38 21 -95.5 34t-108.5 10
q-63 -2 -103 -30.5t-40 -84.5q0 -55 43 -84t102 -29q77 0 137 48.5t65 135.5zM436 315q0 73 -49.5 106t-127.5 34q-83 0 -133 -29l-1 -77h-42l-1 102q69 49 181 49q97 -1 158.5 -46t61.5 -139v-271h88v-44h-130l-3 105q-32 -55 -87.5 -85t-120.5 -30q-79 0 -132 39.5
t-53 114.5q0 67 43.5 106.5t106 46.5t127.5 -3t114 -33v54z" />
    <glyph glyph-name="atilde.alt" horiz-adv-x="577" 
d="M257 685q2 0 24 -11t24 -11q50 -22 64 30l32 -12q-9 -43 -38 -58.5t-69 1.5q-1 0 -23.5 11t-24.5 11q-53 25 -66 -28l-32 12q9 41 38.5 56.5t70.5 -1.5zM438 218q-36 21 -91.5 33.5t-106.5 11.5q-66 -2 -107.5 -30t-41.5 -86q0 -55 43 -84t102 -29q77 0 137 48.5
t65 135.5zM436 315q0 73 -49.5 106t-127.5 34q-83 0 -133 -29l-1 -77h-42l-1 102q69 49 181 49q97 -1 158.5 -46t61.5 -139v-271h88v-44h-130l-3 105q-32 -55 -87.5 -85t-120.5 -30q-79 0 -132 39.5t-53 114.5q0 67 43.5 106.5t106 46.5t127.5 -3t114 -33v54z" />
    <glyph glyph-name="g.alt" horiz-adv-x="660" 
d="M302 455q-91 0 -148 -58.5t-57 -150.5q0 -95 60 -152t148 -57q99 0 150 61t51 151q0 87 -54 146.5t-150 59.5zM552 -14q0 -116 -68.5 -178.5t-172.5 -62.5t-167.5 47.5t-67.5 127.5h46q5 -63 56.5 -96.5t132.5 -33.5q82 0 138.5 48.5t56.5 146.5v125q-27 -57 -84.5 -87.5
t-119.5 -30.5q-107 0 -180 69.5t-73 185.5q0 115 72.5 185t178.5 69q65 0 123 -30.5t82 -86.5q0 13 0.5 54.5t0.5 55.5h136v-44h-90v-464z" />
    <glyph glyph-name="gbreve.alt" horiz-adv-x="660" 
d="M404 706h41q0 -58 -33 -90t-93 -32t-92.5 31.5t-32.5 90.5h39q0 -83 87 -83q47 0 65.5 24.5t18.5 58.5zM302 455q-91 0 -148 -58.5t-57 -150.5q0 -95 60 -152t148 -57q99 0 150 61t51 151q0 87 -54 146.5t-150 59.5zM552 -14q0 -116 -68.5 -178.5t-172.5 -62.5
t-167.5 47.5t-67.5 127.5h46q5 -63 56.5 -96.5t132.5 -33.5q82 0 138.5 48.5t56.5 146.5v125q-27 -57 -84.5 -87.5t-119.5 -30.5q-107 0 -180 69.5t-73 185.5q0 115 72.5 185t178.5 69q65 0 123 -30.5t82 -86.5q0 13 0.5 54.5t0.5 55.5h136v-44h-90v-464z" />
    <glyph glyph-name="gcircumflex.alt" horiz-adv-x="660" 
d="M345 711l134 -126v-4h-50l-103 96l-104 -96h-50v4l135 126h38zM302 455q-91 0 -148 -58.5t-57 -150.5q0 -95 60 -152t148 -57q99 0 150 61t51 151q0 87 -54 146.5t-150 59.5zM552 -14q0 -116 -68.5 -178.5t-172.5 -62.5t-167.5 47.5t-67.5 127.5h46q5 -63 56.5 -96.5
t132.5 -33.5q82 0 138.5 48.5t56.5 146.5v125q-27 -57 -84.5 -87.5t-119.5 -30.5q-107 0 -180 69.5t-73 185.5q0 115 72.5 185t178.5 69q65 0 123 -30.5t82 -86.5q0 13 0.5 54.5t0.5 55.5h136v-44h-90v-464z" />
    <glyph glyph-name="gcommaaccent.alt" horiz-adv-x="660" 
d="M317 725h39l-26 -69q27 -7 25 -36q-1 -23 -20.5 -32t-38 1t-17.5 34q0 5 38 102zM302 455q-91 0 -148 -58.5t-57 -150.5q0 -95 60 -152t148 -57q99 0 150 61t51 151q0 87 -54 146.5t-150 59.5zM552 -14q0 -116 -68.5 -178.5t-172.5 -62.5t-167.5 47.5t-67.5 127.5h46
q5 -63 56.5 -96.5t132.5 -33.5q82 0 138.5 48.5t56.5 146.5v125q-27 -57 -84.5 -87.5t-119.5 -30.5q-107 0 -180 69.5t-73 185.5q0 115 72.5 185t178.5 69q65 0 123 -30.5t82 -86.5q0 13 0.5 54.5t0.5 55.5h136v-44h-90v-464z" />
    <glyph glyph-name="gdotaccent.alt" horiz-adv-x="660" 
d="M316 624q-16 0 -28 10.5t-12 28.5t12 28.5t29 10.5q16 0 27.5 -10.5t11.5 -28.5t-12 -28.5t-28 -10.5zM302 455q-91 0 -148 -58.5t-57 -150.5q0 -95 60 -152t148 -57q99 0 150 61t51 151q0 87 -54 146.5t-150 59.5zM552 -14q0 -116 -68.5 -178.5t-172.5 -62.5
t-167.5 47.5t-67.5 127.5h46q5 -63 56.5 -96.5t132.5 -33.5q82 0 138.5 48.5t56.5 146.5v125q-27 -57 -84.5 -87.5t-119.5 -30.5q-107 0 -180 69.5t-73 185.5q0 115 72.5 185t178.5 69q65 0 123 -30.5t82 -86.5q0 13 0.5 54.5t0.5 55.5h136v-44h-90v-464z" />
    <glyph glyph-name="y.alt" horiz-adv-x="627" 
d="M497 100q-28 -55 -78.5 -81.5t-107.5 -26.5q-101 0 -158.5 57t-57.5 160v241h-87v44h135v-283q0 -85 45.5 -130.5t127.5 -44.5q76 0 127.5 53t51.5 130v231h-89v44h136v-518q0 -109 -60 -169.5t-159 -60.5t-155 46.5t-62 125.5h45q6 -61 50 -94t121 -33t126 47.5
t49 138.5v123z" />
    <glyph glyph-name="yacute.alt" horiz-adv-x="627" 
d="M266 580v4l70 118h56l-84 -122h-42zM497 100q-28 -55 -78.5 -81.5t-107.5 -26.5q-101 0 -158.5 57t-57.5 160v241h-87v44h135v-283q0 -85 45.5 -130.5t127.5 -44.5q76 0 127.5 53t51.5 130v231h-89v44h136v-518q0 -109 -60 -169.5t-159 -60.5t-155 46.5t-62 125.5h45
q6 -61 50 -94t121 -33t126 47.5t49 138.5v123z" />
    <glyph glyph-name="ycircumflex.alt" horiz-adv-x="627" 
d="M325 708l133 -124v-5h-50l-102 95l-102 -95h-49v5l133 124h37zM497 100q-28 -55 -78.5 -81.5t-107.5 -26.5q-101 0 -158.5 57t-57.5 160v241h-87v44h135v-283q0 -85 45.5 -130.5t127.5 -44.5q76 0 127.5 53t51.5 130v231h-89v44h136v-518q0 -109 -60 -169.5t-159 -60.5
t-155 46.5t-62 125.5h45q6 -61 50 -94t121 -33t126 47.5t49 138.5v123z" />
    <glyph glyph-name="ydieresis.alt" horiz-adv-x="627" 
d="M418 631q-15 0 -26.5 10t-11.5 28t11.5 28t26.5 10t26.5 -10t11.5 -28t-11.5 -28t-26.5 -10zM203 631q-15 0 -26.5 10t-11.5 28t11.5 28t26.5 10q16 0 27 -10t11 -28t-11.5 -28t-26.5 -10zM497 100q-28 -55 -78.5 -81.5t-107.5 -26.5q-101 0 -158.5 57t-57.5 160v241h-87
v44h135v-283q0 -85 45.5 -130.5t127.5 -44.5q76 0 127.5 53t51.5 130v231h-89v44h136v-518q0 -109 -60 -169.5t-159 -60.5t-155 46.5t-62 125.5h45q6 -61 50 -94t121 -33t126 47.5t49 138.5v123z" />
    <glyph glyph-name="ygrave.alt" horiz-adv-x="627" 
d="M348 584v-4h-42l-82 122h57zM496 100q-27 -56 -77.5 -82t-108.5 -26q-101 0 -158.5 57t-57.5 160v241h-86v44h135v-283q0 -85 45.5 -130.5t127.5 -44.5q75 0 126.5 53t51.5 130v231h-88v44h136v-518q0 -109 -60 -169.5t-159 -60.5t-155 46.5t-62 125.5h45q5 -61 49 -94
t122 -33q77 0 125.5 47.5t48.5 138.5v123z" />
    <glyph glyph-name="zero.denom" horiz-adv-x="438" 
d="M74 151v52q0 75 40.5 116.5t103.5 41.5t104.5 -41t41.5 -117v-52q0 -43 -16 -77t-41.5 -51t-56.5 -25.5t-62 0t-56.5 25.5t-41.5 51t-16 77zM116 203v-52q0 -54 32 -85.5t71 -32t71 30.5t32 87v52q0 58 -30 88.5t-75 30.5t-73 -31t-28 -88z" />
    <glyph glyph-name="one.denom" horiz-adv-x="269" 
d="M55 0v38h63v268l-55 -13v38l97 23v-316h65v-38h-170z" />
    <glyph glyph-name="two.denom" horiz-adv-x="353" 
d="M85 253h-41q0 56 37.5 81t94.5 25q54 0 93.5 -25t39.5 -80q0 -29 -11 -49t-32 -30.5t-41 -15.5t-47 -8q-22 -2 -35.5 -5t-29 -10.5t-23.5 -22t-8 -36.5v-37h187v53h40v-93h-269v78q0 31 11.5 52t32.5 32t40.5 16t45.5 8q31 4 49.5 9t33.5 20t15 40q0 66 -92 66
q-91 0 -91 -68z" />
    <glyph glyph-name="three.denom" horiz-adv-x="355" 
d="M87 324l-2 -51h-36v88h256v-20l-95 -128q48 -4 77.5 -30.5t29.5 -75.5q0 -59 -41 -86.5t-101 -27.5q-58 0 -97 27t-40 83h41q1 -37 29 -53.5t67 -16.5q100 0 100 74q0 69 -97 73q-2 0 -11 0.5t-10 0.5l-3 16l95 127h-162z" />
    <glyph glyph-name="four.denom" horiz-adv-x="337" 
d="M207 356h54v-233h42v-39h-42v-84h-42v84h-193l-5 32zM72 123h147v186z" />
    <glyph glyph-name="five.denom" horiz-adv-x="351" 
d="M90 221l84 -1q72 0 107.5 -30t34.5 -81q0 -51 -35.5 -82.5t-105.5 -31.5q-57 0 -95 23t-39 79h40q0 -64 94 -64q53 0 76 22.5t23 53.5q0 30 -23 52t-77 22h-124v173h247v-39h-207v-96z" />
    <glyph glyph-name="six.denom" horiz-adv-x="366" 
d="M92 248v-74q34 43 99 43q58 0 98 -27.5t40 -84.5q0 -55 -40.5 -82.5t-96.5 -27.5q-58 0 -99.5 28t-41.5 83v142q0 57 39.5 85.5t96.5 28.5t94 -23t41 -68h-41q-5 53 -94 53q-43 0 -69 -19.5t-26 -56.5zM192 33q35 0 65 18t30 54q0 38 -29 56.5t-67 18.5q-35 0 -65.5 -20
t-31.5 -54q0 -38 30 -55.5t68 -17.5z" />
    <glyph glyph-name="seven.denom" horiz-adv-x="309" 
d="M292 356l4 -22l-169 -334h-46l161 316h-171l-3 -56h-38v96h262z" />
    <glyph glyph-name="eight.denom" horiz-adv-x="373" 
d="M40 96q0 36 22 59t57 30q-72 19 -72 81q0 49 42.5 73.5t97.5 24.5t97.5 -24t42.5 -74q0 -59 -72 -81q33 -7 55.5 -31t22.5 -58q0 -55 -44 -80t-102 -24q-59 0 -103 24.5t-44 79.5zM284 265q0 33 -30 47t-67 14q-36 0 -66.5 -13.5t-30.5 -46.5q-1 -31 28.5 -46.5
t68.5 -15.5t68 15t29 46zM290 96q0 35 -31.5 52t-72.5 17q-40 0 -71.5 -17.5t-31.5 -52.5q1 -35 34.5 -50.5t69.5 -15.5t69 15.5t34 51.5z" />
    <glyph glyph-name="nine.denom" horiz-adv-x="366" 
d="M174 323q-38 0 -66 -17t-28 -55q0 -40 28.5 -57.5t66.5 -17.5q36 0 66.5 20t30.5 54q0 38 -29.5 55.5t-68.5 17.5zM274 108v74q-34 -43 -99 -43q-58 0 -97.5 27t-39.5 85q0 53 40.5 81.5t95.5 28.5q58 0 99.5 -28t41.5 -83v-142q0 -59 -39 -87t-96 -28t-94 23.5t-41 68.5
h41q5 -53 94 -53q43 0 68.5 19.5t25.5 56.5z" />
    <glyph glyph-name="zero.num" horiz-adv-x="374" 
d="M42 501v52q0 75 40.5 116.5t103.5 41.5t104.5 -41t41.5 -117v-52q0 -43 -16 -77t-41.5 -51t-56.5 -25.5t-62 0t-56.5 25.5t-41.5 51t-16 77zM84 554v-53q0 -54 32 -85.5t70.5 -32t70.5 30.5t32 87v53q0 57 -29.5 87.5t-74.5 30.5t-73 -30.5t-28 -87.5z" />
    <glyph glyph-name="one.num" horiz-adv-x="293" 
d="M67 356v39h63v267l-55 -13v38l97 23v-315h65v-39h-170z" />
    <glyph glyph-name="two.num" horiz-adv-x="354" 
d="M85 601h-41q0 57 38 82t94 25q55 0 94 -24.5t39 -80.5q0 -54 -36 -75.5t-94 -27.5q-22 -2 -36 -5.5t-29.5 -11t-23.5 -22t-8 -36.5v-37h187l1 54h39v-93h-268v77q0 31 11.5 52.5t32.5 32.5t40 16t45 8q30 3 49 8t34 20t15 40q0 66 -92 66q-91 0 -91 -68z" />
    <glyph glyph-name="three.num" horiz-adv-x="354" 
d="M86 674l-2 -51h-36v88h255v-20l-95 -128q49 -3 78.5 -29.5t29.5 -76.5q0 -59 -41 -86.5t-101 -27.5q-59 0 -98 27t-39 83h41q0 -36 28.5 -53t67.5 -17q100 0 100 74q0 69 -99 74h-19l-3 16l94 127h-161z" />
    <glyph glyph-name="four.num" horiz-adv-x="342" 
d="M208 701h54v-233h46v-39h-46v-83h-42v83h-193l-5 32zM74 468h146v188z" />
    <glyph glyph-name="five.num" horiz-adv-x="352" 
d="M91 565h83q72 0 107.5 -30t35.5 -81t-36 -83t-106 -32q-56 0 -94.5 23.5t-39.5 78.5h41q-1 -34 25.5 -48.5t67.5 -14.5q54 0 77 22.5t23 53.5q0 30 -23 51.5t-78 21.5h-123v173h247v-38h-207v-97z" />
    <glyph glyph-name="six.num" horiz-adv-x="366" 
d="M91 592v-73q34 42 100 42q57 0 97.5 -28t40.5 -84q0 -55 -40.5 -82.5t-97.5 -27.5q-58 0 -99 28t-41 84v141q0 57 39.5 86t95.5 29q57 0 94 -23t41 -68h-41q-2 24 -26 38.5t-68 14.5q-43 0 -69 -19.5t-26 -57.5zM191 377q36 0 66 18t30 54q0 39 -29 57t-67 18
q-36 0 -66.5 -20t-31.5 -54q0 -37 30 -55t68 -18z" />
    <glyph glyph-name="seven.num" horiz-adv-x="310" 
d="M293 700l4 -21l-169 -334h-47l161 316h-171l-2 -56h-39v95h263z" />
    <glyph glyph-name="eight.num" horiz-adv-x="373" 
d="M40 439q0 36 22 59t57 31q-31 7 -51.5 27.5t-20.5 52.5q0 49 42.5 73.5t97.5 24.5t97.5 -24t42.5 -74q0 -59 -72 -80q33 -8 55.5 -31.5t22.5 -57.5q0 -55 -44 -80t-102 -25q-59 0 -103 24.5t-44 79.5zM284 609q0 33 -30 47t-67 14q-36 0 -66.5 -14t-30.5 -47
q-1 -30 28.5 -45.5t68.5 -15.5t68 15t29 46zM290 440q0 35 -31.5 52t-72.5 17q-40 0 -71.5 -17.5t-31.5 -52.5q1 -35 34.5 -50.5t69.5 -15.5t69 15.5t34 51.5z" />
    <glyph glyph-name="nine.num" horiz-adv-x="363" 
d="M175 670q-37 0 -66 -17.5t-29 -55.5q0 -39 28.5 -56.5t67.5 -17.5q36 0 66 19.5t31 53.5q0 39 -29.5 56.5t-68.5 17.5zM275 454v74q-34 -42 -99 -42q-58 0 -98 27t-40 84q0 53 41 82t96 29q58 0 99.5 -28.5t41.5 -83.5v-142q0 -58 -39.5 -86t-97.5 -28q-57 0 -94 23
t-41 68h41q5 -53 93 -53q44 0 70.5 19.5t26.5 56.5z" />
    <glyph glyph-name="zero.tf" 
d="M82 265v171q0 131 77.5 202.5t190.5 71.5t190 -72t77 -202v-171q0 -130 -77 -202t-190 -72q-114 0 -191 71.5t-77 202.5zM134 436v-171q0 -108 62 -166.5t154 -58.5q93 0 154 59t61 166v171q0 106 -61.5 165.5t-153.5 59.5q-91 0 -153.5 -58.5t-62.5 -166.5z" />
    <glyph glyph-name="one.tf" 
d="M133 0v44h210v597l-189 -35v46l241 48v-656h197v-44h-459z" />
    <glyph glyph-name="two.tf" 
d="M132 158v-109h436l1 105h46v-154h-535v158q0 45 16 79.5t42 55.5t62.5 35t73.5 19t78 5q87 0 148 35.5t61 118.5q0 44 -18.5 76.5t-50.5 49t-66.5 24t-73.5 7.5q-38 0 -72.5 -7t-67 -22.5t-51.5 -46.5t-19 -74h-51q0 54 21.5 93.5t60 60.5t83 31t96.5 10t96 -10.5t82 -33
t60 -63t22 -95.5t-22.5 -95.5t-61 -63t-82 -33t-92.5 -10.5q-222 0 -222 -146z" />
    <glyph glyph-name="three.tf" 
d="M156 653l-2 -107h-47v154h487v-26l-203 -267q104 -7 166.5 -57t62.5 -150q0 -101 -78.5 -156.5t-193.5 -55.5q-68 0 -126 18.5t-99 63t-41 108.5h51q1 -72 65.5 -107.5t149.5 -35.5q93 0 158 42t65 122q0 52 -20 87t-57 51.5t-75 22.5t-88 6l-8 20q23 32 100 134t99 133
h-366z" />
    <glyph glyph-name="four.tf" 
d="M484 0v158h-424l-7 54l416 488h68v-492h88v-50h-88v-158h-53zM113 208h371v433z" />
    <glyph glyph-name="five.tf" 
d="M151 429h227q68 0 118.5 -18t78.5 -49.5t40.5 -68.5t12.5 -80q0 -95 -69 -156.5t-203 -61.5q-40 0 -76.5 5.5t-73 19.5t-62.5 35.5t-42.5 57t-16.5 80.5h53q0 -146 218 -146q110 0 164.5 44t54.5 121q0 72 -45 120.5t-153 48.5h-275v319h487v-47h-438v-224z" />
    <glyph glyph-name="six.tf" 
d="M141 517v-198q74 104 225 104q52 0 99 -12.5t87 -37t63.5 -67.5t23.5 -99q0 -57 -24 -100t-64 -67.5t-87 -36t-99 -11.5q-71 0 -131 20.5t-102.5 71.5t-42.5 126v306q0 93 78.5 143.5t187.5 50.5q110 0 185 -46t82 -130h-52q-5 62 -65 96t-150 34q-87 0 -150.5 -39
t-63.5 -108zM365 41q56 0 103 13.5t83 52.5t36 100q0 85 -66.5 126.5t-153.5 41.5q-86 0 -155 -43.5t-70 -123.5q0 -45 20 -79t54.5 -52.5t71.5 -27t77 -8.5z" />
    <glyph glyph-name="seven.tf" 
d="M154 652l-2 -107h-46v155h513l6 -39l-362 -661h-58l360 652h-411z" />
    <glyph glyph-name="eight.tf" 
d="M61 184q0 69 48.5 116.5t115.5 61.5q-152 46 -152 162q0 52 25.5 91t68 59.5t88.5 30.5t95 10t94.5 -9.5t88 -30t68.5 -59.5t26 -92q0 -116 -153 -163q69 -15 116.5 -63.5t47.5 -114.5q0 -55 -26 -95t-70 -61.5t-92 -31.5t-100 -10t-100 10t-92 31.5t-70.5 62t-26.5 95.5
zM576 524q0 40 -22.5 70t-59 46t-73 23.5t-72.5 7.5q-35 0 -71 -7t-72.5 -22.5t-59 -46t-22.5 -71.5q0 -38 23 -66.5t59 -43t72.5 -21.5t71.5 -7t71 7t72.5 21.5t59.5 43t23 66.5zM350 341q-35 0 -73 -7.5t-76.5 -24t-63 -49t-24.5 -75.5t24.5 -74.5t63.5 -47t76 -22.5
t72 -7q36 0 72.5 6.5t76 22t64.5 47t26 75.5q0 41 -25.5 73t-64 49t-76.5 25.5t-72 8.5z" />
    <glyph glyph-name="nine.tf" 
d="M334 661q-41 0 -77.5 -8t-70.5 -26t-54 -52t-20 -80q0 -59 35.5 -98.5t83 -54.5t102.5 -15q85 0 154 43.5t70 123.5q0 45 -20 79t-54 52.5t-71.5 27t-77.5 8.5zM559 185v199q-37 -53 -97.5 -79t-128.5 -26q-52 0 -99 12.5t-87 37t-63.5 67.5t-23.5 99q0 57 24 100
t64 67.5t87 36t99 11.5q71 0 131 -20.5t102.5 -71.5t42.5 -126v-306q0 -93 -78.5 -143.5t-187.5 -50.5q-110 0 -185 46t-81 130h52q4 -61 64 -95t150 -34q86 0 150.5 38.5t64.5 107.5z" />
    <glyph glyph-name="bullet.case" horiz-adv-x="337" 
d="M170 250q-43 0 -70.5 26t-27.5 69t27.5 69.5t70.5 26.5q41 0 68 -26.5t27 -69.5q0 -42 -27 -68.5t-68 -26.5z" />
    <glyph glyph-name="periodcentered.case" horiz-adv-x="234" 
d="M156 339q0 -24 -19.5 -34t-39 0t-19.5 34t19.5 34t39 0t19.5 -34z" />
    <glyph glyph-name="braceleft.case" horiz-adv-x="316" 
d="M42 377q79 0 79 118v152q0 85 38.5 116t114.5 14v-38q-54 12 -80 -7.5t-26 -85.5v-151q0 -22 -0.5 -34t-4 -32t-10.5 -31.5t-20.5 -23t-33.5 -16.5q24 -6 39.5 -20t21 -36.5t7 -38t1.5 -42.5v-148q0 -66 25.5 -83.5t80.5 -6.5v-38q-77 -16 -115 13.5t-38 113.5v150
q0 117 -79 117v38z" />
    <glyph glyph-name="braceright.case" horiz-adv-x="316" 
d="M274 377v-38q-79 0 -79 -118v-149q0 -84 -38 -113.5t-115 -13.5v38q55 -11 80.5 7t25.5 83v148q0 28 1.5 43t7 37.5t20.5 36.5t39 20q-24 7 -39 21t-21 36t-7.5 37.5t-1.5 42.5v152q0 66 -25.5 85.5t-79.5 7.5v37q153 34 153 -129v-153q0 -118 79 -118z" />
    <glyph glyph-name="bracketleft.case" horiz-adv-x="327" 
d="M107 -94v882h180v-47h-128v-787h128v-48h-180z" />
    <glyph glyph-name="bracketright.case" horiz-adv-x="327" 
d="M220 788v-882h-180v48h129v787h-129v47h180z" />
    <glyph glyph-name="parenleft.case" horiz-adv-x="330" 
d="M273 804l26 -36q-94 -65 -144 -168.5t-52 -232.5q-1 -123 48.5 -231t146.5 -178l-25 -38q-106 69 -163 189.5t-57 255.5t57 252.5t163 186.5z" />
    <glyph glyph-name="parenright.case" horiz-adv-x="330" 
d="M30 765l26 36q107 -68 163.5 -186t56.5 -253q0 -136 -56.5 -256t-163.5 -188l-25 38q98 70 147.5 178t47.5 231q-2 129 -51.5 232t-144.5 168z" />
    <glyph glyph-name="emdash.case" horiz-adv-x="709" 
d="M78 320v46h553v-46h-553z" />
    <glyph glyph-name="endash.case" horiz-adv-x="601" 
d="M78 318v46h445v-46h-445z" />
    <glyph glyph-name="hyphen.case" horiz-adv-x="505" 
d="M78 317v46h349v-46h-349z" />
    <glyph glyph-name="guillemotleft.case" horiz-adv-x="399" 
d="M295 107l-139 220l139 219h50l-135 -219l135 -220h-50zM51 327l138 219h52l-135 -219l135 -220h-52z" />
    <glyph glyph-name="guillemotright.case" horiz-adv-x="431" 
d="M229 555l138 -219l-138 -220h-50l135 220l-135 219h50zM262 336l-138 -220h-51l135 220l-135 219h51z" />
    <glyph glyph-name="guilsinglleft.case" horiz-adv-x="324" 
d="M201 127l-138 220l138 219h51l-135 -219l135 -220h-51z" />
    <glyph glyph-name="guilsinglright.case" horiz-adv-x="324" 
d="M261 341l-138 -220h-51l135 220l-135 219h51z" />
    <glyph glyph-name="florin.tf" 
d="M356 -1q0 -78 -28.5 -120t-101.5 -44q-51 0 -95 33l23 34q33 -25 71 -25q45 1 64.5 29t19.5 94l-1 449h-143v42h143v49q0 163 146 164q57 0 100 -34l-23 -34q-37 25 -77 25q-49 0 -73.5 -28t-24.5 -93v-49h168v-42h-168v-450z" />
    <glyph glyph-name="cent.tf" 
d="M362 -85v71q-101 9 -166.5 75t-65.5 176q0 109 65 175.5t167 75.5v60h45v-60q93 -10 155 -70l-30 -30q-59 58 -147 58q-90 0 -149 -55t-59 -154q0 -101 59 -154.5t149 -53.5q85 0 149 61l31 -32q-67 -64 -158 -72v-71h-45z" />
    <glyph glyph-name="dollar.tf" 
d="M135 109q91 -73 216 -73q37 0 72.5 6.5t73 21.5t60 46.5t22.5 75.5q0 31 -13 54.5t-34.5 38.5t-52 26t-60 17.5t-63.5 13.5q-8 1 -12 2q-47 9 -76.5 16t-67 21.5t-59 32.5t-36.5 48t-15 68q0 47 20.5 84t55.5 59t77.5 33t90.5 12v92h47v-93q133 -10 214 -77
q0 -23 -0.5 -66.5t-0.5 -67.5h-46l-1 111q-75 54 -202 56q-85 1 -145 -35.5t-60 -108.5q0 -27 12 -48.5t29.5 -35t48.5 -24.5t56.5 -17t65.5 -14q44 -8 69 -13t62.5 -16t59.5 -24.5t44.5 -33t32.5 -47.5t10 -64q-1 -96 -73.5 -143.5t-176.5 -52.5v-91h-46v89q-150 7 -247 96
q0 16 0.5 71t0.5 70h47v-116z" />
    <glyph glyph-name="Euro.tf" 
d="M84 386v44h71q21 123 109.5 201t238.5 78q46 0 91 -12l-12 -45q-39 9 -79 9q-126 0 -200.5 -62.5t-95.5 -168.5h278l-11 -44h-276q-1 -13 -1 -39q0 -28 2 -40h265l-11 -43h-246q21 -104 93.5 -164t200.5 -60q50 0 104 19l14 -47q-59 -21 -118 -21q-153 0 -238 73.5
t-108 198.5h-71v43h65q-2 22 -2 39q0 28 2 41h-65z" />
    <glyph glyph-name="sterling.tf" 
d="M84 0l1 43q50 52 74 102t24 89.5t-8 81.5h-90v42h80q-2 8 -7.5 26t-8 29t-6 27.5t-5 33t-1.5 33.5q0 98 68 148.5t171 50.5q46 0 84.5 -9t71 -29t50.5 -56.5t18 -86.5h-44q-1 137 -180 137q-86 0 -139 -40t-53 -114q0 -19 3 -40.5t6 -35t8.5 -37.5t8.5 -36h262v-43h-252
q36 -155 -78 -270h420l2 111h46v-157h-526z" />
    <glyph glyph-name="yen.tf" 
d="M175 284v40h121l-215 329h-76v47h224v-47h-89l210 -327l210 327h-89v47h224v-47h-76l-215 -329h120v-40h-146l-3 -12v-52h150v-40h-150v-133h96v-47h-243v47h97v133h-148v40h148v53l-3 11h-147z" />
    <glyph glyph-name="bar.case" horiz-adv-x="266" 
d="M108 759h50v-828h-50v828z" />
    <glyph glyph-name="commaaccentcomb.alt" horiz-adv-x="461" 
d="M261 795l-32 -83q24 -9 24 -36q0 -24 -19.5 -34t-39 0t-19.5 35q0 1 4.5 14t11 30.5t13 34.5t10.5 28.5t4 10.5h43z" />
    <glyph glyph-name="_0004" horiz-adv-x="0" 
 />
    <glyph glyph-name="asterisk.alt" horiz-adv-x="347" 
d="M174 574l-46 -63q-7 -10 -18.5 -8.5t-15.5 11t3 19.5l49 60l-73 21q-10 3 -11 13.5t6 18t16 3.5l73 -22l-1 66q0 16 18 16t19 -16l-1 -66l73 21q9 3 15.5 -4.5t5.5 -18t-10 -12.5l-74 -20l47 -60q8 -10 2 -20t-16.5 -10.5t-17.5 8.5z" />
    <glyph glyph-name="_127" horiz-adv-x="500" 
 />
    <glyph glyph-name="_129" horiz-adv-x="500" 
 />
    <glyph glyph-name="_141" horiz-adv-x="500" 
 />
    <glyph glyph-name="_143" horiz-adv-x="500" 
 />
    <glyph glyph-name="_144" horiz-adv-x="500" 
 />
    <glyph glyph-name="_157" horiz-adv-x="500" 
 />
    </font>
</defs>
</svg>
