<?xml version="1.0" encoding="utf-8"?>
<!-- Generator: Adobe Illustrator 25.2.1, SVG Export Plug-In . SVG Version: 6.00 Build 0)  -->
<svg version="1.1" id="Capa_1" xmlns="http://www.w3.org/2000/svg" xmlns:xlink="http://www.w3.org/1999/xlink" x="0px" y="0px"
	 viewBox="0 0 273 77" style="enable-background:new 0 0 273 77;" xml:space="preserve">
<style type="text/css">
	.st0{fill:#D1345A;}
</style>
<g>
	<g>
		<path class="st0" d="M263.92,28.94l-0.82,3.64h-0.76l0.82-3.64h-1.37l0.16-0.73h3.5l-0.16,0.73H263.92z"/>
		<path class="st0" d="M266.22,32.59h-0.76l0.98-4.37h1.21l0.77,2.75l2-2.75h1.2l-0.98,4.37h-0.76l0.78-3.48l-2.33,3.04h-0.43
			L267,29.11L266.22,32.59z"/>
	</g>
	<path class="st0" d="M58.4,18.26c0,1.7-1.38,3.07-3.07,3.07c-1.7,0-3.07-1.38-3.07-3.07c0-1.7,1.38-3.07,3.07-3.07
		C57.03,15.19,58.4,16.57,58.4,18.26z"/>
	<g>
		<path class="st0" d="M75.98,31.32c-4.95,0.01-9.03,3.23-9.03,9.36c0,5.87,4.09,9.25,9.05,9.25c5.02,0,9-3.74,9-9.31
			C85.01,35.12,80.99,31.33,75.98,31.32z"/>
		<path class="st0" d="M86.82,0.54c-11.04,0-20.99,4.7-27.94,12.22l0,0c21.33-14.89,27.24,18.69-5.54,10.79
			C13.57,13.97,1.26,38.61,1.26,38.61c23.71-23.71,53.03-4.29,48.05,6.53c-4.94,10.74-24.02-2.3-24.02-2.3
			C41.42,66,67.16,67.11,77.31,66.55c4.63-0.27,2.08,2.51,1.5,3.09c-3.83,3.62-7.76,3.63-7.76,3.63l0,0
			c4.81,2.19,10.15,3.41,15.78,3.41c21.03,0,38.07-17.04,38.07-38.07C124.89,17.58,107.85,0.54,86.82,0.54z M62.12,53.67
			c-4.2,0-8.45,0-12.65,0v-3.92h4.22V31.68h-4.07v-3.92h8.28v21.99h4.22V53.67z M110.62,53.52v-3.3l-4.95-6.96l-4.9,6.5h3.53v3.77
			H93.6v-3.77h-0.45v3.77h-7.41l-0.52-4.69c-2.07,3.46-5.76,5.11-9.59,5.11c-7.21,0-12.96-4.75-12.96-13.15
			c0-8.61,5.76-13.2,12.91-13.2c3.68,0,7.78,1.6,9.59,5.05V20.99h-4.22v-3.77h8.43v32.53h4.22l0,0h2.56l6.96-9.42l-5.89-8.8h-3.48
			v-3.77h7.98v3.34l4.3,6.63l4.51-6.21h-3.39v-3.77h11.3v3.77h-3.25l-6.61,8.93l6.61,9.29h3.56v3.77H110.62z"/>
	</g>
	<g>
		<path class="st0" d="M126.33,53.82l0.82-4.67h4.1l4.81-27.26h-4l0.8-4.52h9.13l-2.61,14.79c1.97-2.92,6.53-4.58,9.86-4.58
			c7.39,0,12.33,4.43,10.75,13.38c-1.51,8.59-8.02,13.33-15.5,13.28c-3.49,0-6.96-1.25-8.24-4.32l-1,3.91H126.33z M138.17,40.81
			c-0.96,5.46,2.49,8.58,6.85,8.58c4.57,0,8.76-3.12,9.7-8.47c1-5.67-2.23-8.58-6.8-8.58C143.77,32.34,139.12,35.4,138.17,40.81z"/>
		<path class="st0" d="M177.35,27.45c8.1,0,12.45,5.67,11.07,13.52c-1.34,7.59-7.8,13.31-15.8,13.31c-7.95,0-12.39-5.72-11.05-13.31
			C162.94,33.17,169.51,27.45,177.35,27.45z M176.58,32.13c-4.93,0-8.95,3.64-9.87,8.84c-0.84,4.78,1.78,8.47,6.76,8.47
			c5.04,0,8.96-3.69,9.86-8.47C184.25,35.77,181.36,32.13,176.58,32.13z"/>
		<path class="st0" d="M205.76,27.45c8.1,0,12.45,5.67,11.07,13.52c-1.34,7.59-7.8,13.31-15.8,13.31c-7.95,0-12.39-5.72-11.05-13.31
			C191.35,33.17,197.92,27.45,205.76,27.45z M204.99,32.13c-4.93,0-8.95,3.64-9.87,8.84c-0.84,4.78,1.78,8.47,6.76,8.47
			c5.04,0,8.96-3.69,9.86-8.47C212.66,35.77,209.77,32.13,204.99,32.13z"/>
		<path class="st0" d="M240.33,36.2h-4.34l0.35-3.73c-0.93-0.57-3.78-0.83-4.97-0.83c-3.19-0.1-6.02,1.29-6.39,3.67
			c-0.33,2.17,2.39,2.85,5.19,3.1c4.71,0.57,11.01,1.5,9.73,8.12c-1.06,5.12-6.26,7.92-12.46,7.92c-4.19,0-7.18-0.93-10.41-3.1
			l1.29-6.73h4.5l-0.44,3.67c1.84,0.98,3.89,1.4,6.01,1.4c2.17,0,5.85-0.36,6.54-3.36c0.47-2.38-2.07-3.21-5.83-3.57
			c-5.1-0.67-10.04-1.97-9.08-7.45c0.95-5.69,7.32-8.07,12.01-8.02c3.31,0,6.95,0.78,9.53,2.23L240.33,36.2z"/>
		<path class="st0" d="M254.64,20.92l-1.29,7.3h7.44l-0.77,4.37h-7.49l-2.18,12.38c-0.48,2.72,0.31,4.37,2.88,4.37
			c1.08,0,2.21-0.31,3.33-0.82l0.69,4.21c-1.88,0.77-3.33,1.13-5.09,1.18c-5.47,0.15-7.87-3.13-6.84-8.94l2.18-12.38h-4.93
			l0.77-4.37h4.93l1.19-6.73L254.64,20.92z"/>
	</g>
</g>
</svg>
