<?xml version="1.0" standalone="no"?>
<!DOCTYPE svg PUBLIC "-//W3C//DTD SVG 1.1//EN" "http://www.w3.org/Graphics/SVG/1.1/DTD/svg11.dtd" >
<svg xmlns="http://www.w3.org/2000/svg">
<metadata>Generated by IcoMoon</metadata>
<defs>
<font id="crm-icons" horiz-adv-x="1024">
<font-face units-per-em="1024" ascent="960" descent="-64" />
<missing-glyph horiz-adv-x="1024" />
<glyph unicode="&#x20;" horiz-adv-x="512" d="" />
<glyph unicode="&#xe900;" glyph-name="ms-pinterest" d="M441.19 282.778c-26.931-141.005-59.75-276.173-157.082-346.778-30.003 213.094 44.083 373.094 78.541 542.976-58.726 98.816 7.066 297.574 130.816 248.576 152.32-60.211-131.891-367.206 58.88-405.606 199.219-39.987 280.525 345.6 156.979 470.989-178.432 181.146-519.475 4.25-477.491-255.078 10.189-63.386 75.674-82.586 26.163-170.086-114.227 25.293-148.326 115.405-143.923 235.52 7.066 196.608 176.589 334.182 346.675 353.28 215.091 24.115 416.973-79.002 444.877-281.293 31.386-228.403-97.075-475.802-327.117-457.984-62.362 4.864-88.474 35.789-137.318 65.485z" />
<glyph unicode="&#xe901;" glyph-name="ms-arrow" d="M304.022 960l-96.017-96.007 417.234-417.203-417.234-414.773 96.017-96.017 511.974 512.005z" />
<glyph unicode="&#xe902;" glyph-name="ms-edit-pencil" d="M713.388 903.363l-633.296-633.296c-5.489-5.441-9.851-12.572-12.103-20.828l-70.366-258.010c-2.158-7.647-2.299-16.232 0-24.675 6.802-25.003 32.603-39.734 57.607-32.931l258.010 70.366c7.459 1.97 14.777 6.051 20.828 12.103l633.296 633.296c35.042 35.042 52.587 81.109 52.587 126.988s-17.544 91.946-52.587 126.988-81.109 52.587-126.988 52.587-91.946-17.544-126.988-52.587zM779.72 837.032c16.747 16.747 38.654 25.098 60.656 25.098s43.909-8.35 60.656-25.144 25.098-38.608 25.098-60.608-8.35-43.909-25.098-60.656l-624.477-624.477-166.815-45.504 45.504 166.768z" />
<glyph unicode="&#xe903;" glyph-name="ms-filter" d="M211.4 264.4v568.6h-84.4v-568.4l-67.8 74.2-59.8-65.2 170-185.4 169.8 185.4-59.6 65.2zM426 405.8v84.4h511.8v-84.4h-511.8zM426 745.6h598v-83.8h-598v83.8zM426 150.8v83h470v-83h-470z" />
<glyph unicode="&#xe904;" glyph-name="ms-hidden" d="M120 858.2h902.6v-53.8h-902.6v53.8zM0 91.6h1024v-53.8h-1024v53.8zM0.2 474.8h1024v-53.8h-1024v53.8zM253.6 831.6c0-70.8-56.6-128.4-126.4-128.4s-126.2 57.6-126.2 128.4 56.6 128.4 126.4 128.4 126.2-57.6 126.2-128.4zM918.2 448c0-70.6-56.4-128-126-128s-126 57.4-126 128 56.4 128 126 128 126-57.4 126-128zM443.6 64.2c0-70.8-56.6-128.2-126.2-128.2s-126.2 57.4-126.2 128.2 56.6 128.2 126.2 128.2c69.6 0 126.2-57.4 126.2-128.2z" />
<glyph unicode="&#xe905;" glyph-name="ms-close" d="M96.017 960l-96.017-96.007 417.234-417.203-417.234-414.773 96.017-96.017 511.974 512.005zM923.987-64l96.017 96.007-417.234 417.203 417.234 414.773-96.017 96.017-511.974-512.005z" />
<glyph unicode="&#xe906;" glyph-name="ms-add" d="M553.8 653.8c0-101.952-82.648-184.6-184.6-184.6s-184.6 82.648-184.6 184.6c0 101.952 82.648 184.6 184.6 184.6s184.6-82.648 184.6-184.6zM369.2 410.8c-196 0-356.4-152.4-369.2-345.2h738.4c-12.8 192.6-173.2 345.2-369.2 345.2zM990.8 482.2h-125.6v125.6c0 18.2-14.8 33.2-33.2 33.2-18.2 0-33.2-14.8-33.2-33.2v-125.6h-125.6c-18.2 0-33.2-14.8-33.2-33.2 0-18.2 14.8-33.2 33.2-33.2h125.6v-125.6c0-18.2 14.8-33.2 33.2-33.2 18.2 0 33.2 14.8 33.2 33.2v125.6h125.6c18.2 0 33.2 14.8 33.2 33.2 0 18.2-14.8 33.2-33.2 33.2z" />
<glyph unicode="&#xe907;" glyph-name="ms-lupa" d="M594.8 960v0c-235.6 0-426.6-191-426.6-426.6 0-74.2 19-143.8 52.2-204.6l-194.8-194.8c-34.2-34.2-34.2-90 0-124.2l48.2-48.2c34.2-34.2 90-34.2 124.2 0l195.4 195.4c60-32.2 128.6-50.4 201.4-50.4 235.8 0 426.8 191 426.8 426.6 0 235.8-191.2 426.8-426.8 426.8zM594.8 809.2c152.4 0 276-123.6 276-276s-123.6-276-276-276c-152.4 0-276 123.6-276 276 0.2 152.6 123.6 276 276 276v0z" />
<glyph unicode="&#xe908;" glyph-name="ms-phone" d="M933.641 210.148c-58.2 26.6-113.6 57.8-165.8 93.4-37.2-33-74.4-65.8-111.8-98.8-26.6-23.4-81-20.8-118.8 9.6-99 79.6-183.6 175.4-250.4 283.2-25.6 41.2-21.6 95.6 4.8 119 37.2 33 74.6 65.8 111.8 98.8-28.8 56.2-53.2 115-72.4 176-21.2 67.4-71.6 89-121.6 44.8-37.6-33.2-75-66.4-112.6-99.6-49.8-44-80-137-58.8-204.2 95-302.2 314.2-550 602.4-681.4 64-29.4 160.2-10.6 210 33.4 37.6 33.2 75.2 66.4 112.8 99.8 49.8 44 34.6 96.6-29.6 126z" />
<glyph unicode="&#xe909;" glyph-name="ms-open-email" d="M966.4 598.4l-396.8 342.4c-9.6 6.4-16 12.8-25.6 16-6.4 0-9.6 3.2-16 3.2s-9.6 0-16 0c-22.4 0-41.6-6.4-57.6-19.2l-396.8-342.4c-32-28.8-57.6-83.2-57.6-124.8v-460.8c0-25.6 12.8-51.2 35.2-64 12.8-9.6 25.6-12.8 41.6-12.8h870.4c16 0 28.8 3.2 41.6 12.8 22.4 12.8 35.2 38.4 35.2 64v460.8c0 41.6-25.6 99.2-57.6 124.8v0zM499.2 854.4c0 0 0 0 0 0 3.2 3.2 6.4 3.2 9.6 3.2 0 0 3.2 0 3.2 0s3.2 0 3.2 0 6.4-3.2 9.6-3.2l364.8-313.6-281.6-240-41.6 35.2c-16 12.8-35.2 19.2-54.4 19.2s-38.4-6.4-54.4-19.2l-41.6-35.2-284.8 243.2c0-3.2 368 310.4 368 310.4zM96 32c-3.2 0-9.6 3.2-9.6 9.6v422.4c0 3.2 0 9.6 3.2 16l268.8-227.2-262.4-220.8zM204.8 22.4l294.4 249.6c3.2 3.2 9.6 3.2 12.8 3.2 6.4 0 9.6 0 12.8-3.2l35.2-28.8 259.2-220.8c0 0-614.4 0-614.4 0zM665.6 256l268.8 227.2c0-6.4 3.2-12.8 3.2-16v-425.6c0-3.2-3.2-9.6-9.6-9.6h-3.2l-259.2 224z" />
<glyph unicode="&#xe90a;" glyph-name="ms-phone-msg" d="M634.25 360.625v280.311c0 55.125-45 100.125-100.125 100.125h-402c-55.125 0-100.125-45-100.125-100.125v-280.311c0-54.938 45-100.125 100.125-100.125h280.5c3.939-115.5 198.938-104.438 198.938-104.438-85.5 27.75-79.875 85.125-75.188 104.625 54 1.125 97.875 45.561 97.875 99.938zM92 360.625v280.311c0 21.75 18.375 40.125 40.125 40.125h402c21.75 0 39.938-18.375 39.938-40.125v-280.311c0-21.75-18.375-40.125-39.938-40.125h-402c-21.75 0.189-40.125 18.561-40.125 40.125zM240.5 500.875c0-28.875-23.439-52.311-52.311-52.311s-52.311 23.439-52.311 52.311c0 28.875 23.439 52.311 52.311 52.311s52.311-23.439 52.311-52.311zM533 500.875c0-28.875-23.439-52.311-52.311-52.311s-52.311 23.439-52.311 52.311c0 28.875 23.439 52.311 52.311 52.311s52.311-23.439 52.311-52.311zM386.75 500.875c0-28.875-23.439-52.311-52.311-52.311s-52.311 23.439-52.311 52.311c0 28.875 23.439 52.311 52.311 52.311s52.311-23.439 52.311-52.311zM902.938 927.999h-455.25c-48.938 0-89.061-40.125-89.061-89.061v-75.561h90.188v21h458.438v-688.873h-458.438v70.688c-29.625 17.625-48.938 42-55.875 72h-34.5v-181.124c0-48.938 40.125-89.061 89.061-89.061h455.438c48.938 0 89.061 40.125 89.061 89.061v781.873c0 48.938-40.125 89.061-89.061 89.061zM583.438 849.624c-7.311 0-13.311 6-13.311 13.311s6 13.311 13.311 13.311c7.311 0 13.311-6 13.311-13.311s-6-13.311-13.311-13.311zM734.938 849.624h-93.75c-11.061 0-19.875 6-19.875 13.311s9 13.311 19.875 13.311h93.75c10.875 0 19.875-6 19.875-13.311s-8.811-13.311-19.875-13.311zM677.75-2c-21 0-38.061 17.061-38.061 38.061s17.061 38.061 38.061 38.061c21 0 38.061-17.061 38.061-38.061s-17.061-38.061-38.061-38.061z" />
<glyph unicode="&#xe90b;" glyph-name="ms-rocket" d="M248.732 354.775l2.999 7.202c4.801 11.601 10.001 23.207 15.804 35.608 23.604 50.612 51.814 99.627 83.823 147.238l-109.829 5.601-191.050-295.876 189.649 77.819c2.8 7.802 5.803 15.204 8.602 22.407zM521.402 180.333c-11.601-7.6-22.205-14.605-32.81-21.204l-6.603-4.001c-6.603-4.001-13.604-8.204-20.605-12.205l-47.813-199.249 262.866 234.459-22.608 107.826c-42.010-39.010-86.225-74.418-132.432-105.626zM883.295 937.327c-26.608-9.2-52.212-19.407-76.621-30.608-5.803-2.602-11.601-5.401-17.203-8.204-7.802-3.799-15.406-7.6-23.006-11.601-33.61-17.404-65.216-36.208-95.425-56.414-83.823-56.414-156.042-122.832-219.658-196.652-63.415-74.020-118.032-155.44-160.843-246.865-5.401-11.405-10.403-23.006-15.406-34.808-4.801-11.803-9.804-23.604-14.203-36.011-2.999-8.002-6-16.206-8.802-24.606l166.842-142.835c7.802 4.001 15.406 8.204 23.006 12.401 11.405 6.201 22.205 13.005 33.208 19.603 10.801 6.8 21.607 13.604 32.010 20.605 83.823 56.414 156.042 123.030 219.255 197.050 63.216 74.22 117.63 155.84 160.441 247.264 15.406 33.008 29.207 67.216 41.21 103.025 2.8 8.002 5.401 16.206 7.802 24.606 1.802 6 3.6 12.205 5.401 18.204 7.202 25.808 13.403 52.615 18.405 80.421 4.801 28.008 8.602 56.616 9.2 88.222-31.008-5.401-58.815-13.805-85.621-22.804zM790.87 640.651c-26.006-30.409-71.82-34.008-102.027-8.002-30.409 26.006-34.008 71.82-8.002 102.027 26.006 30.409 71.82 34.008 102.027 8.002 30.608-25.808 34.008-71.619 8.002-102.027zM271.537 38.094c8.204 5.401 25.008 25.008 41.612 55.015-51.215 0-106.426-22.004-135.834-60.016 14.605 43.409-2.401 91.624 70.019 130.033-36.609 6.201-58.815 2.8-83.421-11.002 13.005 22.608 21.405 70.416 81.82 90.624-101.026-10.001-129.834-139.236-162.641-167.643 42.010-5.401 45.009 36.208 92.022 44.611-88.625-48.613-65.016-156.24-103.825-181.845 104.428-17.203 116.030 98.026 177.245 110.427-53.813-28.809-47.813-74.418-52.615-94.423 23.408 39.61 150.439 49.012 172.846 175.645-12.603-36.409-62.416-93.024-97.226-91.424z" />
<glyph unicode="&#xe90c;" glyph-name="ms-attach" d="M236.8-64c-48 0-99.2 19.2-134.4 57.6-73.6 73.6-73.6 195.2 0 272l435.2 435.2c51.2 51.2 137.6 51.2 188.8 0s51.2-137.6 0-188.8l-326.4-326.4c-12.8-12.8-35.2-12.8-48 0s-12.8 35.2 0 48l326.4 326.4c25.6 25.6 25.6 67.2 0 89.6-25.6 25.6-67.2 25.6-89.6 0l-438.4-435.2c-48-48-48-124.8 0-172.8s124.8-48 172.8 0l544 544c35.2 35.2 51.2 80 51.2 128s-19.2 92.8-51.2 128c-70.4 70.4-182.4 70.4-252.8 0l-435.2-435.2c-12.8-12.8-35.2-12.8-48 0s-12.8 35.2 0 48l428.8 432c96 96 256 96 352 0 48-48 73.6-108.8 73.6-176s-25.6-128-73.6-176l-544-544c-35.2-35.2-83.2-54.4-131.2-54.4z" />
<glyph unicode="&#xe90d;" glyph-name="ms-agent" d="M480 352c-3.2 3.2-6.4 6.4-6.4 12.8v25.6c0 9.6 6.4 16 16 16h44.8c9.6 0 16-6.4 16-16v-25.6c0-3.2-3.2-9.6-6.4-9.6l32-70.4-67.2-160-64 163.2 35.2 64zM1024-35.2h-1024c38.4 227.2 131.2 412.8 323.2 486.4l188.8-486.4 188.8 483.2c188.8-73.6 284.8-259.2 323.2-483.2zM278.4 697.6c0 128 105.6 233.6 233.6 233.6s233.6-105.6 233.6-233.6c0-128-105.6-233.6-233.6-233.6s-233.6 105.6-233.6 233.6z" />
<glyph unicode="&#xe90e;" glyph-name="ms-view" d="M1011.201 470.4c-3.2 3.2-57.6 70.4-144 140.801-51.2 41.6-105.6 73.6-156.8 96-67.2 32-134.4 48-198.4 48s-131.2-16-198.4-44.8c-51.2-22.4-105.6-57.6-156.8-96-89.601-70.4-140.801-137.6-144-140.801l-12.801-19.2 12.801-16c3.2-3.2 57.6-70.4 144-140.801 51.2-41.6 105.6-73.6 156.8-96 67.2-28.8 134.4-44.8 198.4-44.8s131.2 16 198.4 44.8c51.2 22.4 105.6 57.6 156.8 96 86.4 70.4 140.801 137.6 144 140.801l12.801 16-12.801 16zM512 224c-128 0-233.6 105.6-233.6 233.6s105.6 233.6 233.6 233.6c128 0 233.6-105.6 233.6-233.6 0-131.2-105.6-233.6-233.6-233.6zM512 608c-22.4 0-44.8-6.4-64.001-16 16-9.6 28.8-28.8 28.8-48 0-28.8-25.6-54.4-54.4-54.4-22.4 0-38.401 12.801-48 28.8-9.6-19.2-16-41.6-16-64.001 0-86.4 67.2-153.6 153.6-153.6s153.6 67.2 153.6 153.6-67.2 153.6-153.6 153.6z" />
<glyph unicode="&#xe90f;" glyph-name="ms-update" d="M512 844.8c121.6 0 230.4-54.4 304-144l-118.4-67.2 326.4-185.6v371.2l-105.6-60.8c-96 121.6-240 201.6-406.4 201.6-230.4 0-425.6-153.6-489.6-364.8l105.6-57.6c41.6 176 198.4 307.2 384 307.2zM512 51.2c-121.6 0-230.4 54.4-304 144l118.4 67.2-326.4 185.6v-371.2l105.6 60.8c96-121.6 240-201.6 406.4-201.6 230.4 0 425.6 153.6 489.6 364.8l-105.6 57.6c-41.6-176-198.4-307.2-384-307.2z" />
<glyph unicode="&#xe910;" glyph-name="ms-save" d="M937.6-64h-851.2c-38.4 0-67.2 28.8-67.2 67.2v889.6c0 38.4 32 67.2 67.2 67.2h80c0 0 0-246.4 0-336 0-22.4 9.6-32 28.8-32 92.8 0 374.4 0 473.6 0 19.2 0 44.8 19.2 44.8 41.6 0 89.6 0 326.4 0 326.4h83.2l201.6-217.6v-739.2c6.4-38.4-25.6-67.2-60.8-67.2v0zM873.6 457.6c0 19.2-16 35.2-32 35.2h-640c-19.2 0-32-16-32-35.2v-387.2c0-19.2 16-35.2 32-35.2h640c19.2 0 32 16 32 35.2v387.2zM755.2 121.6h-486.4c-19.2 0-35.2 16-35.2 35.2s16 32 35.2 32h486.4c19.2 0 32-16 32-32 3.2-22.4-12.8-35.2-32-35.2v0zM755.2 288h-486.4c-19.2 0-35.2 16-35.2 35.2s16 32 35.2 32h486.4c19.2 0 32-16 32-32 3.2-19.2-12.8-35.2-32-35.2v0zM566.4 640h-240c-28.8 0-54.4 16-54.4 32v220.8c0 19.2 25.6 35.2 54.4 35.2h240c32 0 54.4-16 54.4-35.2v-217.6c0-19.2-22.4-35.2-54.4-35.2v0z" />
<glyph unicode="&#xe911;" glyph-name="ms-favorite" d="M518.4-9.6c0 0-201.6 108.8-368 294.4-166.4 188.8-150.4 342.4-150.4 342.4 0 121.6 105.6 268.8 262.4 268.8s249.6-172.8 249.6-172.8v0c0 0 89.6 172.8 249.6 172.8 156.8 0 262.4-147.2 262.4-268.8 0 0 16-153.6-150.4-342.4-166.4-182.4-352-294.4-355.2-294.4v0z" />
<glyph unicode="&#xe912;" glyph-name="ms-instagram" d="M682.653 448c0 93.992-76.66 170.653-170.653 170.653s-170.653-76.66-170.653-170.653 76.66-170.653 170.653-170.653 170.653 76.66 170.653 170.653zM774.645 448c0-145.321-117.323-262.645-262.645-262.645s-262.645 117.323-262.645 262.645 117.323 262.645 262.645 262.645 262.645-117.323 262.645-262.645zM846.639 721.311c0-33.997-27.332-61.328-61.328-61.328s-61.328 27.332-61.328 61.328 27.332 61.328 61.328 61.328 61.328-27.332 61.328-61.328zM512 867.966c-74.661 0-234.648 6-301.975-20.665-23.331-9.333-40.663-20.665-58.662-38.664s-29.331-35.331-38.664-58.662c-26.664-67.328-20.665-227.315-20.665-301.975s-6-234.648 20.665-301.975c9.333-23.331 20.665-40.663 38.664-58.662s35.331-29.331 58.662-38.664c67.328-26.664 227.315-20.665 301.975-20.665s234.648-6 301.975 20.665c23.331 9.333 40.663 20.665 58.662 38.664s29.331 35.331 38.664 58.662c26.664 67.328 20.665 227.315 20.665 301.975s6 234.648-20.665 301.975c-9.333 23.331-20.665 40.663-38.664 58.662s-35.331 29.331-58.662 38.664c-67.328 26.664-227.315 20.665-301.975 20.665zM1023.958 448c0-70.66 0.666-140.655-3.333-211.316-4-81.994-22.665-154.654-82.66-214.649s-132.656-78.661-214.649-82.66c-70.66-4-140.655-3.333-211.316-3.333s-140.655-0.666-211.316 3.333c-81.994 4-154.654 22.665-214.649 82.66s-78.661 132.656-82.66 214.649c-4 70.66-3.333 140.655-3.333 211.316s-0.666 140.655 3.333 211.316c4 81.994 22.665 154.654 82.66 214.649s132.656 78.661 214.649 82.66c70.66 4 140.655 3.333 211.316 3.333s140.655 0.666 211.316-3.333c81.994-4 154.654-22.665 214.649-82.66s78.661-132.656 82.66-214.649c4-70.66 3.333-140.655 3.333-211.316z" />
<glyph unicode="&#xe913;" glyph-name="ms-youtube" d="M620.75 261.571v-113.035c0-24.106-6.965-35.894-20.894-35.894-8.035 0-16.071 3.75-24.106 11.785v161.25c8.035 8.035 16.071 11.785 24.106 11.785 13.929 0 20.894-12.321 20.894-35.894zM801.821 261.035v-24.644h-48.215v24.644c0 24.106 8.035 36.429 24.106 36.429s24.106-12.321 24.106-36.429zM284.321 377.821h57.321v50.356h-167.144v-50.356h56.25v-304.821h53.571v304.821zM438.606 73h47.679v264.644h-47.679v-202.5c-10.715-15-20.894-22.5-30.535-22.5-6.429 0-10.179 3.75-11.25 11.25-0.535 1.606-0.535 7.5-0.535 18.75v195h-47.679v-209.465c0-18.75 1.606-31.071 4.285-39.106 4.285-13.394 15.535-19.821 31.071-19.821 17.144 0 35.356 10.715 54.644 32.679v-28.929zM668.429 152.285v105.535c0 24.644-1.071 42.321-4.821 53.035-5.894 19.821-19.285 30-38.035 30-17.679 0-34.285-9.644-49.821-28.929v116.25h-47.679v-355.179h47.679v25.715c16.071-19.821 32.679-29.465 49.821-29.465 18.75 0 32.144 10.179 38.035 29.465 3.75 11.25 4.821 28.929 4.821 53.571zM849.5 157.644v6.965h-48.75c0-19.285-0.535-30-1.071-32.679-2.679-12.856-9.644-19.285-21.429-19.285-16.606 0-24.644 12.321-24.644 36.965v46.606h95.894v55.179c0 28.394-4.821 48.75-14.465 62.144-13.929 18.215-32.679 27.321-56.785 27.321-24.644 0-43.394-9.106-57.321-27.321-10.179-13.394-15-33.75-15-62.144v-92.679c0-28.394 5.356-49.285 15.535-62.144 13.929-18.215 32.679-27.321 57.856-27.321s45 9.644 57.856 28.394c5.894 8.571 10.179 18.215 11.25 28.929 1.071 4.821 1.071 15.535 1.071 31.071zM523.786 646.75v112.5c0 24.644-6.965 36.965-23.035 36.965-15.535 0-23.035-12.321-23.035-36.965v-112.5c0-24.644 7.5-37.5 23.035-37.5 16.071 0 23.035 12.856 23.035 37.5zM908.965 244.429c0-61.606-0.535-127.5-13.929-187.5-10.179-42.321-44.465-73.394-85.715-77.679-98.571-11.25-198.215-11.25-297.321-11.25s-198.75 0-297.321 11.25c-41.25 4.285-76.071 35.356-85.715 77.679-13.929 60-13.929 125.894-13.929 187.5v0c0 62.144 0.535 127.5 13.929 187.5 10.179 42.321 44.465 73.394 86.25 78.215 98.035 10.715 197.679 10.715 296.785 10.715s198.75 0 297.321-10.715c41.25-4.821 76.071-35.894 85.715-78.215 13.929-60 13.929-125.356 13.929-187.5zM374.321 928h54.644l-64.821-213.75v-145.179h-53.571v145.179c-4.821 26.25-15.535 63.75-32.679 113.571-11.785 33.215-23.571 66.965-34.821 100.179h56.785l38.035-140.894zM572.536 749.606v-93.75c0-28.394-4.821-49.821-15-63.215-13.394-18.215-32.144-27.321-56.785-27.321-24.106 0-42.856 9.106-56.25 27.321-10.179 13.929-15 34.821-15 63.215v93.75c0 28.394 4.821 49.285 15 62.679 13.394 18.215 32.144 27.321 56.25 27.321 24.644 0 43.394-9.106 56.785-27.321 10.179-13.394 15-34.285 15-62.679zM752 836.394v-267.321h-48.75v29.465c-19.285-22.5-37.5-33.215-55.179-33.215-15.535 0-26.785 6.429-31.606 19.821-2.679 8.035-4.285 20.894-4.285 40.179v211.071h48.75v-196.606c0-11.25 0-17.679 0.535-18.75 1.071-7.5 4.821-11.785 11.25-11.785 9.644 0 19.821 7.5 30.535 23.035v204.106h48.75z" />
<glyph unicode="&#xe914;" glyph-name="ms-fire" d="M249.6 380.8v0c0 0 0-32 28.8-64 6.4-6.4 28.8-25.6 25.6 12.8-3.2 83.2 3.2 297.6 198.4 432 0 0-108.8-160-19.2-198.4 89.6-41.6 252.8 201.6 54.4 400 0 0 204.8-102.4 124.8-432-67.2-272 214.4-224 89.6-44.8v0c64-57.6 102.4-140.8 102.4-233.6 0-176-140.8-316.8-316.8-316.8s-316.8 140.8-316.8 316.8c0 44.8 9.6 89.6 28.8 128z" />
<glyph unicode="&#xe915;" glyph-name="ms-email" d="M972.8 777.6h-918.4c-32 0-54.4-25.6-54.4-54.4v-550.4c0-28.8 22.4-54.4 54.4-54.4h918.4c28.8 0 54.4 22.4 54.4 54.4v550.4c-3.2 28.8-25.6 54.4-54.4 54.4zM963.2 668.8l-400-345.6c-16-12.8-32-19.2-51.2-19.2s-38.4 6.4-51.2 19.2l-400 345.6c-12.8 12.8-12.8 32-3.2 44.8s28.8 12.8 41.6 3.2l400-345.6c6.4-6.4 19.2-6.4 25.6 0l400 342.4c12.8 9.6 32 9.6 41.6-3.2 9.6-9.6 9.6-28.8-3.2-41.6z" />
<glyph unicode="&#xe916;" glyph-name="ms-close-email" d="M896 784h-768c-70.688 0-128-57.344-128-128v-416c0-70.688 57.312-128 128-128h768c70.688 0 128 57.312 128 128v416c0 70.656-57.312 128-128 128zM64 616l223.968-168-223.968-168v336zM960 240c0-35.328-28.736-64-64-64h-768c-35.296 0-64 28.672-64 64l250.624 188 139.776-104.864c17.056-12.736 37.312-19.2 57.6-19.2 20.256 0 40.512 6.432 57.568 19.2l139.808 104.864 250.624-188zM960 280l-224 168 224 168v-336zM550.368 348.736c-11.168-8.384-24.416-12.8-38.368-12.8s-27.232 4.448-38.4 12.8l-409.6 307.264c0 35.296 28.704 64 64 64h768c35.264 0 64-28.704 64-64l-409.632-307.264z" />
<glyph unicode="&#xe917;" glyph-name="ms-msg" d="M921.6 854.4h-819.2c-57.6 0-102.4-44.8-102.4-102.4v-409.6c0-57.6 44.8-102.4 102.4-102.4h118.4l-67.2-185.6c-3.2-9.6 0-16 9.6-9.6l336 195.2h419.2c57.6 0 102.4 44.8 102.4 102.4v409.6c3.2 57.6-41.6 102.4-99.2 102.4zM512 400c0-6.4-3.2-9.6-9.6-9.6h-284.8c-6.4 0-9.6 3.2-9.6 9.6v41.6c0 6.4 3.2 9.6 9.6 9.6h284.8c6.4 0 9.6-3.2 9.6-9.6v-41.6zM819.2 528c0-6.4-3.2-9.6-9.6-9.6h-592c-6.4 0-9.6 3.2-9.6 9.6v41.6c0 6.4 3.2 9.6 9.6 9.6h592c6.4 0 9.6-3.2 9.6-9.6v-41.6zM819.2 656c0-6.4-3.2-9.6-9.6-9.6h-592c-6.4 0-9.6 3.2-9.6 9.6v38.4c0 6.4 3.2 9.6 9.6 9.6h592c6.4 0 9.6-3.2 9.6-9.6v-38.4z" />
<glyph unicode="&#xe918;" glyph-name="ms-bell" d="M485.781 3.663c9.59-3.197 15.983-6.393 25.573-6.393 35.163 0 63.934 25.573 67.13 63.934 0 3.197 0 3.197 0 3.197h-134.26c0-25.573 15.983-51.147 41.557-60.737zM536.928 767.667h-3.197v9.59c22.377 9.59 38.36 31.967 38.36 57.54 0 35.163-28.77 63.934-63.934 63.934s-60.737-28.77-60.737-63.934c0-25.573 15.983-47.95 38.36-57.54v-9.59c-226.963-47.95-140.654-239.75-198.194-393.19-38.36-102.294-134.26-166.227-118.277-281.307 226.963 0 453.927 0 684.087 0 22.377 121.474-79.917 175.817-118.277 281.307-51.147 140.654 35.163 367.617-198.194 393.19zM511.355 806.027c-15.983 0-28.77 12.787-28.77 28.77s12.787 28.77 28.77 28.77c15.983 0 28.77-12.787 28.77-28.77s-12.787-28.77-28.77-28.77zM191.688 313.74c12.787 6.393 19.18 22.377 12.787 35.163-38.36 76.72-35.163 179.014 51.147 242.947 12.787 9.59 12.787 25.573 6.393 35.163-12.787 12.787-28.77 15.983-38.36 6.393-54.344-38.36-86.31-89.507-92.704-153.441-6.393-51.147 3.197-105.49 25.573-156.637 3.197-9.59 12.787-15.983 22.377-15.983 3.197 3.197 9.59 3.197 12.787 6.393zM175.704 694.143c9.59 9.59 12.787 25.573 6.393 38.36-9.59 9.59-25.573 12.787-38.36 3.197-76.72-57.54-127.867-137.457-140.654-230.16-9.59-76.72 3.197-163.031 38.36-236.553 6.393-6.393 15.983-12.787 25.573-12.787 3.197 0 6.393 0 12.787 3.197 12.787 6.393 19.18 22.377 12.787 35.163-60.737 124.67-60.737 297.29 83.114 399.584zM799.055 633.407c-12.787 9.59-28.77 6.393-35.163-6.393-9.59-12.787-6.393-28.77 6.393-35.163 86.31-63.934 86.31-166.227 51.147-242.947-6.393-12.787 0-28.77 12.787-35.163 3.197-3.197 6.393-3.197 12.787-3.197 9.59 0 19.18 6.393 22.377 15.983 22.377 47.95 31.967 105.49 25.573 156.637-9.59 60.737-41.557 111.884-95.9 150.244zM878.972 735.7c-12.787 9.59-28.77 6.393-35.163-6.393-9.59-12.787-6.393-28.77 6.393-35.163 143.851-105.49 143.851-278.11 83.114-402.78-6.393-12.787 0-28.77 12.787-35.163 3.197-3.197 6.393-3.197 12.787-3.197 9.59 0 19.18 6.393 22.377 15.983 35.163 73.524 51.147 156.637 38.36 236.553-15.983 95.9-63.934 175.817-140.654 230.16z" />
<glyph unicode="&#xe919;" glyph-name="ms-new" d="M934.4 616h-934.4l89.6-169.6-89.6-166.4h934.4l89.6 169.6-89.6 166.4zM390.4 360h-51.2l-67.2 99.2v-99.2h-51.2v179.2h51.2l67.2-99.2v99.2h51.2v-179.2zM566.4 500.8h-92.8v-32h92.8v-38.4h-92.8v-32h92.8v-38.4h-147.2c0 60.8 0 118.4 0 179.2h147.2v-38.4zM796.8 360h-54.4l-32 112-32-112h-54.4l-38.4 179.2h54.4l19.2-99.2 28.8 99.2h51.2l28.8-99.2 19.2 99.2h51.2l-41.6-179.2z" />
<glyph unicode="&#xe91a;" glyph-name="ms-todo" d="M486.8 435.2l-64-64c-16-16-16-44.8 0-60.8l153.6-150.4c32-32 80-32 112 0l313.6 313.6c16 16 16 44.8 0 60.8l-35.2 35.2c-16 16-41.6 16-57.6 3.2l-243.2-201.6c-19.2-16-44.8-12.8-60.8 3.2l-54.4 60.8c-16 16-44.8 16-64 0zM723.6 0h-563.2c-48 0-86.4 38.4-86.4 86.4v656c0 48 38.4 89.6 86.4 89.6v0-32c0-16 12.8-32 32-32h9.6c19.2 0 32 16 32 32v32h92.8v-32c0-16 12.8-32 32-32h6.4c19.2 0 32 16 32 32v32h92.8v-32c0-16 12.8-32 32-32h6.4c19.2 0 32 16 32 32v32h92.8v-32c0-16 16-32 32-32h9.6c19.2 0 32 16 32 32v32c12.8 0 25.6-6.4 32-12.8l22.4-19.2c19.2-19.2 28.8-44.8 28.8-70.4v-70.4c0-25.6 32-41.6 51.2-25.6v0c6.4 6.4 12.8 16 12.8 25.6v92.8c0 28.8-12.8 57.6-32 76.8l-54.4 51.2c-6.4 9.6-19.2 16-32 16h-25.6v32c0 16-12.8 32-32 32h-9.6c-16 0-32-16-32-32v-32h-92.8v32c0 16-12.8 32-32 32h-6.4c-19.2 0-32-16-32-32v-32h-92.8v32c0 16-12.8 32-32 32h-6.4c-19.2 0-32-16-32-32v-32h-96v32c0 16-12.8 32-32 32h-9.6c-16 0-32-16-32-32v-32h-64c-48 0-86.4-41.6-86.4-89.6v-784c0-48 38.4-86.4 86.4-86.4h688c48 0 86.4 38.4 86.4 86.4v131.2c0 28.8-35.2 41.6-54.4 22.4v0c-6.4-6.4-9.6-12.8-9.6-22.4v-67.2c3.2-48-35.2-86.4-83.2-86.4z" />
<glyph unicode="&#xe91b;" glyph-name="ms-edit-page" d="M1011.2 809.6l-134.4 134.4c-9.6 9.6-19.2 12.8-32 12.8s-22.4-3.2-32-12.8l-505.6-508.8-38.4-227.2c0 0 0-3.2 0-3.2s3.2 0 3.2 0l227.2 38.4 512 505.6c16 16 16 44.8 0 60.8zM464 313.6l-99.2-16 16 99.2 467.2 464 80-80-464-467.2zM755.2 25.6h-675.2v672h393.6v80h-435.2c-22.4 0-38.4-16-38.4-38.4v-755.2c0-22.4 19.2-38.4 38.4-38.4h755.2c22.4 0 38.4 19.2 38.4 38.4v409.6h-80v-368z" />
<glyph unicode="&#xe91c;" glyph-name="ms-close-2" d="M977.2 960h-929.2c-25.6 0-48-22.4-48-48.2v-927.6c0-25.6 19.2-45 44.8-48.2 3.2 0 3.2 0 6.4 0h925.8c25.6 0 48 22.4 48 48.2v927.6c0.2 25.8-22.2 48.2-47.8 48.2zM924.8 487.6v-449.8h-822.6v820.4h825.8l-3.2-370.6zM445.4 448.6l-118.6 182.6h115.4l73.6-118.6 73.6 118.6h115.4l-121.8-182.6 128.2-189h-115.4l-76.8 128.2-80-128.2h-121.8l128.2 189z" />
<glyph unicode="&#xe91d;" glyph-name="ms-marker" d="M512 959.6c-204.64 0-370.91-166.27-370.91-370.91 0-179.060 287.775-556.365 354.923-645.896 6.395-9.593 22.383-9.593 28.778 0 67.148 86.333 354.923 463.638 354.923 645.896 3.198 204.64-163.073 370.91-367.713 370.91zM512 336.087c-140.69 0-252.603 111.913-252.603 252.603s111.913 252.603 252.603 252.603 252.603-111.913 252.603-252.603c0-140.69-111.913-252.603-252.603-252.603zM601.53 678.22c0-49.446-40.084-89.53-89.53-89.53s-89.53 40.084-89.53 89.53c0 49.446 40.084 89.53 89.53 89.53s89.53-40.084 89.53-89.53zM534.383 566.308h-41.568c-73.543 0-137.493-54.358-147.085-127.9 44.765-41.568 102.32-67.148 166.27-67.148s124.703 25.58 166.27 67.148c-9.593 73.543-70.345 127.9-143.888 127.9z" />
<glyph unicode="&#xe91e;" glyph-name="ms-target" d="M991.437 927.437c-28.766 28.766-70.317 38.355-118.262 28.766-44.747-9.589-92.691-35.159-131.047-73.513-41.551-41.551-83.102-105.477-108.673-163.009-3.196-9.589-6.391-15.981-9.589-25.57l-163.009 15.981c-6.391 0-15.981 0-22.374-6.391l-431.494-431.494c-9.589-9.589-9.589-25.57 0-35.159l294.056-294.056c9.589-9.589 25.57-9.589 35.159 0l431.494 431.494c6.391 6.391 9.589 12.785 6.391 22.374l-15.981 147.028c-38.355-12.785-70.317-19.177-95.887-12.785 0 0-3.196 0-3.196 0 0-3.196-3.196-3.196-3.196-3.196-15.981-15.981-44.747-15.981-63.925 0-15.981 15.981-15.981 44.747 0 63.925 15.981 15.981 44.747 15.981 63.925 0 3.196-3.196 6.391-6.391 6.391-9.589 3.196 0 6.391-3.196 6.391-3.196 19.177-3.196 47.943 0 79.906 15.981 0 0 3.196 0 3.196 0l-6.391 67.121c-3.196 9.589-9.589 19.177-19.177 19.177l-92.691 9.589h12.785c22.374 60.727 70.317 131.047 111.869 175.794 70.317 70.317 169.401 92.691 214.149 44.747 47.943-47.943 28.766-143.831-44.747-214.149-41.551-41.551-111.869-86.298-175.794-111.869-35.159-12.785-63.925-19.177-89.495-15.981-9.589 3.196-19.177 6.391-22.374 12.785-6.391 6.391-9.589 12.785-12.785 22.374-9.589 3.196-15.981 0-25.57-3.196 3.196-15.981 9.589-28.766 19.177-38.355s22.374-15.981 38.355-19.177c28.766-3.196 60.727 3.196 92.691 12.785 9.589 3.196 15.981 6.391 25.57 9.589 57.532 25.57 121.458 67.121 163.009 108.673 38.355 38.355 63.925 86.298 73.513 131.047 15.981 51.14 6.391 92.691-22.374 121.458z" />
<glyph unicode="&#xe91f;" glyph-name="ms-house" d="M890.976 364.431l-357.603 316.148c-12.606 11.136-33.219 11.136-45.816 0l-358.728-317.142c-12.602-11.136-23.399-21.335-24.898-22.657-1.499-1.328-1.993-15.302-1.993-31.051v-284.104c0-15.749 13.109-29.633 30.928-29.633h208.538c17.815 0 31.853 13.882 31.853 29.633v251.883c0 15.75 15.119 26.499 32.935 26.499h208.538c17.818 0 32.928-10.748 32.928-26.499v-251.883c0-15.749 14.046-29.633 31.859-29.633h208.549c17.813 0 30.91 13.882 30.91 29.633v284.101c0 15.749-0.733 29.95-2.547 31.546-1.805 1.603-12.856 12.025-25.453 23.158zM722.643 784.779l113.358-101.643c12.606-11.136 21.314-7.362 21.314 8.388v159.496c0 15.755-11.725 30.852-29.544 30.852h-95.994c-22.872 0-31.702-7.998-31.702-30.852v-17.349c-0.003-30.158 1.001-30.158 22.567-48.893zM1014.547 465.546l-481.175 426.11c-12.606 11.134-33.219 11.134-45.816 0l-478.103-422.684c-12.604-11.14-12.604-29.364 0-40.502l39.454-34.88c12.596-11.139 33.21-11.139 45.814 0l392.833 347.296c12.596 11.134 33.21 11.134 45.816 0l395.916-350.723c12.596-11.139 33.21-11.139 45.814 0l39.448 34.88c12.602 11.139 12.602 29.364 0 40.502z" />
<glyph unicode="&#xe920;" glyph-name="ms-ok" d="M748.8 659.2c-9.6 0-22.4-3.2-28.8-12.8l-284.8-316.8-131.2 131.2c-6.4 6.4-16 12.8-28.8 12.8-9.6 0-19.2-3.2-28.8-12.8-16-16-16-41.6 0-54.4l160-160c6.4-6.4 16-12.8 28.8-12.8 0 0 0 0 0 0 9.6 0 22.4 6.4 28.8 12.8l310.4 345.6c16 16 12.8 41.6-3.2 54.4-3.2 9.6-12.8 12.8-22.4 12.8zM512 960c-281.6 0-512-230.4-512-512s230.4-512 512-512c281.6 0 512 230.4 512 512s-230.4 512-512 512zM512 16c-240 0-432 192-432 432s192 432 432 432c240 0 432-195.2 432-432 0-240-192-432-432-432z" />
<glyph unicode="&#xe921;" glyph-name="ms-pinterest-a" d="M921.6 960h-819.2c-56.32 0-102.4-46.080-102.4-102.4v-819.2c0-56.32 46.080-102.4 102.4-102.4h819.2c56.32 0 102.4 46.080 102.4 102.4v819.2c0 56.32-46.080 102.4-102.4 102.4zM563.2 232.96c-40.96 0-81.92 15.358-107.52 46.078l-51.2-163.84-5.12-10.24c-10.24-15.36-25.6-25.6-46.080-25.6-30.72 0-56.32 25.6-56.32 56.32 0 5.12 0 5.12 0 5.12v0l5.12 10.24 92.16 286.722c0 0-10.24 30.72-10.24 76.8 0 87.040 46.080 112.64 87.040 112.64 35.84 0 71.68-15.36 71.68-66.56 0-66.56-46.080-102.4-46.080-153.6 0-35.84 30.72-66.558 66.56-66.558 117.76 0 163.84 92.158 163.84 174.080 0 112.64-97.278 204.8-215.040 204.8-117.76 0-215.040-92.16-215.040-204.8 0-35.84 10.24-66.56 25.6-97.28 5.12-10.242 5.12-15.36 5.12-25.6 0-30.72-20.48-51.2-51.2-51.2-20.48 0-35.84 10.24-46.080 25.6-25.6 46.080-40.96 97.28-40.96 153.6 0 168.96 143.36 307.2 317.44 307.2s317.44-138.24 317.44-307.2c5.12-143.362-76.8-286.722-261.12-286.722z" />
<glyph unicode="&#xe922;" glyph-name="ms-trash" d="M384.002 554.665v-384c0-12-9.333-21.334-21.334-21.334h-42.666c-12 0-21.334 9.333-21.334 21.334v384c0 12 9.333 21.334 21.334 21.334h42.666c12 0 21.334-9.333 21.334-21.334zM554.668 554.665v-384c0-12-9.333-21.334-21.334-21.334h-42.666c-12 0-21.334 9.333-21.334 21.334v384c0 12 9.333 21.334 21.334 21.334h42.666c12 0 21.334-9.333 21.334-21.334zM725.335 554.665v-384c0-12-9.333-21.334-21.334-21.334h-42.666c-12 0-21.334 9.333-21.334 21.334v384c0 12 9.333 21.334 21.334 21.334h42.666c12 0 21.334-9.333 21.334-21.334zM810.669 71.998v631.999h-597.333v-631.999c0-32 18-50.667 21.334-50.667h554.667c3.333 0 21.334 18.667 21.334 50.667zM362.669 789.33h298.666l-32 78c-2 2.667-8 6.666-11.333 7.334h-211.333c-4-0.666-9.333-4.667-11.333-7.334zM981.334 767.998v-42.666c0-12-9.333-21.334-21.334-21.334h-64v-631.999c0-73.333-48-135.999-106.667-135.999h-554.667c-58.667 0-106.667 60-106.667 133.334v634.666h-64c-12 0-21.334 9.333-21.334 21.334v42.666c0 12 9.333 21.334 21.334 21.334h205.999l46.667 111.334c13.334 32.667 53.333 59.333 88.667 59.333h213.333c35.334 0 75.333-26.666 88.667-59.333l46.667-111.334h205.999c12 0 21.334-9.333 21.334-21.334z" />
<glyph unicode="&#xe923;" glyph-name="ms-instagram-a" d="M752 778h-480c-49.625 0-90-40.375-90-90v-480c0-49.625 40.375-90 90-90h480c49.625 0 90 40.375 90 90v480c0 49.625-40.375 90-90 90zM512 238c-115.781 0-210 94.219-210 210s94.219 210 210 210 210-94.219 210-210-94.219-210-210-210zM722 598c-33.078 0-60 26.922-60 60s26.922 60 60 60 60-26.922 60-60-26.922-60-60-60zM512 598c-82.703 0-150-67.297-150-150s67.297-150 150-150 150 67.297 150 150-67.297 150-150 150zM872 960h-720c-82.703 0-152-69.297-152-152v-720c0-82.703 69.297-152 152-152h720c82.703 0 152 69.297 152 152v720c0 82.703-69.297 152-152 152zM902 208c0-82.703-67.297-150-150-150h-480c-82.703 0-150 67.297-150 150v480c0 82.703 67.297 150 150 150h480c82.703 0 150-67.297 150-150z" />
<glyph unicode="&#xe924;" glyph-name="ms-bucket" d="M512 380.8c-92.8 0-265.6 12.8-310.4 57.6l86.4-416c6.4-51.2 64-83.2 115.2-83.2h217.6c48 0 89.6 35.2 99.2 83.2l105.6 419.2c-32-41.6-214.4-60.8-313.6-60.8zM822.4 540.8c-70.4 25.6-176 54.4-310.4 54.4-121.6 0-224-25.6-291.2-48-6.4-3.2-12.8-6.4-22.4-6.4 0-16 0-32 0-48 67.2 28.8 176 64 310.4 64 32 0 131.2 3.2 252.8-41.6 19.2-6.4 38.4-12.8 57.6-22.4 3.2 16 3.2 32 3.2 48zM201.6 457.6c70.4-25.6 176-54.4 310.4-54.4 121.6 0 224 25.6 291.2 48 6.4 3.2 12.8 6.4 22.4 6.4 0 16 0 32 0 48-67.2-28.8-176-64-310.4-60.8-32 0-131.2-3.2-252.8 41.6-19.2 6.4-38.4 16-57.6 22.4-3.2-19.2-3.2-35.2-3.2-51.2zM822.4 454.4c0 16-25.6 89.6-32 96 16 179.2-67.2 284.8-153.6 323.2-25.6 9.6-60.8 25.6-115.2 25.6h-25.6c-54.4 0-92.8-12.8-115.2-25.6-83.2-35.2-172.8-156.8-147.2-323.2 0-9.6 6.4-16 0-22.4-12.8-19.2-16-32-19.2-35.2-3.2-12.8 0-19.2-6.4-28.8-3.2-3.2-6.4-6.4-6.4-6.4-57.6 153.6-25.6 320 80 416 80 73.6 179.2 83.2 217.6 83.2h28.8c38.4-3.2 137.6-12.8 217.6-83.2 102.4-96 134.4-262.4 76.8-419.2z" />
<glyph unicode="&#xe925;" glyph-name="ms-youtube-a" d="M121.905 960c-67.292 0-121.905-54.613-121.905-121.905v-780.19c0-67.292 54.613-121.905 121.905-121.905h780.19c67.292 0 121.905 54.613 121.905 121.905v780.19c0 67.292-54.613 121.905-121.905 121.905h-780.19zM268.19 862.476h58.524l39-97.524 39 97.524h58.524l-73.143-170.667v-97.524h-48.762v97.762c-14.629 39.254-63.146 145.804-73.143 170.429zM512 789.333c21.699 0 43.156-6.564 56.81-23.143 10.483-11.946 16.333-31.215 16.333-56.571v-35.619c0-25.356-4.855-42.911-15.095-54.857-13.654-16.336-36.349-24.857-58.048-24.857s-43.87 8.521-57.524 24.857c-10.483 11.946-15.619 29.501-15.619 54.857v35.381c0 25.356 5.606 44.863 16.333 56.81 13.654 16.579 32.185 23.143 56.81 23.143zM609.524 789.333h48.762v-146.286c1.219-6.583 8.274-9.524 14.857-9.524 9.996 0 22.689 11.698 33.905 24.619v131.19h48.762v-195.048h-48.762v33.667c-19.749-19.261-36.575-33.683-58.762-32.952-16.092 0.488-27.298 6.345-32.905 18.048-3.413 6.826-5.857 17.813-5.857 33.905v142.381zM512 749.857c-3.352 0-6.562-0.736-9.476-2s-5.552-3.079-7.762-5.333c-2.21-2.255-4-4.933-5.238-7.905s-1.905-6.254-1.905-9.667v-68.476c0-6.826 2.724-13.061 7.143-17.571 2.21-2.255 4.848-4.069 7.762-5.333s6.124-2 9.476-2c3.352 0 6.562 0.736 9.476 2 8.743 3.794 14.905 12.664 14.905 22.905v68.476c0 13.654-10.971 24.905-24.381 24.905zM511.762 521.143h0.476c0 0 163.583-0.007 272.81-7.81 15.36-1.707 48.54-1.952 78.286-32.429 23.406-22.918 30.952-75.571 30.952-75.571s7.81-37.317 7.81-99v-57.762c0-61.683-7.81-99-7.81-99s-7.546-52.654-30.952-75.571c-29.745-30.476-62.926-30.721-78.286-32.429-109.226-7.802-273.048-8.048-273.048-8.048s-202.87 1.958-265.286 7.81c-17.311 3.169-56.302 2.196-86.048 32.429-23.406 23.162-30.952 75.81-30.952 75.81s-7.81 37.317-7.81 99v57.762c0 61.683 7.81 99 7.81 99s7.546 52.654 30.952 75.571c29.745 30.476 62.926 30.721 78.286 32.429 109.226 7.802 272.81 7.81 272.81 7.81zM195.048 423.619v-48.238h48.762v-244.333h48.762v244.333h48.762v48.238h-146.286zM512 423.619v-292.571h48.762v30.476c15.385-19.042 35.425-30.476 51.81-30.476 18.335 0 34.332 9.867 40.476 28.762 2.901 10.215 5.043 19.756 5.238 41.333v67.048c0 24.088-3.262 42.236-6.333 52.476-6.144 19.042-21.023 29.688-39.381 29.81-23.893 0.17-33.524-12.19-51.81-33.524v106.667h-48.762zM341.333 350.476v-163c0-17.604 2.45-29.414 5.619-37.143 5.364-12.532 16.301-19.286 31.905-19.286 17.798 0 40.739 12.538 60 33.286v-33.286h48.762v219.429h-48.762v-152.857c-10.727-14.238-26.343-24.857-36.095-24.857-6.339 0-11.448 2.669-12.667 9.667v168.048h-48.762zM756.524 350.476c-24.576 0-43.769-7.729-57.667-22.333-10.24-10.776-16.19-28.393-16.19-51.238v-74.762c0-22.699 6.546-38.583 16.762-49.238 13.921-14.605 33.077-21.857 58.238-21.857 25.137 0 44.926 7.637 58.238 23.143 5.851 6.851 9.605 14.561 11.238 23.143 0.439 3.876 1.81 14.399 1.81 26.857h-48.762v-19.476c0-11.313-10.923-20.476-24.381-20.476s-24.381 9.188-24.381 20.476v43.857h97.524v49.286c0 22.796-5.598 39.485-15.667 50.286-13.482 14.605-32.625 22.333-56.762 22.333zM755.81 315.19c13.458 0 24.381-9.188 24.381-20.476v-32.381h-48.762v32.381c0 11.313 10.923 20.476 24.381 20.476zM590.524 307.905c13.288 0 19-8.165 19-33.619v-67.048c0-25.454-5.712-34.238-19-34.238-7.582 0-22.057 5.2-29.762 12.905v106.667c7.705 7.607 22.18 15.333 29.762 15.333z" />
<glyph unicode="&#xe926;" glyph-name="ms-twitter-a" d="M170.667 960c-94.257 0-170.667-76.41-170.667-170.667v-682.667c0-94.257 76.41-170.667 170.667-170.667h682.667c94.257 0 170.667 76.41 170.667 170.667v682.667c0 94.257-76.41 170.667-170.667 170.667h-682.667zM221.524 740.571h193.524l137.429-195.286 166.762 195.286h60.952l-200.19-234.381 246.857-350.762h-193.476l-159.476 226.571-193.524-226.571h-60.952l226.952 265.667-224.857 319.476zM314.857 691.81l343.952-487.619h74.714l-343.952 487.619h-74.714z" />
<glyph unicode="&#xe927;" glyph-name="ms-blog" d="M784.4 154.6v-218.6l239.6 239.6h-218.6c-11.6 0-21-9.4-21-21zM950.8 960h-877.6c-40.4 0-73.2-32.8-73.2-73.2v-877.8c0-40.2 32.8-73 73.2-73h658.2v233.6c0 32.4 26.4 59 59 59h233.6v658.2c0 40.4-32.8 73.2-73.2 73.2z" />
<glyph unicode="&#xe928;" glyph-name="ms-open-email-a" d="M1024 576c0 35.84-20.48 66.56-46.080 87.040l-465.92 271.36-465.92-271.36c-25.6-20.48-46.080-51.2-46.080-87.040v-512c0-56.32 46.080-102.4 102.4-102.4h819.2c56.32 0 102.4 46.080 102.4 102.4v512zM512 320l-424.96 266.24 424.96 245.76 424.96-245.76-424.96-266.24z" />
<glyph unicode="&#xe929;" glyph-name="ms-calendar" d="M864-32h-704c-35.328 0-64 28.672-64 64v704c0 35.36 28.672 64 64 64h64v-32c0-53.024 42.976-96 96-96 52.992 0 96 42.976 96 96v32h192v-32c0-53.024 43.008-96 96-96s96 42.976 96 96v32h64c35.328 0 64-28.64 64-64v-704c0-35.328-28.672-64-64-64zM864 576h-704v-544h704v544zM320 416h-96v96h96v-96zM320 256h-96v96h96v-96zM320 96h-96v96h96v-96zM480 416h-96v96h96v-96zM480 256h-96v96h96v-96zM480 96h-96v96h96v-96zM640 416h-96v96h96v-96zM640 256h-96v96h96v-96zM640 96h-96v96h96v-96zM800 416h-96v96h96v-96zM800 256h-96v96h96v-96zM800 96h-96v96h96v-96zM703.008 704c-34.816 0-63.008 28.224-63.008 63.008v65.984c0 34.816 28.192 63.008 63.008 63.008s63.008-28.192 63.008-63.008v-65.984c0-34.784-28.192-63.008-63.008-63.008zM319.008 704c-34.816 0-63.008 28.224-63.008 63.008v65.984c0 34.816 28.192 63.008 63.008 63.008s63.008-28.192 63.008-63.008v-65.984c0-34.784-28.224-63.008-63.008-63.008z" />
<glyph unicode="&#xe92a;" glyph-name="ms-phone-verified" d="M934.4 211.2c-57.6 25.6-112 57.6-166.4 92.8-38.4-32-73.6-67.2-112-99.2-25.6-22.4-80-19.2-118.4 9.6-99.2 80-182.4 176-249.6 284.8-25.6 41.6-22.4 96 3.2 118.4 38.4 32 73.6 67.2 112 99.2-28.8 57.6-54.4 115.2-73.6 176-19.2 67.2-70.4 86.4-121.6 44.8-35.2-35.2-73.6-67.2-112-102.4-51.2-44.8-80-137.6-57.6-204.8 96-300.8 313.6-550.4 601.6-681.6 64-28.8 160-9.6 211.2 32 38.4 32 76.8 67.2 112 99.2 51.2 48 35.2 102.4-28.8 131.2v0zM1017.6 745.6l-64 64-268.8-275.2-99.2 144-73.6-51.2 160-233.6z" />
<glyph unicode="&#xe92b;" glyph-name="ms-phone-invalid" d="M934.4 211.2c-57.6 25.6-112 57.6-166.4 92.8-38.4-32-73.6-67.2-112-99.2-25.6-22.4-80-19.2-118.4 9.6-99.2 80-182.4 176-249.6 284.8-25.6 41.6-22.4 96 3.2 118.4 38.4 32 73.6 67.2 112 99.2-28.8 57.6-54.4 115.2-73.6 176-19.2 67.2-70.4 86.4-121.6 44.8-35.2-35.2-73.6-67.2-112-102.4-51.2-44.8-80-137.6-57.6-204.8 96-300.8 313.6-550.4 601.6-681.6 64-28.8 160-9.6 211.2 32 38.4 32 76.8 67.2 112 99.2 51.2 48 35.2 102.4-28.8 131.2v0zM851.2 672l140.8 140.8c3.2 3.2 3.2 9.6 0 12.8l-51.2 51.2c-3.2 3.2-3.2 3.2-6.4 3.2s-3.2 0-6.4-3.2l-140.8-140.8-140.8 140.8c-3.2 3.2-9.6 3.2-12.8 0l-51.2-51.2c-3.2-3.2-3.2-9.6 0-12.8l137.6-140.8-140.8-140.8c-3.2-3.2-3.2-9.6 0-12.8l51.2-51.2c3.2-3.2 3.2-3.2 6.4-3.2s3.2 0 6.4 3.2l140.8 140.8 140.8-140.8c3.2-3.2 3.2-3.2 6.4-3.2s3.2 0 6.4 3.2l51.2 51.2c3.2 3.2 3.2 9.6 0 12.8l-137.6 140.8z" />
<glyph unicode="&#xe92c;" glyph-name="ms-phone-unknown" d="M934.4 211.2c-57.6 25.6-112 57.6-166.4 92.8-38.4-32-73.6-67.2-112-99.2-25.6-22.4-80-19.2-118.4 9.6-99.2 80-182.4 176-249.6 284.8-25.6 41.6-22.4 96 3.2 118.4 38.4 32 73.6 67.2 112 99.2-28.8 57.6-54.4 115.2-73.6 176-19.2 67.2-70.4 86.4-121.6 44.8-35.2-35.2-73.6-67.2-112-102.4-51.2-44.8-80-137.6-57.6-204.8 96-300.8 313.6-550.4 601.6-681.6 64-28.8 160-9.6 211.2 32 38.4 32 76.8 67.2 112 99.2 51.2 48 35.2 102.4-28.8 131.2v0zM796.8 924.8c92.8 0 185.6-41.6 185.6-147.2 0-96-108.8-131.2-131.2-166.4-16-25.6-12.8-60.8-60.8-60.8-32 0-48 25.6-48 48 0 86.4 128 105.6 128 179.2 0 38.4-25.6 64-70.4 64-92.8 0-57.6-96-128-96-25.6 0-48 16-48 44.8 3.2 70.4 83.2 134.4 172.8 134.4zM793.6 502.4c32 0 60.8-25.6 60.8-60.8s-25.6-60.8-60.8-60.8-60.8 25.6-60.8 60.8c0 32 28.8 60.8 60.8 60.8z" />
<glyph unicode="&#xe92d;" glyph-name="ms-way-email" d="M745.6-38.4c-153.6 0-278.4 124.8-278.4 278.4s124.8 278.4 278.4 278.4 278.4-124.8 278.4-278.4-124.8-278.4-278.4-278.4zM745.6 454.4c-118.4 0-214.4-96-214.4-214.4s96-214.4 214.4-214.4 214.4 96 214.4 214.4-96 214.4-214.4 214.4zM400 380.8h-304c-54.4 0-96 41.6-96 92.8v393.6c0 51.2 44.8 92.8 96 92.8h755.2c6.4 0 41.6 0 67.2-28.8 28.8-25.6 32-57.6 32-64 0-83.2 0-166.4 0-249.6 0-16-12.8-28.8-28.8-32-16 0-32 12.8-35.2 28.8 0 83.2 0 166.4 0 249.6 0 3.2-3.2 12.8-12.8 22.4-6.4 9.6-12.8 9.6-16 6.4-432 3.2-748.8 3.2-768 0-3.2 0-9.6 0-16-6.4-9.6-6.4-9.6-19.2-9.6-19.2v-393.6c0-3.2 0-12.8 9.6-22.4 9.6-6.4 19.2-6.4 22.4-6.4 102.4 0 201.6 0 304 0 19.2 0 35.2-16 32-32 0-16-16-32-32-32zM470.4 566.4c-16 0-35.2 3.2-51.2 12.8l-400 198.4c-16 9.6-22.4 28.8-16 44.8s25.6 22.4 41.6 16l403.2-201.6c12.8-6.4 28.8-6.4 41.6 0l403.2 198.4c16 6.4 35.2 0 41.6-16s0-35.2-16-41.6l-400-198.4c-16-6.4-32-12.8-48-12.8v0zM745.6 124.8l108.8 108.8h-67.2v118.4h-83.2v-118.4h-67.2l108.8-108.8z" />
<glyph unicode="&#xe92e;" glyph-name="ms-verified-email" d="M745.6-38.4c-153.6 0-278.4 124.8-278.4 278.4s124.8 278.4 278.4 278.4 278.4-124.8 278.4-278.4-124.8-278.4-278.4-278.4zM745.6 454.4c-118.4 0-214.4-96-214.4-214.4s96-214.4 214.4-214.4 214.4 96 214.4 214.4-96 214.4-214.4 214.4zM409.6 380.8h-310.4c-54.4 0-99.2 35.2-99.2 89.6v393.6c0 54.4 44.8 96 99.2 96h768c57.6 0 92.8-41.6 92.8-96v-259.2c0-19.2-12.8-32-32-32s-32 12.8-32 32v259.2c0 19.2-6.4 32-28.8 32h-768c-19.2 0-32-12.8-32-32v-393.6c0-19.2 12.8-22.4 32-22.4h310.4c19.2 0 32-16 32-35.2 3.2-16-9.6-32-32-32zM480 556.8c-16 0-35.2 3.2-51.2 12.8l-409.6 198.4c-16 9.6-22.4 28.8-16 44.8s25.6 22.4 41.6 16l412.8-201.6c12.8-6.4 28.8-6.4 41.6 0l412.8 198.4c16 6.4 35.2 0 41.6-16s0-35.2-16-41.6l-409.6-198.4c-12.8-6.4-28.8-12.8-48-12.8v0zM892.8 323.2l-38.4 35.2-153.6-156.8-57.6 83.2-41.6-28.8 92.8-134.4z" />
<glyph unicode="&#xe92f;" glyph-name="ms-unknown-email" d="M745.6-38.4c-153.6 0-278.4 124.8-278.4 278.4s124.8 278.4 278.4 278.4 278.4-124.8 278.4-278.4-124.8-278.4-278.4-278.4zM745.6 454.4c-118.4 0-214.4-96-214.4-214.4s96-214.4 214.4-214.4 214.4 96 214.4 214.4-96 214.4-214.4 214.4zM409.6 380.8h-310.4c-54.4 0-99.2 35.2-99.2 89.6v393.6c0 54.4 44.8 96 99.2 96h768c57.6 0 92.8-41.6 92.8-96v-259.2c0-19.2-12.8-32-32-32s-32 12.8-32 32v259.2c0 19.2-6.4 32-28.8 32h-768c-19.2 0-32-12.8-32-32v-393.6c0-19.2 12.8-22.4 32-22.4h310.4c19.2 0 32-16 32-35.2 3.2-16-9.6-32-32-32zM480 556.8c-16 0-35.2 3.2-51.2 12.8l-409.6 198.4c-16 9.6-22.4 28.8-16 44.8s25.6 22.4 41.6 16l412.8-201.6c12.8-6.4 28.8-6.4 41.6 0l412.8 198.4c16 6.4 35.2 0 41.6-16s0-35.2-16-41.6l-409.6-198.4c-12.8-6.4-28.8-12.8-48-12.8v0zM742.4 384c48 0 99.2-22.4 99.2-76.8 0-51.2-57.6-70.4-70.4-89.6-9.6-12.8-6.4-32-32-32-16 0-25.6 12.8-25.6 25.6 0 44.8 67.2 54.4 67.2 96 0 19.2-12.8 35.2-38.4 35.2-48 0-32-51.2-67.2-51.2-12.8 0-25.6 9.6-25.6 22.4 3.2 35.2 48 70.4 92.8 70.4zM742.4 160c16 0 32-12.8 32-32s-12.8-32-32-32-32 12.8-32 32c0 16 16 32 32 32z" />
<glyph unicode="&#xe930;" glyph-name="ms-invalid-email" d="M745.6-38.4c-153.6 0-278.4 124.8-278.4 278.4s124.8 278.4 278.4 278.4 278.4-124.8 278.4-278.4-124.8-278.4-278.4-278.4zM745.6 454.4c-118.4 0-214.4-96-214.4-214.4s96-214.4 214.4-214.4 214.4 96 214.4 214.4-96 214.4-214.4 214.4zM409.6 380.8h-310.4c-54.4 0-99.2 35.2-99.2 89.6v393.6c0 54.4 44.8 96 99.2 96h768c57.6 0 92.8-41.6 92.8-96v-259.2c0-19.2-12.8-32-32-32s-32 12.8-32 32v259.2c0 19.2-6.4 32-28.8 32h-768c-19.2 0-32-12.8-32-32v-393.6c0-19.2 12.8-22.4 32-22.4h310.4c19.2 0 32-16 32-35.2 3.2-16-9.6-32-32-32zM480 556.8c-16 0-35.2 3.2-51.2 12.8l-409.6 198.4c-16 9.6-22.4 28.8-16 44.8s25.6 22.4 41.6 16l412.8-201.6c12.8-6.4 28.8-6.4 41.6 0l412.8 198.4c16 6.4 35.2 0 41.6-16s0-35.2-16-41.6l-409.6-198.4c-12.8-6.4-28.8-12.8-48-12.8v0zM784 240l80 80c3.2 3.2 3.2 6.4 0 6.4l-28.8 28.8h-6.4l-80-80-80 80c-3.2 3.2-6.4 3.2-6.4 0l-28.8-28.8c-3.2-3.2-3.2-6.4 0-6.4l80-80-83.2-80c-3.2-3.2-3.2-6.4 0-6.4l28.8-28.8h6.4l80 80 80-80h6.4l28.8 28.8c3.2 3.2 3.2 6.4 0 6.4l-76.8 80z" />
<glyph unicode="&#xe931;" glyph-name="agents" d="M256.076 128.001c0 46.671-1.905 91.451 0.47 135.992 3.165 59.41 51.631 110.692 110.407 117.686 9.788 1.167 22.408-7.645 31.27-14.85 53.179-43.257 111.292-61.791 176.917-33.37 21.697 9.395 39.651 27.11 60.539 38.851 9.554 5.37 22.995 9.63 33.071 7.335 62.514-14.204 101.751-62.871 103.211-126.755 0.933-41.038 0.173-82.114 0.173-124.892-172.238 0-342.793 0-516.057 0zM643.032 543.684c-2.789-51.131-16.87-99.071-60.439-133.391-46.051-36.271-104.251-32.87-146.432 7.67-69.363 66.673-68.071 194.298 2.623 258.934 51.051 46.674 125.232 37.671 169.001-20.725 24.57-32.776 33.884-70.518 35.247-112.494zM282.675 767.513c44.683 4.13 90.275-17.85 113.068-61.717 3.27-6.29 1.922-17.499-1.492-24.33-30.010-60.031-48.331-121.312-28.585-189.033 1.59-5.45-4.93-16.29-10.695-20.39-50.051-35.6-109.352-26.898-151.152 21.17-57.891 66.57-53.699 186.403 12.058 245.049 19.65 17.524 43.096 27.068 66.805 29.256zM228.279 191.373c-66.359 0-128.107 0-196.852 0 3.17 56.377 0.31 113.212 11.145 167.312 10.34 51.647 53.937 77.719 104.631 88.582 4.57 0.979 11.761 0.090 14.63-2.909 31.433-32.83 70.731-50.626 118.678-60.191-53.567-55.791-55.083-122.912-52.233-192.793zM741.326 767.513c-44.683 4.13-90.275-17.85-113.068-61.717-3.27-6.29-1.922-17.499 1.492-24.33 30.010-60.031 48.331-121.312 28.585-189.033-1.59-5.45 4.93-16.29 10.695-20.39 50.051-35.6 109.352-26.898 151.152 21.17 57.891 66.57 53.699 186.403-12.057 245.049-19.65 17.524-43.097 27.068-66.806 29.256zM795.722 191.373c66.359 0 128.106 0 196.851 0-3.17 56.377-0.31 113.212-11.145 167.312-10.34 51.647-53.937 77.719-104.631 88.582-4.57 0.979-11.761 0.090-14.63-2.909-31.432-32.83-70.731-50.626-118.677-60.191 53.567-55.791 55.083-122.912 52.233-192.793z" />
<glyph unicode="&#xe932;" glyph-name="areas" d="M205.712 364.762l306.289-428.762 306.298 428.762c107.405 150.364 90.527 354.329-40.141 484.987-71.080 71.099-165.616 110.251-266.148 110.251-100.55 0-195.078-39.152-266.176-110.251-130.668-130.649-147.537-334.614-40.122-484.987zM692.565 588.192c0-99.728-80.836-180.564-180.555-180.564s-180.555 80.836-180.555 180.564c0 99.71 80.836 180.546 180.555 180.546s180.555-80.836 180.555-180.546z" />
<glyph unicode="&#xe933;" glyph-name="filters" d="M988.822 479.469h-376.591c-13.413 42.542-53.27 73.479-100.231 73.479s-86.817-30.937-100.231-73.479h-376.591c-17.38 0-31.469-14.088-31.469-31.469s14.088-31.469 31.469-31.469h376.591c13.413-42.542 53.27-73.479 100.231-73.479s86.817 30.94 100.231 73.479h376.591c17.38 0 31.469 14.088 31.469 31.469s-14.088 31.469-31.469 31.469zM35.179 743.579h599.765c13.413-42.542 53.27-73.479 100.231-73.479s86.817 30.94 100.231 73.479h153.417c17.38 0 31.469 14.088 31.469 31.469s-14.088 31.469-31.469 31.469h-153.419c-13.413 42.54-53.268 73.479-100.229 73.479s-86.817-30.94-100.231-73.479h-599.765c-17.38 0-31.469-14.088-31.469-31.469s14.088-31.469 31.469-31.469zM988.822 152.421h-599.765c-13.413 42.542-53.27 73.479-100.231 73.479s-86.817-30.94-100.231-73.479h-153.417c-17.38 0-31.469-14.088-31.469-31.469s14.088-31.469 31.469-31.469h153.419c13.413-42.542 53.27-73.479 100.231-73.479s86.817 30.94 100.231 73.479h599.763c17.38 0 31.469 14.088 31.469 31.469s-14.088 31.469-31.469 31.469z" />
<glyph unicode="&#xe934;" glyph-name="marketing" d="M316.298 261.18c0.030 6.338-4.98 11.626-11.308 11.555l-137.499-1.209c-7.831-0.066-13.002-7.873-10.342-15.229 14.178-39.143 22.814-77.878 30.39-112.725 16.726-77.038 31.146-143.566 101.369-143.566 56.146 0 95.070 16.239 106.774 44.558 5.059 12.239 9.021 37.332-21.418 67.7-39.518 39.431-58.323 75.33-57.956 148.914zM50.436 631.033h-8.101c-21.309 0-38.578-17.268-38.578-38.566v-216.073c0-21.29 17.268-38.578 38.578-38.578h8.102c4.378 0 7.933 3.538 7.933 7.933v277.35c-0.010 4.378-3.566 7.933-7.934 7.933zM355.123 298.946l9.698-0.626c13.142-0.878 24.28 9.557 24.28 22.718v320.095c0 13.16-11.126 23.577-24.269 22.716l-9.978-0.654c-15.349-1.010-30.735-1.515-46.126-1.515h-126.33c-2.327 0.168-10.586 0.457-59.538 0.187-18.854-0.094-34.618-13.268-38.986-30.825l-0.934-293.487c1.792-20.696 18.994-37.054 40.162-37.054h185.465c15.536 0 31.062-0.524 46.57-1.55zM875.575 891.756c-13.497 5.684-27.715 5.386-40.61 0.703-91.674-85.148-243.788-187.624-392.371-219.586-13.926-2.99-24.082-14.874-24.082-29.111v-325.374c0-14.234 10.146-26.106 24.071-29.111 148.65-32.042 300.686-134.83 392.39-219.994 5.931-2.138 12.134-3.398 18.458-3.398 7.386 0 14.906 1.466 22.151 4.546 21.399 8.992 34.686 28.99 34.686 52.164v717.019c0 23.166-13.28 43.158-34.686 52.146zM953.415 651.115c-5.040 3.506-11.994-0.402-11.994-6.544v-326.97c0-6.14 6.954-10.062 11.994-6.556 48.056 33.508 66.828 110.526 66.828 170.038 0 59.52-18.784 136.519-66.828 170.026z" />
<glyph unicode="&#xe935;" glyph-name="myLeads" d="M137.646 347.093l287.926-313.657 22.409-97.436h128.025l22.433 97.436 287.926 313.657zM120.417 517.663h783.191c15.027 0 27.208-12.181 27.208-27.22v-93.745c0-15.039-12.181-27.22-27.208-27.22h-783.191c-15.039 0-27.232 12.181-27.232 27.22v93.745c0 15.039 12.193 27.22 27.232 27.22zM260.016 560.79c2.012-7.204 4.429-14.253 7.037-21.207h72.955c-14.539 27.243-22.838 58.309-22.838 91.363 0 107.593 87.327 194.753 194.753 194.753 107.605 0 194.753-87.16 194.753-194.753 0-33.054-8.299-64.132-22.802-91.363h72.872c2.584 6.954 4.989 13.991 6.954 21.207l71.681 10.121c3.691 19.421 5.596 39.52 5.596 60.036s-1.905 40.758-5.596 60.179l-71.681 10.121c-5.608 20.528-13.812 40.079-24.064 58.131l43.485 57.845c-22.838 33.233-51.558 62.084-84.922 84.933l-57.845-43.497c-18.194 10.395-37.615 18.468-58.119 24.207l-10.264 71.526c-19.421 3.691-39.389 5.608-59.905 5.608-20.504 0-40.603-1.917-60.167-5.608l-10.121-71.526c-20.647-5.727-40.067-13.812-58.107-24.064l-57.869 43.366c-33.364-22.838-62.096-51.701-84.933-84.933l43.366-57.845c-10.395-18.051-18.456-37.603-24.207-58.131l-71.383-10.121c-3.715-19.409-5.632-39.663-5.632-60.179s1.917-40.615 5.632-60.036l71.371-10.133zM422.321 539.572c-23.743 23.278-38.52 55.654-38.52 91.447 0 70.693 57.523 128.204 128.204 128.204 70.704 0 128.216-57.511 128.216-128.204 0-35.793-14.789-68.168-38.508-91.447h40.96c18.206 25.922 28.994 57.428 28.994 91.447 0 88.029-71.609 159.651-159.651 159.651-88.017 0-159.639-71.621-159.639-159.651 0-34.019 10.776-65.525 28.982-91.447h40.96z" />
<glyph unicode="&#xe936;" glyph-name="myListings" d="M162.341 273.171c-41.317 0-74.921 33.616-74.921 74.927v449.561c0 41.317 33.604 74.927 74.921 74.927h449.555c41.329 0 74.933-33.61 74.933-74.927v-24.976h87.402v24.976c0 89.288-73.053 162.341-162.335 162.341h-449.555c-89.294 0-162.341-73.053-162.341-162.341v-449.561c0-89.282 73.047-162.341 162.341-162.341h24.976v87.415h-24.976zM1024 547.902v-449.561c0-89.282-73.060-162.341-162.348-162.341h-449.561c-89.282 0-162.323 73.060-162.323 162.341v449.561c0 89.288 73.041 162.341 162.323 162.341h449.561c89.288 0 162.348-73.053 162.348-162.341zM861.652 23.415c41.329 0 74.933 33.616 74.933 74.927v449.561c0 41.317-33.604 74.927-74.933 74.927h-449.561c-41.311 0-74.914-33.61-74.914-74.927v-449.561c0-41.304 33.604-74.927 74.914-74.927h449.561zM816.588 290.809l-166.327 147.047c-5.871 5.182-15.458 5.182-21.31 0l-166.853-147.51c-5.859-5.182-10.877-9.919-11.579-10.539-0.696-0.62-0.927-7.118-0.927-14.443v-132.14c0-7.325 6.103-13.779 14.386-13.779h96.995c8.283 0 14.806 6.454 14.806 13.779v117.159c0 7.325 7.037 12.325 15.32 12.325h96.995c8.283 0 15.314-4.994 15.314-12.325v-117.159c0-7.325 6.529-13.779 14.819-13.779h96.995c8.283 0 14.374 6.454 14.374 13.779v132.14c0 7.325-0.345 13.935-1.184 14.675-0.821 0.746-5.959 5.595-11.824 10.771zM738.291 486.322l52.733-47.276c5.859-5.182 9.906-3.421 9.906 3.904v74.181c0 7.325-5.451 14.349-13.735 14.349h-44.657c-10.633 0-14.744-3.716-14.744-14.349v-8.070c0-14.029 0.47-14.029 10.495-22.739zM874.065 337.84l-223.803 198.195c-5.871 5.182-15.458 5.182-21.31 0l-222.374-196.603c-5.859-5.182-5.859-13.66 0-18.841l18.359-16.222c5.859-5.182 15.439-5.182 21.304 0l182.712 161.533c5.859 5.182 15.445 5.182 21.31 0l184.147-163.125c5.865-5.182 15.445-5.182 21.304 0l18.353 16.222c5.865 5.182 5.865 13.66 0 18.841z" />
<glyph unicode="&#xe937;" glyph-name="tutorials" d="M877.331 806.763c-198.167 201.742-522.378 204.661-724.146 6.519-179.238-176.015-201.548-451.479-65.379-652.23l-60.243-209.179 212.717 62.023c196.194-123 458.083-100.532 630.533 68.816 201.767 198.142 204.685 522.31 6.518 724.051zM511.94 747.289c41.908 0 75.88-33.972 75.88-75.879s-33.972-75.879-75.88-75.879-75.879 33.971-75.879 75.879c0 41.906 33.971 75.879 75.879 75.879zM615.713 204.581h-234.119c0 14.741 11.949 26.689 26.689 26.689h15.935c8.103 0 14.673 6.569 14.673 14.673v272.518h-30.608c-14.741 0-26.689 11.95-26.689 26.69h178.144c13.946 0 25.251-11.306 25.251-25.251v-273.957c0-8.103 6.569-14.673 14.672-14.673h42.742c-0.001-14.74-11.95-26.689-26.69-26.689z" />
<glyph unicode="&#xe938;" glyph-name="lorem" d="M212.832 357.088v0 0zM841.056 221.024c0 95.488-40.576 181.248-105.568 241.344v0c128.768-184.288-161.408-235.232-93.376 47.904 82.688 343.552-129.984 449.728-129.984 449.728 204.736-204.736 37.216-457.984-56.448-414.944-92.768 42.72 19.84 207.488 19.84 207.488-199.84-139.136-209.6-361.568-204.736-449.44 2.432-39.968-21.664-18.016-26.848-12.8-31.136 32.96-31.424 67.136-31.424 67.136-18.912-41.504-29.6-87.552-29.6-136.384 0-99.776 44.544-189.472 114.72-249.568 2.432 4.576 3.968 8.224 4.576 9.472 12.512 25.312 29.28 46.688 52.768 62.24-4.896-3.36-8.544-8.544-10.368-14.048-6.4-17.088-15.264-39.36-11.296-57.984 5.792-26.56 35.392-38.144 59.808-34.464 42.112 6.112 54.016 47.904 51.264 85.12-3.648 50.656-25.024 98.56-27.168 149.184-3.968 88.192 41.792 172.992 112.896 223.040-7.008-4.896-12.8-14.048-18.016-20.448-39.648-49.728-68.032-119.904-43.616-183.36 13.12-34.464 36.928-73.536 74.432-85.12 17.088-5.184 46.368-5.184 58.592 9.76 17.408 21.056 15.552 55.232 3.648 78.4-5.792 11.296-13.728 21.056-21.664 30.816-5.184 6.4-13.728 22.272-21.056 25.632 99.776-47.584 151.040-155.296 163.552-260.576 0.608-5.184 1.216-10.688 1.824-15.872 69.568 60.416 113.184 148.896 113.184 247.744z" />
<glyph unicode="&#xe939;" glyph-name="folder-outline" d="M0 755.2c0 56.32 46.080 102.4 102.4 102.4h358.4l102.4-102.4h358.4c56.554 0 102.4-45.846 102.4-102.4v0-512c0-56.554-45.846-102.4-102.4-102.4v0h-819.2c-56.554 0-102.4 45.846-102.4 102.4v0 614.4zM102.4 652.8v-512h819.2v512h-819.2z" />
<glyph unicode="&#xe93a;" glyph-name="folder" d="M0 755.2c0 56.32 46.080 102.4 102.4 102.4h358.4l102.4-102.4h358.4c56.554 0 102.4-45.846 102.4-102.4v0-512c0-56.554-45.846-102.4-102.4-102.4v0h-819.2c-56.554 0-102.4 45.846-102.4 102.4v0 614.4z" />
<glyph unicode="&#xe93b;" glyph-name="search-btn" d="M641.808 222.539c-66.436-47.339-147.723-75.182-235.513-75.182-224.39 0-406.295 181.905-406.295 406.295s181.905 406.295 406.295 406.295c224.39 0 406.295-181.905 406.295-406.295 0-87.79-27.846-169.080-75.182-235.513l266.951-266.951c26.299-26.299 26.081-68.38-0.010-94.47l-1.12-1.12c-26.023-26.023-68.386-26.093-94.47-0.010l-266.951 266.951zM406.295 242.955c171.593 0 310.696 139.105 310.696 310.696s-139.105 310.696-310.696 310.696c-171.593 0-310.696-139.105-310.696-310.696s139.105-310.696 310.696-310.696v0z" />
<glyph unicode="&#xe93c;" glyph-name="inbox" d="M930.908 401.454v-232.726c0-12.847-5.167-24.436-13.637-32.907s-20.061-13.637-32.907-13.637h-744.726c-12.847 0-24.436 5.167-32.907 13.637s-13.637 20.061-13.637 32.907v232.726h207.825l79.266-118.923c8.471-12.567 22.621-20.713 38.726-20.713h186.182c15.173 0.093 29.789 7.354 38.726 20.713l79.266 118.923zM248.739 747.845c3.072 6.097 7.448 11.45 12.66 15.686 8.006 6.47 18.013 10.286 29.044 10.286h442.786c6.982-0.047 13.731-1.583 19.828-4.376 9.356-4.282 17.222-11.59 22.202-21.597l126.836-253.3h-203.915c-16.105 0-30.254-8.146-38.726-20.713l-79.266-118.923h-136.377l-79.266 118.923c-8.937 13.358-23.552 20.619-38.726 20.713h-203.915zM165.516 789.55l-160.162-319.859c-1.443-2.746-2.606-5.632-3.491-8.704-1.304-4.376-1.908-8.75-1.862-12.986v-279.272c0-38.54 15.686-73.541 40.913-98.723s60.183-40.913 98.723-40.913h744.726c38.54 0 73.541 15.686 98.723 40.913s40.913 60.183 40.913 98.723v279.272c0 7.029-1.536 13.637-4.236 19.409-0.232 0.466-0.466 0.977-0.698 1.443l-0.419 0.838-160.162 319.859c-14.662 29.51-38.586 51.712-66.699 64.559-18.060 8.239-37.794 12.66-57.902 12.8h-443.437c-33.094 0-63.627-11.59-87.644-31.046-15.407-12.475-28.16-28.206-37.283-46.312z" />
<glyph unicode="&#xe93d;" glyph-name="reply" d="M1024 67.698c0 0-126.578 553.642-625.778 553.642v226.646l-398.222-373.931 398.222-380.587v247.864c270.962 0.057 484.466-23.95 625.778-273.636z" />
<glyph unicode="&#xe93e;" glyph-name="file-text" d="M917.806 730.924c-22.212 30.292-53.174 65.7-87.178 99.704s-69.412 64.964-99.704 87.178c-51.574 37.82-76.592 42.194-90.924 42.194h-496c-44.112 0-80-35.888-80-80v-864c0-44.112 35.888-80 80-80h736c44.112 0 80 35.888 80 80v624c0 14.332-4.372 39.35-42.194 90.924zM785.374 785.374c30.7-30.7 54.8-58.398 72.58-81.374h-153.954v153.946c22.984-17.78 50.678-41.878 81.374-72.572zM896 16c0-8.672-7.328-16-16-16h-736c-8.672 0-16 7.328-16 16v864c0 8.672 7.328 16 16 16 0 0 495.956 0.002 496 0v-224c0-17.672 14.326-32 32-32h224v-624zM736 128h-448c-17.672 0-32 14.326-32 32s14.328 32 32 32h448c17.674 0 32-14.326 32-32s-14.326-32-32-32zM736 256h-448c-17.672 0-32 14.326-32 32s14.328 32 32 32h448c17.674 0 32-14.326 32-32s-14.326-32-32-32zM736 384h-448c-17.672 0-32 14.326-32 32s14.328 32 32 32h448c17.674 0 32-14.326 32-32s-14.326-32-32-32z" />
<glyph unicode="&#xe93f;" glyph-name="delete" d="M909.333 904v-114.667h-794.667v114.667h197.333l58.667 56h282.667l58.667-56h197.333zM170.667 50.667v682.667h682.667v-682.667q0-45.333-34.667-80t-80-34.667h-453.333q-45.333 0-80 34.667t-34.667 80z" />
<glyph unicode="&#xe940;" glyph-name="reply-all" d="M369.92 664.73v137.267l-369.92-330.547 369.92-342.579v142.182l-216.32 200.397 216.32 193.28zM625.92 604.006v197.99l-369.92-330.547 369.92-342.579v223.078c168.55 0 270.899-21.606 398.080-246.272 0 0.051-18.842 498.33-398.080 498.33z" />
<glyph unicode="&#xe941;" glyph-name="alert-triangle" d="M475.648 773.376c3.115 5.248 7.893 10.325 14.251 14.165 10.069 6.101 21.589 7.595 32.256 4.949s20.224-9.216 26.197-19.115l361.216-603.008c2.987-5.12 5.077-11.435 5.461-18.517-0.64-15.701-5.077-25.216-12.075-32.384-7.68-7.851-18.219-12.715-29.568-12.843l-722.645 0.043c-6.485 0.043-13.696 1.749-20.523 5.717-10.197 5.888-17.024 15.317-19.883 25.899s-1.621 22.144 3.925 31.787zM402.432 817.237l-361.387-603.307c-18.005-31.189-21.589-66.133-13.141-97.707s29.013-60.075 59.648-77.739c19.797-11.435 41.643-17.067 62.933-17.152h722.901c35.797 0.384 67.712 15.104 90.581 38.485s36.864 55.595 36.48 90.923c-0.256 22.869-6.528 44.544-17.323 62.891l-361.557 603.605c-18.432 30.421-47.36 50.389-79.104 58.155s-66.603 3.456-96.811-14.891c-18.304-11.093-33.067-26.24-43.179-43.264zM469.333 576v-170.667c0-23.552 19.115-42.667 42.667-42.667s42.667 19.115 42.667 42.667v170.667c0 23.552-19.115 42.667-42.667 42.667s-42.667-19.115-42.667-42.667zM512 192c23.552 0 42.667 19.115 42.667 42.667s-19.115 42.667-42.667 42.667-42.667-19.115-42.667-42.667 19.115-42.667 42.667-42.667z" />
<glyph unicode="&#xe942;" glyph-name="warning" d="M977.76 152.992l-400.608 685.952c-33.408 33.408-87.616 33.408-121.024 0l-400.64-685.952c-33.408-33.376-33.408-87.552 0-120.992h922.24c33.472 33.44 33.472 87.616 0.032 120.992zM479.744 592.704c0 26.528 21.504 48 48 48s48-21.472 48-48v-224c0-26.496-21.504-48-48-48s-48 21.504-48 48v224zM528.032 160.448c-26.496 0-48 21.44-48 48 0 26.496 21.504 48 48 48s48-21.504 48-48c0-26.56-21.504-48-48-48z" />
<glyph unicode="&#xe943;" glyph-name="copy" d="M640 704v256h-448l-192-192v-576h384v-256h640v768h-384zM192 869.49v-101.49h-101.49l101.49 101.49zM64 256v448h192v192h320v-192l-192-192v-256h-320zM576 613.49v-101.49h-101.49l101.49 101.49zM960 0h-512v448h192v192h320v-640z" />
<glyph unicode="&#xe944;" glyph-name="spicon" d="M368.219 960l-263.598-261.26v-762.74h814.758v1024h-551.16zM848.073 7.306h-672.146v637.078h256v244.311h416.731v-881.388zM334.904 504.11l25.132-37.406 31.562 21.626v-143.781h240.804v143.781l31.562-21.626 25.132 37.991-64.877 43.836v48.511h-52.018v-13.443l-60.201 40.329zM261.845 251.032c0-11.105 8.767-19.872 19.872-19.872h460.566c11.105 0 19.872 8.767 19.872 19.872s-8.767 19.872-19.872 19.872h-460.566c-11.105 0-19.872-8.767-19.872-19.872zM742.283 187.909h-460.566c-11.105 0-19.872-8.767-19.872-19.872s8.767-19.872 19.872-19.872h460.566c11.105 0 19.872 8.767 19.872 19.872s-9.352 19.872-19.872 19.872z" />
<glyph unicode="&#xe945;" glyph-name="hourglass" d="M784 64c8.8 0 16-7.168 16-16s0-48 0-48h-608c0 0 0 39.168 0 48s7.168 16 16 16h53.44c2.656 213.056 141.824 281.728 141.824 367.84 0 86.56-141.728 92.32-143.072 368.16h-52.192c-8.832 0-16 7.168-16 16s0 48 0 48h608c0 0 0-39.168 0-48s-7.2-16-16-16h-48.96c-1.344-275.84-143.072-281.6-143.072-368.16 0-86.112 139.2-154.784 141.856-367.84h50.176zM547.552 431.84c0 86.912 141.76 92.32 143.072 368.16h-386.016c1.312-275.84 143.072-281.248 143.072-368.16 0-83.552-139.232-153.984-141.856-367.84h24.256c5.696 18.976 24.608 41.792 57.28 58.688l42.464 21.664c26.688 13.792 42.688 23.104 48 27.904s11.328 15.552 18.048 32.256c7.072-16.672 13.12-27.424 18.24-32.256s20.928-14.112 47.488-27.904l42.24-21.664c32.48-16.896 51.328-39.712 56.928-58.688h28.608c-2.624 213.856-141.824 284.288-141.824 367.84zM514.24 478.816c-3.84-7.552-7.072-21.92-9.632-43.104-0.64-6.4-2.048-16.032-4.32-28.864-2.24 12.832-3.68 22.464-4.32 28.864-2.592 21.184-5.824 35.52-9.696 43.104-3.872 7.52-14.784 21.056-32.8 40.672l-40.032 43.776c-27.36 29.504-44.896 50.688-52.608 63.488 47.488-30.24 93.856-45.376 139.104-45.376s91.776 15.136 139.584 45.376c-8-12.8-25.6-33.984-52.768-63.488l-39.872-43.776c-17.92-19.616-28.832-33.152-32.64-40.672z" />
<glyph unicode="&#xe946;" glyph-name="drag_indicator" d="M703.626 193.497q50.901 0 89.825-38.924t38.924-89.825-38.924-89.825-89.825-38.924-89.825 38.924-38.924 89.825 38.924 89.825 89.825 38.924zM703.626 576.749q50.901 0 89.825-38.924t38.924-89.825-38.924-89.825-89.825-38.924-89.825 38.924-38.924 89.825 38.924 89.825 89.825 38.924zM703.626 702.503q-50.901 0-89.825 38.924t-38.924 89.825 38.924 89.825 89.825 38.924 89.825-38.924 38.924-89.825-38.924-89.825-89.825-38.924zM320.374 960q50.901 0 89.825-38.924t38.924-89.825-38.924-89.825-89.825-38.924-89.825 38.924-38.924 89.825 38.924 89.825 89.825 38.924zM320.374 576.749q50.901 0 89.825-38.924t38.924-89.825-38.924-89.825-89.825-38.924-89.825 38.924-38.924 89.825 38.924 89.825 89.825 38.924zM449.123 64.749q0-50.901-38.924-89.825t-89.825-38.924-89.825 38.924-38.924 89.825 38.924 89.825 89.825 38.924 89.825-38.924 38.924-89.825z" />
<glyph unicode="&#xe947;" glyph-name="my-buildings" d="M955.311 131.238v318.084c0 15.852-13.209 28.532-29.061 28.532h-166.968c-16.38 0-29.061-12.681-29.061-28.532v-318.613h-28.004v638.811c0 17.965-14.795 32.231-33.288 32.231h-311.744c-18.493 0-33.288-14.266-33.288-32.231v-638.283h-28.004v318.084c0 15.852-13.209 28.532-29.061 28.532h-168.553c-16.38 0-29.061-12.681-29.061-28.532v-318.613h-69.218v-36.458h1024v36.458h-68.69zM142.134 188.832h-33.817v32.76h33.817v-32.76zM142.134 253.823h-33.817v32.76h33.817v-32.76zM142.134 318.813h-33.817v32.76h33.817v-32.76zM142.134 383.804h-33.817v32.76h33.817v-32.76zM198.671 188.832h-33.817v32.76h33.817v-32.76zM198.671 253.823h-33.817v32.76h33.817v-32.76zM198.671 318.813h-33.817v32.76h33.817v-32.76zM198.671 383.804h-33.817v32.76h33.817v-32.76zM255.207 188.832h-33.817v32.76h33.817v-32.76zM255.207 253.823h-33.817v32.76h33.817v-32.76zM255.207 318.813h-33.817v32.76h33.817v-32.76zM255.207 383.804h-33.817v32.76h33.817v-32.76zM453.35 213.137h-52.31v50.725h52.31v-50.725zM453.35 325.154h-52.31v50.725h52.31v-50.725zM453.35 436.642h-52.31v50.725h52.31v-50.725zM453.35 548.659h-52.31v50.725h52.31v-50.725zM453.35 660.147h-52.31v50.725h52.31v-50.725zM542.118 213.137h-52.31v50.725h52.31v-50.725zM542.118 325.154h-52.31v50.725h52.31v-50.725zM542.118 436.642h-52.31v50.725h52.31v-50.725zM542.118 548.659h-52.31v50.725h52.31v-50.725zM542.118 660.147h-52.31v50.725h52.31v-50.725zM631.414 213.137h-52.31v50.725h52.31v-50.725zM631.414 325.154h-52.31v50.725h52.31v-50.725zM631.414 436.642h-52.31v50.725h52.31v-50.725zM631.414 548.659h-52.31v50.725h52.31v-50.725zM631.414 660.147h-52.31v50.725h52.31v-50.725zM803.137 188.832h-33.817v32.76h33.817v-32.76zM803.137 253.823h-33.817v32.76h33.817v-32.76zM803.137 318.813h-33.817v32.76h33.817v-32.76zM803.137 383.804h-33.817v32.76h33.817v-32.76zM859.674 188.832h-33.817v32.76h33.817v-32.76zM859.674 253.823h-33.817v32.76h33.817v-32.76zM859.674 318.813h-33.817v32.76h33.817v-32.76zM859.674 383.804h-33.817v32.76h33.817v-32.76zM915.682 188.832h-33.288v32.76h33.817v-32.76zM915.682 253.823h-33.288v32.76h33.817v-32.76zM915.682 318.813h-33.288v32.76h33.817v-32.76zM915.682 383.804h-33.288v32.76h33.817v-32.76z" />
<glyph unicode="&#xe948;" glyph-name="display-filters" d="M808.106 247.097h-808.105v624.695h808.105v-624.695zM58.971 308.067h689.664v502.754h-689.664v-502.754zM830.595 761.346v-60.471h25.487v-503.254h-689.664v29.985h-58.971v-90.956h808.105v624.695zM939.042 648.901v-60.97h25.487v-502.754h-689.664v29.486h-59.471v-90.456h808.605v624.695z" />
<glyph unicode="&#xe949;" glyph-name="my-building" d="M818.731 960h-613.461c-25.039 0-45.384-20.344-45.384-45.384v-978.616h704.228v978.616c0 25.039-20.344 45.384-45.384 45.384zM440.012 189.001c0-3.13-2.608-5.217-5.217-5.217h-128.848c-3.13 0-5.217 2.608-5.217 5.217v128.326c0 3.13 2.608 5.217 5.217 5.217h128.326c3.13 0 5.217-2.608 5.217-5.217v-128.326zM440.012 418.527c0-3.13-2.608-5.217-5.217-5.217h-128.848c-3.13 0-5.217 2.608-5.217 5.217v128.848c0 3.13 2.608 5.217 5.217 5.217h128.326c3.13 0 5.217-2.608 5.217-5.217v-128.848zM440.012 648.053c0-3.13-2.608-5.217-5.217-5.217h-128.848c-3.13 0-5.217 2.608-5.217 5.217v128.326c0 3.13 2.608 5.217 5.217 5.217h128.326c3.13 0 5.217-2.608 5.217-5.217v-128.326zM723.269 189.001c0-3.13-2.608-5.217-5.217-5.217h-128.848c-3.13 0-5.217 2.608-5.217 5.217v128.326c0 3.13 2.608 5.217 5.217 5.217h128.848c3.13 0 5.217-2.608 5.217-5.217v-128.326zM723.269 418.527c0-3.13-2.608-5.217-5.217-5.217h-128.848c-3.13 0-5.217 2.608-5.217 5.217v128.848c0 3.13 2.608 5.217 5.217 5.217h128.848c3.13 0 5.217-2.608 5.217-5.217v-128.848zM723.269 648.053c0-3.13-2.608-5.217-5.217-5.217h-128.848c-3.13 0-5.217 2.608-5.217 5.217v128.326c0 3.13 2.608 5.217 5.217 5.217h128.848c3.13 0 5.217-2.608 5.217-5.217v-128.326z" />
<glyph unicode="&#xe94a;" glyph-name="my-master-plan" d="M41.856 880.771h747.944v-293.497c-26.41 8.969-54.812 13.454-84.212 13.454v195.831h-621.377v-621.377h406.113c7.972-10.962 16.942-21.426 26.41-30.894 22.423-22.423 48.335-40.362 76.737-53.816h-593.472v790.299h41.857zM144.007 602.223l41.358 41.358-41.358 41.857 35.379 35.379 41.358-41.358 41.857 41.358 35.379-35.379-41.358-41.857 41.358-41.358-35.878-35.379-41.857 41.358-41.358-41.358-34.881 35.379zM464.412 642.585l-52.321 19.932 19.932 52.321 52.321-19.932-19.932-52.321zM313.427 249.428l9.966 26.41-52.321 19.932-10.464-26.41 52.819-19.932zM343.824 327.661l-52.321 19.932 19.932 52.321 52.321-19.932-19.932-52.321zM383.688 432.802l-52.819 19.932 19.932 52.321 52.819-19.932-19.932-52.321zM424.049 537.444l-52.819 19.932 19.932 52.321 52.819-19.932-19.932-52.321zM892.449 228.002l131.551-131.052-81.721-81.721-131.052 131.551c-30.894-17.939-67.27-27.407-105.639-27.407-59.297 0-112.615 23.918-151.483 62.786-38.867 38.369-62.786 92.185-62.786 151.483s23.918 112.615 62.786 151.483c38.369 38.867 92.185 62.786 151.483 62.786s113.114-23.918 151.483-62.786c38.867-38.369 62.786-92.185 62.786-151.483 0.499-38.867-9.468-74.744-27.407-105.639v0zM808.237 436.29c-26.41 26.41-62.287 42.854-102.65 42.854-39.864 0-76.24-16.444-102.65-42.854s-42.854-62.287-42.854-102.65c0-40.362 16.444-76.737 42.854-102.65 26.41-26.41 62.287-42.854 102.65-42.854s76.737 16.444 102.65 42.854c26.41 26.41 42.854 62.287 42.854 102.65 0 39.864-16.444 76.24-42.854 102.65v0z" />
<glyph unicode="&#xe94b;" glyph-name="map-search-filter" d="M326.455 250.704c10.047 8.22 21.008 15.984 31.513 22.378l-11.874 19.182c-11.874-7.307-23.292-15.528-33.796-24.206l14.158-17.355zM392.678 291.807c11.874 5.481 23.748 10.047 36.079 14.158l-6.851 21.922c-13.244-4.111-26.489-9.134-38.82-15.071l9.59-21.008zM271.651 194.986c8.22 10.505 16.898 20.095 26.032 29.229l-16.441 15.984c-9.59-9.59-18.725-20.095-27.402-31.056l17.812-14.158zM229.178 129.221c5.937 11.874 12.788 23.292 19.638 34.253l-19.182 12.331c-7.307-11.418-14.158-23.748-20.552-36.079l20.095-10.505zM735.205 522.899l-22.835 2.283c-1.37-13.244-3.654-26.032-6.851-37.907l21.922-5.937c3.654 13.244 5.937 27.402 7.764 41.56zM673.093 418.771l18.268-13.701c8.22 10.961 15.984 23.292 21.922 36.536l-20.552 9.59c-5.481-11.874-11.874-22.835-19.638-32.426zM647.061 391.369c-9.59-7.764-20.095-15.071-31.513-21.008l10.505-20.095c12.788 6.851 24.662 14.614 35.623 23.748l-14.614 17.355zM580.382 356.203c-11.874-3.654-24.206-6.394-37.449-8.677l3.654-22.378c14.158 2.283 28.315 5.481 41.103 9.134l-7.307 21.922zM466.664 315.556c12.331 2.283 25.576 4.111 38.82 5.024l-1.827 22.835c-14.158-0.913-27.859-3.197-41.103-5.481l4.111-22.378zM1022.014 98.166l-152.539 491.869c-6.394 21.008-26.946 36.079-48.867 36.079h-206.886c-2.283-5.024-5.024-10.047-8.22-15.071l-34.253-62.568h229.722l133.358-431.584h-845.358l133.358 431.584h99.562l-34.253 62.568c-2.74 5.024-5.481 10.047-8.22 15.071h-76.269c-21.922 0-42.473-15.071-48.867-36.079l-152.082-491.869c-4.567-14.158-1.827-29.229 6.394-40.647 8.677-11.874 21.922-18.268 36.993-18.268h932.588c15.071 0 28.315 6.851 36.993 18.268 8.677 11.874 10.961 26.489 6.851 40.647zM447.025 395.479l127.42 233.832c14.158 22.835 21.922 49.324 21.922 78.096 0 82.207-66.679 149.342-149.342 149.342-82.207 0-149.342-66.679-149.342-149.342 0-28.772 8.22-55.261 21.922-78.096l127.42-233.832zM447.025 768.606c33.796 0 61.198-27.402 61.198-61.198s-27.402-60.742-61.198-60.742c-33.796 0-61.198 27.402-61.198 61.198s27.402 60.742 61.198 60.742z" />
<glyph unicode="&#xe94c;" glyph-name="groups" horiz-adv-x="1425" d="M711.017 856.239c-186.599 0-184.388-162.955-184.388-162.955l-1.191-86.581c-15.309 0.17-18.881-14.969-18.881-45.076 0-45.247 27.556-92.364 52.731-116.858 8.505-35.551 24.664-66.849 46.437-90.663-0.68-0.51-1.531-0.85-2.381-1.361v0c-74.334-45.417-163.126-76.205-220.959-106.823-15.989-8.505-32.999-23.304-46.777-42.185-9.355-12.928-17.52-26.876-24.664-41.334-0.34-0.51-0.51-1.021-0.85-1.531-1.021-2.041-1.871-4.082-2.892-6.124-13.948-29.938-23.474-61.916-28.917-94.065-0.17-0.51-0.17-1.191-0.34-1.871-0.17-1.531-0.51-3.062-0.85-4.593-1.021-5.613-1.871-11.056-2.722-16.5-0.68-4.423-1.531-14.118-1.191-18.881 0-0.34 0-0.51 0-0.85-2.041-29.257 52.901-38.783 52.901-38.783 20.582-6.124 58.344-12.757 104.271-19.051 81.818-13.438 165.677-18.031 248.005-20.582 7.995-0.17 16.33-0.34 25.005-0.51 0.51 0 1.021 0 1.701 0 4.252 0 8.845 0 13.268 0 8.675 0 17.010 0.17 25.005 0.51 82.328 2.551 166.187 7.144 248.005 20.582 45.927 6.124 83.859 12.928 104.441 19.051 0 0 54.942 9.526 52.901 38.783 0 0.34 0 0.51-0.17 0.85 0.34 4.763-0.51 14.288-1.191 18.881-1.191 7.825-2.381 15.649-3.912 23.644-6.124 35.041-16.84 70.081-33.169 102.4-0.17 0.34-0.34 0.68-0.51 1.191-6.804 13.438-14.458 26.536-23.304 38.783-13.778 18.881-30.958 33.68-46.948 42.185-58.004 30.788-146.626 61.406-220.959 106.823v0c-0.68 0.51-1.531 0.85-2.381 1.361 21.773 23.814 37.932 55.112 46.437 90.663 25.005 24.494 52.731 71.612 52.731 116.858 0 30.108-3.742 45.247-19.051 45.076l-1.191 86.581c0.34 0 2.551 162.955-184.048 162.955v0zM1022.299 949.794c167.038 0 164.997-145.775 164.997-145.775l1.021-77.565c13.608 0.17 16.84-13.268 16.84-40.314 0-40.484-24.664-82.668-47.118-104.611-7.654-31.809-22.113-59.875-41.674-81.138 0.68-0.34 1.361-0.85 2.041-1.191 66.509-40.654 145.946-68.040 197.826-95.596 14.288-7.654 29.427-20.922 41.845-37.762 8.335-11.567 15.819-23.984 22.113-36.912 0.17-0.51 0.34-1.021 0.68-1.361 0.85-1.871 1.701-3.572 2.551-5.443 12.587-26.876 20.922-55.452 25.855-84.199 0.17-0.51 0.17-1.021 0.34-1.531 0.17-1.361 0.34-2.722 0.68-4.082 0.85-4.933 1.701-9.866 2.551-14.799 0.68-4.082 1.361-12.587 1.021-16.84 0-0.17 0-0.51 0.17-0.85 1.871-26.195-47.288-34.7-47.288-34.7-18.371-5.443-52.221-11.397-93.385-17.010-38.102-6.294-76.715-10.376-115.328-13.268-13.268 35.891-31.979 69.741-57.324 98.488-62.256 62.256-152.409 81.478-228.104 122.642-10.206 5.953 56.983 113.967 63.277 127.064 14.629 41.845 26.025 94.065-1.531 133.188-6.464 42.355-0.85 87.261-13.438 129.106-10.206 36.061-31.468 66.679-59.365 90.323 10.036 43.205 44.226 114.137 160.744 114.137v0zM398.033 951.495c-167.038 0-164.997-145.775-164.997-145.775l-1.021-77.565c-13.608 0.17-16.84-13.268-16.84-40.314 0-40.484 24.664-82.668 47.118-104.611 7.654-31.809 22.113-59.875 41.674-81.138-0.68-0.34-1.361-0.85-2.041-1.191-66.509-40.654-145.946-68.040-197.826-95.596-14.288-7.654-29.427-20.922-41.845-37.762-8.335-11.567-15.819-23.984-22.113-36.912-0.17-0.51-0.34-1.021-0.68-1.361-0.85-1.871-1.701-3.572-2.551-5.443-12.587-26.876-20.922-55.452-25.855-84.199-0.17-0.51-0.17-1.021-0.34-1.531-0.17-1.361-0.34-2.722-0.68-4.082-0.85-4.933-1.701-9.866-2.551-14.799-0.68-4.082-1.361-12.587-1.021-16.84 0-0.17 0-0.51-0.17-0.85-1.871-26.195 47.288-34.7 47.288-34.7 18.371-5.443 52.221-11.397 93.385-17.010 38.102-6.294 76.715-10.376 115.328-13.268 13.268 35.891 31.979 69.741 57.324 98.488 62.256 62.256 152.409 81.478 228.104 122.642 10.206 5.953-56.983 113.967-63.277 127.064-14.629 41.845-26.025 94.065 1.531 133.188 6.464 42.355 0.85 87.261 13.438 129.106 10.206 36.061 31.468 66.679 59.365 90.323-10.036 43.205-44.226 114.137-160.744 114.137v0z" />
<glyph unicode="&#xe94d;" glyph-name="offices" horiz-adv-x="1470" d="M1279.309 960h-74.051l166.338-296.756v-119.365c0-26.526-21.552-47.525-47.525-47.525h-2.763c-26.526 0-47.525 21.552-47.525 47.525v119.365l-142.575 296.756h-74.051l118.26-296.756v-119.365c0-26.526-21.552-47.525-47.525-47.525h-2.763c-26.526 0-47.525 21.552-47.525 47.525v119.365l-93.945 296.756h-74.051l70.182-296.756v-119.365c0-26.526-21.552-47.525-47.525-47.525h-2.763c-26.526 0-47.525 21.552-47.525 47.525v119.365l-46.42 296.756h-74.051l22.105-296.756v-119.365c0-26.526-21.552-47.525-47.525-47.525h-2.763c-26.526 0-47.525 21.552-47.525 47.525v119.365l2.21 296.756h-74.051l-25.973-296.756v-119.365c0-26.526-21.552-47.525-47.525-47.525h-2.763c-26.526 0-47.525 21.552-47.525 47.525v119.365l49.736 296.756h-73.498l-74.603-296.756v-119.365c0-26.526-21.552-47.525-47.525-47.525h-2.763c-26.526 0-47.525 21.552-47.525 47.525v119.365l98.366 296.756h-74.051l-122.128-296.756v-119.365c0-26.526-21.552-47.525-47.525-47.525h-2.763c-26.526 0-47.525 21.552-47.525 47.525v119.365l145.891 296.756h-73.498l-170.759-296.756v-119.365c0-26.526 21.552-47.525 47.525-47.525h2.763c6.079 0 12.158 1.105 17.684 3.316v-563.67h978.685v512.276h248.125v-511.724h112.181v561.459c3.868-1.105 7.737-1.658 12.158-1.658h2.763c26.526 0 47.525 21.552 47.525 47.525v119.365l-190.1 296.756zM859.32 80.786h-696.298v367.491h696.298v-367.491z" />
<glyph unicode="&#xe94e;" glyph-name="pages" d="M679.869-64h-470.834c-69.719 0-126.595 56.876-126.595 126.825v647.884c0 13.99 11.238 25.227 25.227 25.227s25.227-11.238 25.227-25.227v-647.884c0-42.198 34.172-76.37 76.37-76.37h470.604c13.99 0 25.227-11.238 25.227-25.227-0.229-13.76-11.467-25.227-25.227-25.227zM934.436 770.566l-182.095 182.095c-4.816 4.587-11.238 7.339-17.888 7.339h-408.683c-69.948 0-126.825-56.876-126.825-126.595v-652.929c0-69.719 56.876-126.595 126.595-126.595h489.41c69.948 0 126.595 56.876 126.595 126.595v572.202c0.229 6.651-2.293 13.072-7.11 17.888zM724.131 909.775l163.978-163.978c-1.147 0.229-2.293 0.229-3.44 0.229h-83.25c-42.198 0-76.37 34.172-76.37 76.37v77.517c0 3.44-0.688 6.88-2.064 9.862h1.147zM891.549 180.476c0-42.198-34.172-76.37-76.37-76.37h-489.41c-42.198 0-76.37 34.401-76.37 76.37v652.929c0 42.198 34.172 76.37 76.37 76.37h351.118c-1.376-2.981-2.064-6.422-2.064-9.862v-77.517c0-69.948 56.876-126.595 126.595-126.595h83.25c2.523 0 4.816 0.459 6.88 0.917v-516.243zM713.352 496.276h-285.986c-13.99 0-25.227 11.238-25.227 25.227s11.238 25.227 25.227 25.227h285.986c13.99 0 25.227-11.238 25.227-25.227s-11.238-25.227-25.227-25.227zM713.352 344.912h-285.986c-13.99 0-25.227 11.238-25.227 25.227s11.238 25.227 25.227 25.227h285.986c13.99 0 25.227-11.238 25.227-25.227s-11.238-25.227-25.227-25.227z" />
<glyph unicode="&#xe94f;" glyph-name="team_tw" d="M991.706 264.010c-41.050 29.321-103.601 13.683-142.696 65.484 0 0-14.661 16.126 18.081 56.199s35.674 103.601 27.367 152.47c-8.308 48.869-54.733 81.61-102.624 81.61-48.38 0-94.316-32.742-102.624-81.61s-5.376-112.886 27.367-152.47c16.615-20.036 21.013-34.208 21.502-43.493 15.15-4.887 30.298-11.728 44.471-21.502 61.574-43.982 58.154-128.525 56.199-151.981h184.235c0 0 9.774 66.461-31.276 95.294zM239.618 320.697c14.661 10.263 30.298 17.104 45.936 21.991 0.489 9.285 4.887 22.968 21.502 43.004 32.742 40.072 35.674 103.601 27.367 152.47s-54.733 81.61-102.624 81.61c-48.38 0-94.316-32.742-102.624-81.61s-5.376-112.886 27.367-152.47c32.742-40.072 18.081-56.199 18.081-56.199-39.095-51.801-101.647-36.163-142.696-65.484-41.050-28.832-30.787-95.294-30.787-95.294h183.257c-3.421 23.946-6.841 107.999 55.221 151.981zM758.113 286.978c-14.172 10.263-30.298 15.638-47.402 20.036-43.982 11.728-94.316 14.661-129.013 60.597 0 0-18.081 20.036 22.48 69.882 40.561 49.357 43.982 128.036 33.719 188.633s-67.439 101.158-127.058 101.158c-59.619 0-116.796-40.561-127.058-101.158s-6.841-139.275 33.719-188.633c40.561-49.357 22.48-69.882 22.48-69.882-34.697-45.936-84.054-48.869-128.036-60.597-17.593-4.398-34.208-10.263-48.38-20.525-50.823-36.163-38.117-117.773-38.117-117.773h570.785c0 0 12.217 82.099-38.117 118.262z" />
<glyph unicode="&#xe950;" glyph-name="envelope" d="M986.624 786.592c-12.16 8.416-26.848 13.408-42.656 13.408h-863.904c-15.84 0-30.528-4.96-42.688-13.408-19.648-13.6-32.608-36.32-32.608-61.888v-553.408c0-25.568 12.96-48.256 32.608-61.888 12.128-8.416 26.848-13.408 42.688-13.408h863.904c15.808 0 30.496 4.992 42.656 13.408 19.648 13.632 32.608 36.32 32.608 61.888v553.408c0 25.6-12.96 48.288-32.64 61.888zM859.456 734.112l-340.512-338.304c-2.272-2.272-5.056-2.752-6.976-2.752s-4.704 0.48-6.976 2.752l-340.48 338.304h694.944zM70.624 171.296v553.408c0 2.624 1.248 5.024 3.104 6.752l285.28-283.488-285.28-283.488c-1.856 1.76-3.104 4.16-3.104 6.784zM164.512 161.888l241.248 239.68 52.832-52.48c14.688-14.592 34.048-21.888 53.408-21.888s38.72 7.296 53.408 21.888l52.832 52.48 241.216-239.68h-694.944zM664.96 448l285.312 283.488c1.856-1.728 3.104-4.128 3.104-6.752v-553.408c0-2.624-1.216-5.024-3.104-6.784l-285.312 283.488z" />
<glyph unicode="&#xe951;" glyph-name="phone-calling" d="M395.584 331.584c89.248-89.248 190.144-172.672 230.88-131.936 58.208 58.208 93.12 108.64 223.104 5.824 128.032-102.816 31.040-170.72-27.168-226.976-65.952-65.952-306.528-5.824-547.104 232.8-238.624 238.624-300.704 481.152-236.704 543.232 56.256 56.256 124.16 155.2 226.976 29.088 102.816-128.032 52.384-162.976-5.824-223.104-38.816-38.816 46.56-141.632 135.808-228.928zM523.648 750.656c0 0-25.216 3.872-44.608-13.568-17.472-19.392-19.392-52.384 0-73.728 13.568-11.648 29.088-13.568 29.088-13.568 32.992-5.824 83.424-17.472 137.76-69.856 52.384-52.384 64.032-102.816 69.856-135.808 0 0 1.952-15.52 13.568-29.088 19.392-19.392 54.336-19.392 73.728 0 17.472 19.392 13.568 44.608 13.568 44.608-11.648 67.904-44.608 137.76-98.944 194.016-56.256 54.336-126.112 87.296-194.016 96.992zM775.84 711.84c96.992-96.992 137.76-207.584 126.112-296.832 0 0-5.824-27.168 13.568-46.56s54.336-19.392 73.728 0c11.648 13.568 15.52 32.992 15.52 32.992 9.696 77.6-3.872 232.8-155.2 384.128-153.28 149.376-308.48 162.976-386.080 153.28 0 0-19.392-3.872-32.992-15.52-19.392-21.344-19.392-52.384 0-73.728 19.392-17.472 46.56-13.568 46.56-13.568 91.168 13.568 201.76-27.168 298.784-124.16z" />
<glyph unicode="&#xe952;" glyph-name="crop" d="M832 704l192 192-64 64-192-192h-448v192h-128v-192h-192v-128h192v-512h512v-192h128v192h192v128h-192v448zM320 640h320l-320-320v320zM384 256l320 320v-320h-320z" />
<glyph unicode="&#xe953;" glyph-name="cog" d="M923.885 448c0 63.699 39.225 113.855 98.19 148.347-10.686 35.461-24.713 69.529-42.020 101.531-66.127-17.307-119.624 8.564-164.618 53.62-44.994 44.933-58.782 98.43-41.475 164.618-32.002 17.307-66.066 31.457-101.531 41.959-34.492-58.904-96.854-98.068-160.43-98.068-63.638 0-125.939 39.164-160.492 98.068-35.522-10.508-69.468-24.652-101.47-41.959 17.307-66.188 3.581-119.685-41.536-164.618-44.933-45.055-98.43-70.927-164.618-53.62-17.307-32.002-31.395-66.066-41.959-101.531 58.904-34.492 98.068-84.648 98.068-148.347 0-63.576-39.164-125.939-98.068-160.492 10.625-35.461 24.652-69.468 41.959-101.531 66.188 17.307 119.685 3.581 164.618-41.413 44.994-45.055 58.843-98.553 41.536-164.618 32.002-17.307 66.004-31.457 101.531-42.082 34.492 59.083 96.854 98.19 160.492 98.19 63.576 0 125.939-39.164 160.492-98.19 35.461 10.686 69.468 24.775 101.531 42.082-17.307 66.066-3.581 119.563 41.475 164.618 44.994 44.933 98.491 70.804 164.618 53.62 17.307 32.002 31.395 65.943 42.020 101.531-59.083 34.553-98.313 84.709-98.313 148.285zM512 226.238c-122.542 0-221.824 99.282-221.824 221.762 0 122.542 99.343 221.885 221.824 221.885 122.542 0 221.762-99.404 221.762-221.885 0-122.542-99.221-221.762-221.762-221.762z" />
<glyph unicode="&#xe954;" glyph-name="access_time, query_builder, schedule" d="M534 662v-224l192-114-32-54-224 136v256h64zM512 106q140 0 241 101t101 241-101 241-241 101-241-101-101-241 101-241 241-101zM512 874q176 0 301-125t125-301-125-301-301-125-301 125-125 301 125 301 301 125z" />
<glyph unicode="&#xe955;" glyph-name="update-loading" d="M511.047-64c-110.176 0-215.267 34.748-304.043 100.43l-26.908 19.916-61.020-82.42-81.149 273.321 285.186 2.331-61.020-82.42 26.908-19.916c64.834-48.096 141.745-73.309 222.259-73.309 118.439 0 230.946 56.571 301.289 151.492 53.817 72.886 79.030 163.357 71.826 253.193l137.72 1.059c7.628-120.558-26.908-238.785-98.946-336.248-96.404-129.88-250.438-207.427-412.1-207.427zM1.059 416.324c-7.628 120.558 26.908 238.997 98.946 336.248 96.192 129.88 250.014 207.427 411.888 207.427 110.176 0 215.267-34.748 304.043-100.43l26.908-19.916 61.020 82.632 81.149-273.321-285.186-2.331 61.020 82.632-26.908 19.916c-64.834 48.096-141.745 73.521-222.259 73.521-118.227 0-230.946-56.783-301.077-151.704-54.029-72.886-79.242-163.357-71.826-253.405l-137.72-1.271z" />
<glyph unicode="&#xe956;" glyph-name="crm-integration" d="M494.895 502.884v-259.411c0-20.778 17-37.778 37.778-37.778h262.139l111.026-111.026c1.679-1.679 3.777-2.519 5.876-2.519 1.259 0 2.728 0.42 3.988 1.049 2.728 1.47 4.408 4.618 4.408 7.766v104.73h66.112c20.778 0 37.778 17 37.778 37.778v259.411c0 20.778-17 37.778-37.778 37.778h-453.339c-20.988 0-37.988-17-37.988-37.778zM470.759 512.119c0 28.963 23.507 52.47 52.47 52.47h238.633v195.398c0 24.136-19.728 43.865-43.865 43.865h-674.133c-24.136 0-43.865-19.518-43.865-43.865v-394.783c0-24.136 19.728-43.865 43.865-43.865h105.779v-150.903c0-4.408 2.309-8.815 6.086-10.914 1.889-1.049 3.988-1.47 5.876-1.47 3.148 0 6.086 1.259 8.395 3.568l159.718 159.718h140.829v190.78z" />
<glyph unicode="&#xe957;" glyph-name="my-leads" d="M999.098 824.269c0 85.379-218.92 135.731-488.192 135.731s-486.003-50.353-486.003-135.731c0-3.284 1.094-6.021 1.642-9.304v0l6.021-52.541 367.787-449.334h28.46v-377.091h64.034l111.102 79.906v297.184h24.629l365.050 450.429 4.925 51.447c0 2.737 0.548 6.021 0.548 9.304zM583.697 310.9v-216.731h-23.534v216.184l147.771 376.543h189.366l-313.603-375.996zM570.562 770.634c-16.419-0.548-33.385-1.094-50.899-1.094-1.094 0-2.189 0-3.284 0s-2.737 0-3.831 0c-230.414 0-417.043 33.933-417.043 75.528s186.629 76.075 417.043 76.075 417.043-33.933 417.043-75.528c-0.548-38.312-156.529-70.055-359.029-74.98z" />
<glyph unicode="&#xe958;" glyph-name="hot-sheet" d="M918.852 450.749c-58.352 161.163-179.503 179.503-179.503 179.503s59.464-292.872-34.455-207.845c-55.573 50.571-80.026 208.956-90.029 336.775-6.669 86.139-7.225 159.496-6.113 173.389 2.223 34.455-8.891 26.675-8.891 26.675-12.226-6.669-24.452-13.338-36.123-20.007-9.448-5.002-18.339-10.003-27.787-15.005s-18.895-10.003-27.231-16.116c-25.008-19.45-48.349-43.348-68.911-67.244-19.45-22.23-36.678-46.126-52.239-71.134-0.556-1.111-3.89-7.78-5.002-8.336-0.556-0.556-0.556-1.111-1.111-2.223-82.805-143.38-68.355-281.758-68.355-281.758 0-2.223 1.111-62.242-20.007-39.457-21.118 23.896-39.457 75.58-32.789 154.494-32.789 6.669-90.585-42.791-126.708-125.040-43.903-100.588-59.464-245.079-7.225-342.332 3.334-6.113 7.225-12.226 11.114-17.784 35.567-56.685 84.471-94.475 132.265-118.371 36.123-21.118 75.58-36.678 117.26-46.682 3.334-1.668 6.113-2.779 8.336-3.89 7.225-2.779 13.338-2.779 18.895-1.668 17.228 3.334 25.564 22.785 28.898 36.123 1.668 7.225 2.779 12.226 2.779 12.226s-9.448 50.571-46.126 72.246-69.467 99.476-69.467 99.476c-3.334 6.669-5.557 15.005 5.002 11.114 18.339-6.669 32.789-52.795 91.696-41.125s95.030 61.687 73.357 178.39c0 0 5.557 0 14.45-1.111 11.67-3.89 26.12-11.114 28.898-12.782 35.567-18.895 60.019-51.684 75.024-87.806 30.566-72.801 28.898-156.717 21.118-233.408-0.556-3.89-1.111-8.336-1.111-12.226 8.336 0.556 17.784 2.223 27.231 5.002 48.349 13.893 93.919 50.016 130.598 83.916 35.011 32.789 64.466 71.134 86.694 113.369 31.121 58.908 47.237 125.040 47.237 191.728 0.556 34.455-3.89 67.244-11.67 98.921z" />
<glyph unicode="&#xe959;" glyph-name="my-websites" d="M1023.317 833.024c-5.461 24.576-20.48 41.643-44.373 48.469-24.576 7.509-47.104 2.048-65.536-16.384-78.507-77.141-156.331-154.283-234.837-232.107h-630.101c-26.624 0-48.469-23.211-48.469-52.565v-517.461c0-28.672 21.845-52.565 48.469-52.565h734.549c26.624 0 48.469 23.211 48.469 52.565v518.144c0 6.827-1.365 12.971-3.413 19.115 35.499 34.816 70.997 69.632 106.496 104.448 23.211 23.211 46.421 45.739 70.315 68.949 12.971 12.971 19.797 27.989 19.797 47.787 0 3.413-0.683 7.509-1.365 11.605zM783.019 65.024l-731.819-1.365v516.096l573.44 0.683c-36.181-35.499-72.363-70.997-108.544-106.496-2.048-2.048-4.096-4.779-5.461-7.509-21.845-47.104-43.008-94.208-64.853-141.312-1.365-2.731-1.365-7.509 0-9.557 2.731-4.096 6.144-1.365 9.557 0 47.787 20.48 95.573 40.96 143.36 62.123 3.413 1.365 6.827 4.096 9.557 6.144 57.344 56.661 114.688 113.323 172.032 169.984l2.731-488.789z" />
<glyph unicode="&#xe95a;" glyph-name="lead-generation" d="M454.753 960h245.115c16.126 0 26.608-16.932 19.351-30.639l-189.48-378.961c-2.419-4.838 0.806-9.676 6.45-9.676h308.006c4.031 0 6.45-4.838 4.031-8.063l-489.424-591.824c-3.225-4.031-9.676-0.806-8.063 4.031l142.715 431.37c0.806 3.225-1.613 6.45-4.838 6.45h-302.362c-9.676 0-15.32 9.676-11.288 18.545l255.597 543.446c4.838 9.676 13.707 15.32 24.189 15.32z" />
<glyph unicode="&#xe95b;" glyph-name="my-account" d="M1003.52-51.712h-983.040c-9.011 0-16.384 6.554-17.818 15.36-1.024 6.144-21.914 152.986 73.114 220.57 38.298 27.238 84.378 37.478 128.819 47.309 64.512 14.336 125.542 27.853 171.008 88.269 0.41 0.614 18.637 28.262-38.298 97.69-91.341 111.616-70.451 288.154-61.85 339.558 18.022 107.93 119.603 189.235 236.544 189.235s218.522-81.306 236.544-189.235c8.602-51.405 29.491-227.942-61.85-339.558-56.934-69.427-38.707-97.075-38.502-97.28 45.875-60.621 106.906-74.342 171.418-88.678 44.442-9.83 90.522-20.070 128.819-47.309 95.027-67.584 74.138-214.426 73.114-220.57-1.434-8.806-9.011-15.36-18.022-15.36z" />
<glyph unicode="&#xe95c;" glyph-name="my-settings" d="M997.171 526.848c-18.022 5.734-44.032 13.312-73.318 19.866-4.506 1.024-9.011 2.867-12.902 5.53-1.024 0.614-1.843 1.229-2.662 1.843-6.349 4.506-11.264 11.264-13.722 18.637-6.349 19.456-14.131 38.298-23.347 56.32-3.482 6.963-4.915 15.155-3.482 22.733 0.41 2.867 1.024 5.53 1.843 8.397 1.024 3.891 2.662 7.578 4.71 11.059 15.36 24.576 27.853 47.514 36.454 63.898 7.782 14.95 4.915 33.178-6.963 45.056l-59.392 59.392c-11.878 11.878-30.106 14.746-44.851 6.963-16.794-8.806-40.55-21.709-65.946-37.683-3.891-2.458-8.397-4.301-12.902-5.325-1.024-0.205-2.253-0.41-3.277-0.614-7.782-1.229-15.77 0-22.938 3.482-18.022 9.216-36.864 16.998-56.32 23.347-7.373 2.458-14.131 7.168-18.637 13.722-1.638 2.253-3.277 4.71-4.71 7.168-2.048 3.482-3.482 7.373-4.506 11.264-6.349 28.262-13.722 53.248-19.456 70.861-5.12 16.384-19.866 27.238-36.659 27.238h-84.173c-16.794 0-31.539-10.854-36.659-26.829-5.734-18.022-13.312-44.032-19.866-73.318-1.024-4.506-2.867-9.011-5.53-12.902-0.614-1.024-1.229-1.843-1.843-2.662-4.506-6.349-11.264-11.264-18.637-13.722-19.456-6.349-38.298-14.131-56.32-23.347-6.963-3.482-15.155-4.915-22.733-3.482-2.867 0.41-5.53 1.024-8.397 1.843-3.891 1.024-7.578 2.662-11.059 4.71-24.576 15.565-47.514 27.853-63.898 36.454-14.95 7.782-33.178 4.915-45.056-6.963l-9.83-9.83-40.141-39.731-9.83-9.83c-11.878-11.878-14.746-30.106-6.963-44.851 8.806-16.794 21.709-40.55 37.683-65.946 2.458-3.891 4.301-8.397 5.325-12.902 0.205-1.024 0.41-2.253 0.614-3.277 1.229-7.782 0-15.77-3.482-22.938-9.216-18.022-16.998-36.864-23.347-56.32-2.458-7.373-7.168-14.131-13.722-18.637-2.253-1.638-4.71-3.277-7.168-4.71-3.482-2.048-7.373-3.482-11.264-4.506-28.262-6.349-53.248-13.722-70.861-19.456-16.179-5.12-27.034-19.866-27.034-36.659v-84.173c0-16.794 10.854-31.539 26.829-36.659 18.022-5.734 44.032-13.312 73.318-19.866 4.506-1.024 9.011-2.867 12.902-5.53 1.024-0.614 1.843-1.229 2.662-1.843 6.349-4.506 11.264-11.264 13.722-18.637 6.349-19.456 14.131-38.298 23.347-56.32 3.482-6.963 4.915-15.155 3.482-22.733-0.41-2.867-1.024-5.53-1.843-8.397-1.024-3.891-2.662-7.578-4.71-11.059-15.565-24.576-27.853-47.514-36.454-63.898-7.782-14.95-4.915-33.178 6.963-45.056l59.392-59.392c11.878-11.878 30.106-14.746 44.851-6.963 16.794 8.806 40.55 21.709 65.946 37.683 3.891 2.458 8.397 4.301 12.902 5.325 1.024 0.205 2.253 0.41 3.277 0.614 7.782 1.229 15.77 0 22.938-3.482 18.022-9.216 36.864-16.998 56.32-23.347 7.373-2.458 14.131-7.168 18.637-13.722 1.638-2.253 3.277-4.71 4.71-7.168 2.048-3.482 3.482-7.373 4.506-11.264 6.349-28.262 13.722-53.248 19.456-70.861 5.12-15.974 19.866-26.829 36.659-26.829h84.173c16.794 0 31.539 10.854 36.659 26.829 5.734 18.022 13.312 44.032 19.866 73.318 1.024 4.506 2.867 9.011 5.53 12.902 0.614 1.024 1.229 1.843 1.843 2.662 4.506 6.349 11.264 11.264 18.637 13.722 19.456 6.349 38.298 14.131 56.32 23.347 6.963 3.482 15.155 4.915 22.733 3.482 2.867-0.41 5.53-1.024 8.397-1.843 3.891-1.024 7.578-2.662 11.059-4.71 24.576-15.565 47.514-27.853 63.898-36.454 14.95-7.782 33.178-4.915 45.056 6.963l59.392 59.392c11.878 11.878 14.746 30.106 6.963 44.851-8.806 16.794-21.709 40.55-37.683 65.946-2.458 3.891-4.301 8.397-5.325 12.902-0.205 1.024-0.41 2.253-0.614 3.277-1.229 7.782 0 15.77 3.482 22.938 9.216 18.022 16.998 36.864 23.347 56.32 2.458 7.373 7.168 14.131 13.722 18.637 2.253 1.638 4.71 3.277 7.168 4.71 3.482 2.048 7.373 3.482 11.264 4.506 28.262 6.349 53.248 13.722 70.861 19.456 15.974 5.12 26.829 19.866 26.829 36.659v84.173c0.614 16.179-10.24 31.13-26.214 36.25zM512 225.792c-122.675 0-222.208 99.533-222.208 222.208s99.533 222.208 222.208 222.208 222.208-99.533 222.208-222.208-99.533-222.208-222.208-222.208z" />
<glyph unicode="&#xe95d;" glyph-name="inbox-drawer" d="M1016.988 307.99l-256 320c-6.074 7.592-15.266 12.010-24.988 12.010h-448c-9.72 0-18.916-4.418-24.988-12.010l-256-320c-4.538-5.674-7.012-12.724-7.012-19.99v-288c0-35.346 28.654-64 64-64h896c35.348 0 64 28.654 64 64v288c0 7.266-2.472 14.316-7.012 19.99zM960 256h-224l-128-128h-192l-128 128h-224v20.776l239.38 299.224h417.24l239.38-299.224v-20.776z" />
<glyph unicode="&#xe95e;" glyph-name="property-sites" d="M633.037 460.493l-164.864-152.781v-166.502c0-4.301 3.482-7.987 7.987-7.987h103.629c4.301 0 7.578 3.482 7.578 7.578v96.461c0 5.325 4.301 9.626 9.626 9.626h73.523c5.325 0 9.626-4.301 9.626-9.626v-96.461c0-4.301 3.482-7.578 7.578-7.578h103.629c4.301 0 7.987 3.482 7.987 7.987v166.502l-166.298 152.781zM860.57 322.048l-80.282 73.523v109.978h-76.595v-39.731l-65.536 60.211c-3.072 2.662-7.782 2.662-10.65 0l-220.16-204.186c-2.867-2.662-3.482-6.758-1.434-10.035 1.434-2.458 4.301-3.686 7.168-3.686h34.202l176.538 163.635c5.325 4.915 13.312 4.915 18.637 0l178.381-163.635h34.202c2.867 0 5.53 1.229 7.168 3.686 1.843 3.482 1.229 7.578-1.638 10.24zM876.339 645.837c38.502 0 69.632-31.334 69.632-69.632v-492.544c0-38.502-31.334-69.632-69.632-69.632h-492.544c-38.502 0-69.632 31.334-69.632 69.632v492.544c0 38.502 31.334 69.632 69.632 69.632h492.544zM876.339 723.866h-492.544c-81.51 0-147.661-66.15-147.661-147.661v-492.544c0-81.51 66.15-147.661 147.661-147.661h492.544c81.51 0 147.661 66.15 147.661 147.661v492.544c0 81.51-66.15 147.661-147.661 147.661v0zM236.134 250.163h-88.474c-38.502 0-69.632 31.334-69.632 69.632v492.544c0 38.502 31.334 69.632 69.632 69.632h492.544c38.502 0 69.632-31.334 69.632-69.632v-88.678h77.824v88.678c0 81.51-66.15 147.661-147.661 147.661h-492.339c-81.51 0-147.661-66.15-147.661-147.661v-492.544c0-81.51 66.15-147.661 147.661-147.661h88.678l-0.205 78.029z" />
<glyph unicode="&#xe95f;" glyph-name="idx-integration" d="M1020.906 54.848l-127.015 333.704c-11.547 30.022-40.414 49.652-71.59 49.652h-189.369c28.867 62.354 56.58 124.706 78.519 190.524 12.702 36.95 18.475 75.054 9.238 114.314-27.712 115.468-131.635 187.060-249.412 170.893-105.077-15.011-187.060-107.386-188.214-213.617 0-6.929 0-12.702 1.155-19.629 6.929-25.403 12.702-50.807 20.785-75.054 19.629-56.58 43.878-112.005 69.281-166.275h-244.794c-21.939 0-41.569-15.011-46.187-36.95l-81.983-362.572c-3.464-15.011 0-30.022 9.238-41.569s23.094-18.475 39.26-18.475h917.977c18.475 0 35.796 9.238 46.187 24.249s12.702 33.486 6.929 50.807zM504.761 783.455c48.497 0 87.756-40.414 87.756-87.756 0-48.497-39.26-87.756-87.756-87.756-49.652 0-87.756 39.26-87.756 88.911 0 47.342 40.414 86.601 87.756 86.601zM972.41 31.754c-1.155-1.155-2.309-2.309-4.618-2.309l-916.821-1.155 81.983 359.108h266.732c4.618-9.238 9.238-18.475 12.702-27.712 21.939-47.342 45.033-93.53 66.972-140.872 9.238-18.475 16.165-23.094 36.95-18.475 3.464 1.155 6.929 0 9.238 4.618 27.712 61.198 56.58 121.242 85.447 182.44h212.462c10.392 0 20.785-6.929 24.249-17.32l125.861-333.704c0-1.155-1.155-3.464-1.155-4.618z" />
<glyph unicode="&#xe960;" glyph-name="info" d="M320 448c35.36 0 64-28.64 64-64v-256c0-35.36-28.64-64-64-64h-64v-128h512v128h-63.744c-35.264 0-64.256 28.64-64.256 64l-0.128 448h-383.872v-128h64zM384 832c0 70.692 57.308 128 128 128s128-57.308 128-128c0-70.692-57.308-128-128-128s-128 57.308-128 128z" />
<glyph unicode="&#xe961;" glyph-name="info1" d="M520.973 857.317c0-61.178 46.174-102.629 103.174-102.629s103.246 41.487 103.246 102.629c0 61.214-46.21 102.665-103.246 102.665-56.964 0-103.174-41.451-103.174-102.665zM297.515 507.034c0-12.134-2.216-42.25 0.291-60.378l90.059 108.369c18.637 20.417 40.18 34.694 51.187 30.843 11.044-3.851 17.075-16.82 13.478-28.881l-149.057-493.708c-17.184-57.69 15.294-114.363 94.419-127.296 115.853 0 184.696 78.398 252.413 180.009 0 12.134 4.032 44.067 1.598 62.231l-90.059-108.332c-18.673-20.417-41.814-34.694-52.858-30.879-10.172 3.56-16.13 14.895-14.132 26.193l150.111 495.997c12.497 62.994-21.434 120.321-93.147 127.659-75.419-0.036-186.585-80.25-254.302-181.826z" />
<glyph unicode="&#xe962;" glyph-name="writing" d="M1006.44 586.344l-50.082 50.082c-23.394 23.396-61.458 23.392-84.854 0l-105.49-105.49v339.064c0 49.626-40.374 90-90 90h-586c-49.626 0-90-40.374-90-90v-844c0-49.626 40.374-90 90-90h586c49.626 0 90 40.374 90 90v238.066l240.426 237.424c23.394 23.394 23.394 61.46 0 84.854zM647.642 231.498l-90.244-42.116 42.074 90.156 223.95 223.95 49.514-49.512zM706.014 26c0-16.542-13.458-30-30-30h-586c-16.542 0-30 13.458-30 30v844c0 16.542 13.458 30 30 30h586c16.542 0 30-13.458 30-30v-399.064c-166.358-166.358-155.494-154.406-158.68-161.232l-79.196-169.708c-5.334-11.434-2.948-24.98 5.972-33.9 8.92-8.922 22.472-11.306 33.9-5.972l169.708 79.198c6.222 2.904 7.246 4.708 28.296 25.496zM915.626 496.134l-49.78 49.78 48.086 48.086 50.066-50.098zM160.014 706h448c16.568 0 30 13.432 30 30s-13.432 30-30 30h-448c-16.568 0-30-13.432-30-30s13.432-30 30-30zM160.014 546h352c16.568 0 30 13.432 30 30s-13.432 30-30 30h-352c-16.568 0-30-13.432-30-30s13.432-30 30-30zM416.014 446h-256c-16.568 0-30-13.432-30-30s13.432-30 30-30h256c16.568 0 30 13.432 30 30s-13.432 30-30 30z" />
<glyph unicode="&#xe963;" glyph-name="integration" d="M448 576h-384c-35.285 0-64 28.715-64 64v256c0 35.285 28.715 64 64 64h384c35.285 0 64-28.715 64-64v-256c0-35.285-28.715-64-64-64zM64 917.333c-11.776 0-21.333-9.557-21.333-21.333v-256c0-11.776 9.557-21.333 21.333-21.333h384c11.776 0 21.333 9.557 21.333 21.333v256c0 11.776-9.557 21.333-21.333 21.333zM320 490.667h-128c-11.776 0-21.333 9.557-21.333 21.333s9.557 21.333 21.333 21.333h128c11.776 0 21.333-9.557 21.333-21.333s-9.557-21.333-21.333-21.333zM256 490.667c-11.776 0-21.333 9.557-21.333 21.333v85.333c0 11.776 9.557 21.333 21.333 21.333s21.333-9.557 21.333-21.333v-85.333c0-11.776-9.557-21.333-21.333-21.333zM960 21.333h-384c-35.285 0-64 28.715-64 64v256c0 35.285 28.715 64 64 64h384c35.285 0 64-28.715 64-64v-256c0-35.285-28.715-64-64-64zM576 362.667c-11.776 0-21.333-9.557-21.333-21.333v-256c0-11.776 9.557-21.333 21.333-21.333h384c11.776 0 21.333 9.557 21.333 21.333v256c0 11.776-9.557 21.333-21.333 21.333zM832-64h-128c-11.776 0-21.333 9.557-21.333 21.333s9.557 21.333 21.333 21.333h128c11.776 0 21.333-9.557 21.333-21.333s-9.557-21.333-21.333-21.333zM768-64c-11.776 0-21.333 9.557-21.333 21.333v85.333c0 11.776 9.557 21.333 21.333 21.333s21.333-9.557 21.333-21.333v-85.333c0-11.776-9.557-21.333-21.333-21.333zM682.667 746.667h-64c-11.819 0-21.333 9.557-21.333 21.333s9.515 21.333 21.333 21.333h64c11.776 0 21.333-9.557 21.333-21.333s-9.557-21.333-21.333-21.333zM832 641.792c-11.776 0-21.333 9.557-21.333 21.333v19.541c0 28.672-19.285 54.059-46.891 61.696-11.349 3.157-18.005 14.891-14.891 26.24 3.157 11.392 15.019 17.963 26.24 14.891 46.080-12.757 78.208-55.040 78.208-102.827v-19.541c0-11.776-9.557-21.333-21.333-21.333zM832 490.667c-11.776 0-21.333 9.557-21.333 21.333v64c0 11.776 9.557 21.333 21.333 21.333s21.333-9.557 21.333-21.333v-64c0-11.776-9.557-21.333-21.333-21.333zM405.333 106.667h-64c-11.776 0-21.333 9.557-21.333 21.333s9.557 21.333 21.333 21.333h64c11.776 0 21.333-9.557 21.333-21.333s-9.515-21.333-21.333-21.333zM254.549 109.739c-1.877 0-3.797 0.256-5.717 0.768-46.037 12.757-78.165 55.040-78.165 102.827v19.541c0 11.776 9.557 21.333 21.333 21.333s21.333-9.557 21.333-21.333v-19.541c0-28.672 19.285-54.059 46.891-61.696 11.349-3.157 18.005-14.891 14.891-26.24-2.645-9.472-11.221-15.659-20.565-15.659zM192 298.667c-11.776 0-21.333 9.557-21.333 21.333v64c0 11.776 9.557 21.333 21.333 21.333s21.333-9.557 21.333-21.333v-64c0-11.776-9.557-21.333-21.333-21.333z" />
<glyph unicode="&#xe964;" glyph-name="headset" d="M-0.157 245.146v-214.555c0.177-41.468 33.888-74.972 75.362-74.868h30.813v363.355h-30.813c-41.438 0-75.362-32.494-75.362-73.932zM139.049 319.078h33.033v-363.355h-33.033zM868.12 319.078h30.673v-363.355h-30.673zM943.622 340.313v179.62c0 230.732-190.091 419.747-423.831 421.347-112.295 0.177-220.011-44.446-299.281-123.982-79.469-78.526-124.114-185.644-123.93-297.365v-179.62h37.752v179.62c-0.118 101.692 40.56 199.182 112.929 270.621 72.066 72.398 170.043 113.061 272.192 112.973 213.073-1.453 386.419-173.537 386.419-383.595v-179.62zM948.48 319.078h-16.656v-363.355h16.656c36.342 0 75.362 15.447 75.362 59.583v214.555c0 40.959-33.74 89.217-75.362 89.217z" />
<glyph unicode="&#xe965;" glyph-name="person_outline, perm_identity" d="M512 385.123q95.813 0 209.591-26.947t208.094-89.825 94.316-140.725v-191.626h-1024v191.626q0 77.848 94.316 140.725t208.094 89.825 209.591 26.947zM512 960q104.795 0 179.649-76.351t74.854-181.146-74.854-179.649-179.649-74.854-179.649 74.854-74.854 179.649 74.854 181.146 179.649 76.351zM512 262.363q-131.743 0-260.491-49.404t-128.749-85.333v-68.865h778.48v68.865q0 35.93-128.749 85.333t-260.491 49.404zM512 837.24q-56.889 0-95.813-38.924t-38.924-95.813 38.924-94.316 95.813-37.427 95.813 37.427 38.924 94.316-38.924 95.813-95.813 38.924z" />
<glyph unicode="&#xe966;" glyph-name="logout" d="M100.958 806.16v-716.319h411.042v-103.362h-411.042q-40.864 0-70.911 31.249t-30.047 72.113v716.319q0 40.864 30.047 72.113t70.911 31.249h411.042v-103.362h-411.042zM769.202 705.202l254.798-257.202-254.798-257.202-72.113 74.516 132.207 132.207h-521.615v100.958h521.615l-132.207 134.61z" />
<glyph unicode="&#xe967;" glyph-name="dollar, usd" d="M778.334 282.856c0-116.571-83.429-208.571-204.571-228.571v-100c0-10.286-8-18.286-18.286-18.286h-77.143c-9.714 0-18.286 8-18.286 18.286v100c-133.714 18.857-206.857 98.857-209.714 102.286-5.714 6.857-6.286 16.571-1.143 23.429l58.857 77.143c2.857 4 8 6.286 13.143 6.857s10.286-1.143 13.714-5.143c1.143-0.571 81.143-77.143 182.286-77.143 56 0 116.571 29.714 116.571 94.286 0 54.857-67.429 81.714-144.571 112.571-102.857 40.571-230.857 92-230.857 235.429 0 105.143 82.286 192 201.714 214.857v102.857c0 10.286 8.571 18.286 18.286 18.286h77.143c10.286 0 18.286-8 18.286-18.286v-100.571c116-13.143 177.714-76 180-78.286 5.714-6.286 6.857-14.857 2.857-21.714l-46.286-83.429c-2.857-5.143-7.429-8.571-13.143-9.143-5.714-1.143-10.857 0.571-15.429 4-0.571 0.571-69.714 61.714-155.429 61.714-72.571 0-122.857-36-122.857-88 0-60.571 69.714-87.429 150.857-118.857 105.143-40.571 224-86.857 224-224.571z" />
</font>
</defs>
</svg>
